<?xml version="1.0" encoding="utf-8"?>
<!-- Generator: Adobe Illustrator 19.1.0, SVG Export Plug-In . SVG Version: 6.00 Build 0)  -->
<svg version="1.1" id="Layer_1" xmlns="http://www.w3.org/2000/svg" xmlns:xlink="http://www.w3.org/1999/xlink" x="0px" y="0px"
	 viewBox="0 0 34 34" enable-background="new 0 0 34 34" xml:space="preserve">
<g>
	<path d="M17,34C7.6,34,0,26.4,0,17S7.6,0,17,0s17,7.6,17,17S26.4,34,17,34z M28.3,15.6c0-0.8-0.6-1.4-1.4-1.4H15.8L20,10
		c0.3-0.3,0.4-0.6,0.4-1S20.2,8.3,20,8l-2-2c-0.3-0.3-0.6-0.4-1-0.4S16.3,5.7,16,6l-8,8l-2,2c-0.3,0.3-0.4,0.6-0.4,1s0.1,0.7,0.4,1
		l2,2l8,8c0.3,0.3,0.6,0.4,1,0.4s0.7-0.1,1-0.4l2-2c0.3-0.3,0.4-0.6,0.4-1s-0.1-0.7-0.4-1l-4.2-4.2h11.1c0.8,0,1.4-0.6,1.4-1.4
		C28.3,18.4,28.3,15.6,28.3,15.6z"/>
</g>
<g>
</g>
<g>
</g>
<g>
</g>
<g>
</g>
<g>
</g>
<g>
</g>
</svg>
