<?xml version="1.0" encoding="utf-8"?>
<!-- Generator: Adobe Illustrator 19.0.0, SVG Export Plug-In . SVG Version: 6.00 Build 0)  -->
<svg version="1.1" id="Layer_1" xmlns="http://www.w3.org/2000/svg" xmlns:xlink="http://www.w3.org/1999/xlink" x="0px" y="0px"
	 viewBox="0 0 34 34" enable-background="new 0 0 34 34" xml:space="preserve">
<g id="XMLID_1_">
	<path id="XMLID_2_" d="M33.2,19.9l-1.6,1.6c-0.5,0.5-1.2,0.8-2,0.8s-1.5-0.3-2-0.8l-6.4-6.4v15.4c0,1.6-1.3,2.6-2.8,2.6h-2.8
		c-1.5,0-2.8-1-2.8-2.6V15.1l-6.4,6.4c-0.5,0.5-1.2,0.8-2,0.8s-1.5-0.3-2-0.8l-1.6-1.6c-0.5-0.5-0.8-1.2-0.8-2c0-0.7,0.3-1.5,0.8-2
		L15,1.7c0.5-0.5,1.2-0.8,2-0.8s1.5,0.3,2,0.8L33.2,16c0.5,0.5,0.8,1.2,0.8,2C34,18.7,33.7,19.4,33.2,19.9z"/>
</g>
<g id="XMLID_4_">
</g>
<g id="XMLID_5_">
</g>
<g id="XMLID_6_">
</g>
<g id="XMLID_7_">
</g>
<g id="XMLID_8_">
</g>
<g id="XMLID_9_">
</g>
</svg>
