<?xml version="1.0" encoding="utf-8"?>
<!-- Generator: Adobe Illustrator 19.0.0, SVG Export Plug-In . SVG Version: 6.00 Build 0)  -->
<svg version="1.1" id="Layer_1" xmlns="http://www.w3.org/2000/svg" xmlns:xlink="http://www.w3.org/1999/xlink" x="0px" y="0px"
	 viewBox="0 0 34 34" enable-background="new 0 0 34 34" xml:space="preserve">
<g id="XMLID_1_">
	<path id="XMLID_2_" d="M33.1,18.4c0,1.5-1,2.8-2.6,2.8H15.1l6.4,6.4c0.5,0.5,0.8,1.2,0.8,2c0,0.7-0.3,1.5-0.8,2l-1.6,1.7
		c-0.5,0.5-1.2,0.8-2,0.8c-0.7,0-1.5-0.3-2-0.8L1.7,19c-0.5-0.5-0.8-1.2-0.8-2s0.3-1.5,0.8-2L16,0.8c0.5-0.5,1.2-0.8,2-0.8
		c0.7,0,1.4,0.3,2,0.8l1.6,1.6c0.5,0.5,0.8,1.2,0.8,2s-0.3,1.5-0.8,2l-6.4,6.4h15.4c1.6,0,2.6,1.3,2.6,2.8V18.4z"/>
</g>
<g id="XMLID_4_">
</g>
<g id="XMLID_5_">
</g>
<g id="XMLID_6_">
</g>
<g id="XMLID_7_">
</g>
<g id="XMLID_8_">
</g>
<g id="XMLID_9_">
</g>
</svg>
