<?xml version="1.0" encoding="utf-8"?>
<!-- Generator: Adobe Illustrator 19.0.0, SVG Export Plug-In . SVG Version: 6.00 Build 0)  -->
<svg version="1.1" id="Layer_1" xmlns="http://www.w3.org/2000/svg" xmlns:xlink="http://www.w3.org/1999/xlink" x="0px" y="0px"
	 viewBox="0 0 34 34" enable-background="new 0 0 34 34" xml:space="preserve">
<g id="XMLID_1_">
	<path id="XMLID_2_" d="M17,34C7.6,34,0,26.4,0,17S7.6,0,17,0s17,7.6,17,17S26.4,34,17,34z M28,16l-2-2l-8-8c-0.3-0.3-0.6-0.4-1-0.4
		c-0.4,0-0.7,0.1-1,0.4l-2,2c-0.3,0.3-0.4,0.6-0.4,1s0.1,0.7,0.4,1l4.2,4.2H7.1c-0.8,0-1.4,0.6-1.4,1.4v2.8c0,0.8,0.6,1.4,1.4,1.4
		h11.1L14,24c-0.3,0.3-0.4,0.6-0.4,1s0.2,0.7,0.4,1l2,2c0.3,0.3,0.6,0.4,1,0.4c0.4,0,0.7-0.1,1-0.4l8-8l2-2c0.3-0.3,0.4-0.6,0.4-1
		S28.3,16.3,28,16z"/>
</g>
<g id="XMLID_5_">
</g>
<g id="XMLID_6_">
</g>
<g id="XMLID_7_">
</g>
<g id="XMLID_8_">
</g>
<g id="XMLID_9_">
</g>
<g id="XMLID_10_">
</g>
</svg>
