<?xml version="1.0" encoding="utf-8"?>
<!-- Generator: Adobe Illustrator 19.0.0, SVG Export Plug-In . SVG Version: 6.00 Build 0)  -->
<svg version="1.1" id="Layer_1" xmlns="http://www.w3.org/2000/svg" xmlns:xlink="http://www.w3.org/1999/xlink" x="0px" y="0px"
	 viewBox="0 0 34 34" enable-background="new 0 0 34 34" xml:space="preserve">
<g id="XMLID_1_">
	<path id="XMLID_2_" d="M33.2,18.1L19,32.4c-0.5,0.5-1.2,0.8-2,0.8s-1.5-0.3-2-0.8L0.8,18.1c-0.5-0.5-0.8-1.2-0.8-2s0.3-1.5,0.8-2
		l1.6-1.6c0.5-0.5,1.2-0.8,2-0.8s1.5,0.3,2,0.8l6.4,6.4V3.6c0-1.5,1.3-2.8,2.8-2.8h2.8c1.5,0,2.8,1.3,2.8,2.8V19l6.4-6.4
		c0.5-0.5,1.2-0.8,2-0.8s1.5,0.3,2,0.8l1.6,1.6c0.5,0.5,0.8,1.2,0.8,2S33.7,17.6,33.2,18.1z"/>
</g>
<g id="XMLID_4_">
</g>
<g id="XMLID_5_">
</g>
<g id="XMLID_6_">
</g>
<g id="XMLID_7_">
</g>
<g id="XMLID_8_">
</g>
<g id="XMLID_9_">
</g>
</svg>
