<?xml version="1.0" encoding="utf-8"?>
<!-- Generator: Adobe Illustrator 19.0.0, SVG Export Plug-In . SVG Version: 6.00 Build 0)  -->
<svg version="1.1" id="Layer_1" xmlns="http://www.w3.org/2000/svg" xmlns:xlink="http://www.w3.org/1999/xlink" x="0px" y="0px"
	 viewBox="0 0 34 34" enable-background="new 0 0 34 34" xml:space="preserve">
<g id="XMLID_1_">
	<path id="XMLID_2_" d="M17,34C7.6,34,0.1,26.4,0.1,17C0.1,7.6,7.6,0,17,0s16.9,7.6,16.9,17C33.9,26.4,26.4,34,17,34z M23.6,7
		c-1.9-1.3-4.2-2-6.6-2c-6.6,0-12,5.4-12,12c0,2.4,0.7,4.7,2,6.6L23.6,7z M27.1,10.5L10.4,27.1c1.9,1.2,4.1,2,6.6,2
		c6.6,0,12-5.4,12-12.1C29,14.6,28.3,12.4,27.1,10.5z"/>
</g>
<g id="XMLID_6_">
</g>
<g id="XMLID_7_">
</g>
<g id="XMLID_8_">
</g>
<g id="XMLID_9_">
</g>
<g id="XMLID_10_">
</g>
<g id="XMLID_11_">
</g>
</svg>
