<?xml version="1.0" encoding="utf-8"?>
<!-- Generator: Adobe Illustrator 19.1.0, SVG Export Plug-In . SVG Version: 6.00 Build 0)  -->
<svg version="1.1" id="Layer_1" xmlns="http://www.w3.org/2000/svg" xmlns:xlink="http://www.w3.org/1999/xlink" x="0px" y="0px"
	 viewBox="0 0 34 34" enable-background="new 0 0 34 34" xml:space="preserve">
<g>
	<path d="M34,27.6c0,3.5-2.9,6.4-6.4,6.4H6.4C2.9,34,0,31.1,0,27.6V6.4C0,2.9,2.9,0,6.4,0h21.2C31.1,0,34,2.9,34,6.4V27.6z M6.4,6.4
		c-0.2,0-0.4,0-0.5,0.2C5.8,6.7,5.7,6.9,5.7,7.1v2.8c0,0.4,0.3,0.7,0.7,0.7c9.2,0.3,16.7,7.8,17,17c0,0.4,0.3,0.7,0.7,0.7h2.8
		c0.2,0,0.4-0.1,0.5-0.2c0.2-0.1,0.2-0.3,0.2-0.5C27.2,16.1,17.9,6.8,6.4,6.4z M6.4,14.9c-0.2,0-0.4,0.1-0.5,0.2
		c-0.1,0.1-0.2,0.3-0.2,0.5v2.8c0,0.4,0.3,0.7,0.7,0.7c4.5,0.3,8.2,4,8.5,8.5c0,0.4,0.3,0.7,0.7,0.7h2.8c0.2,0,0.4-0.1,0.5-0.2
		c0.1-0.1,0.2-0.3,0.2-0.5C18.7,20.7,13.3,15.3,6.4,14.9z M8.5,22.7c-1.6,0-2.8,1.3-2.8,2.8s1.3,2.8,2.8,2.8s2.8-1.3,2.8-2.8
		S10.1,22.7,8.5,22.7z"/>
</g>
<g>
</g>
<g>
</g>
<g>
</g>
<g>
</g>
<g>
</g>
<g>
</g>
</svg>
