<?xml version="1.0" encoding="utf-8"?>
<!-- Generator: Adobe Illustrator 19.1.0, SVG Export Plug-In . SVG Version: 6.00 Build 0)  -->
<svg version="1.1" id="Layer_1" xmlns="http://www.w3.org/2000/svg" xmlns:xlink="http://www.w3.org/1999/xlink" x="0px" y="0px"
	 viewBox="0 0 34 34" enable-background="new 0 0 34 34" xml:space="preserve">
<g>
	<path d="M26.1,9.8L15,33.5c-0.2,0.3-0.5,0.5-0.9,0.5c-0.1,0-0.2,0-0.3,0c-0.4-0.1-0.7-0.6-0.6-1l4-16.5L9,18.5c-0.1,0-0.2,0-0.2,0
		c-0.2,0-0.5-0.1-0.6-0.2c-0.2-0.2-0.3-0.5-0.3-0.8L12,0.7C12.1,0.3,12.4,0,12.9,0h6.7c0.5,0,0.9,0.4,0.9,0.9c0,0.1,0,0.2-0.1,0.4
		l-3.5,9.5l8.1-2c0.1,0,0.2,0,0.2,0c0.3,0,0.5,0.1,0.7,0.3C26.2,9.2,26.2,9.5,26.1,9.8z"/>
</g>
<g>
</g>
<g>
</g>
<g>
</g>
<g>
</g>
<g>
</g>
<g>
</g>
</svg>
