<?xml version="1.0" encoding="utf-8"?>
<!-- Generator: Adobe Illustrator 19.0.0, SVG Export Plug-In . SVG Version: 6.00 Build 0)  -->
<svg version="1.1" id="Layer_1" xmlns="http://www.w3.org/2000/svg" xmlns:xlink="http://www.w3.org/1999/xlink" x="0px" y="0px"
	 viewBox="0 0 34 34" enable-background="new 0 0 34 34" xml:space="preserve">
<g id="XMLID_6_">
	<path id="XMLID_43_" d="M33.9,11.1l-5.6,18.5c-0.5,1.7-2.3,3.1-4.1,3.1H5.3c-2.1,0-4.3-1.7-5.1-3.8c-0.3-0.9-0.3-1.8,0-2.6
		c0-0.4,0.1-0.8,0.1-1.3c0-0.3-0.2-0.6-0.1-0.8c0.1-0.5,0.5-0.8,0.8-1.4c0.6-1,1.3-2.7,1.5-3.7c0.1-0.4-0.1-0.8,0-1.2
		c0.1-0.4,0.5-0.7,0.7-1c0.6-0.9,1.3-2.8,1.4-3.7c0-0.4-0.2-0.9,0-1.2c0.1-0.5,0.6-0.7,0.9-1.1C6,10.1,6.8,8.2,7,7.1
		C7,6.7,6.8,6.4,6.8,6c0.1-0.4,0.6-0.8,0.9-1.3c0.9-1.3,1-4.1,3.6-3.3l0,0.1c0.3-0.1,0.7-0.2,1-0.2h15.5c1,0,1.8,0.4,2.3,1.1
		c0.5,0.7,0.7,1.7,0.4,2.7L25,23.6c-1,3.1-1.5,3.8-4.1,3.8H3.2c-0.3,0-0.6,0.1-0.8,0.3c-0.2,0.2-0.2,0.4,0,0.9
		c0.4,1.2,1.8,1.4,2.9,1.4h18.9c0.8,0,1.6-0.4,1.9-1.2l6.1-20.2c0.1-0.4,0.1-0.8,0.1-1.2c0.5,0.2,0.9,0.5,1.2,0.9
		C34,9.2,34.1,10.2,33.9,11.1z M10.5,14.4h12.4c0.3,0,0.7-0.3,0.9-0.7l0.4-1.3c0.1-0.4-0.1-0.7-0.4-0.7H11.3c-0.3,0-0.7,0.3-0.9,0.7
		l-0.4,1.3C9.9,14.1,10.1,14.4,10.5,14.4z M12.2,9.2h12.4c0.3,0,0.7-0.3,0.9-0.7l0.4-1.3c0.1-0.4-0.1-0.7-0.4-0.7H13
		c-0.3,0-0.7,0.3-0.9,0.7l-0.4,1.3C11.6,8.9,11.8,9.2,12.2,9.2z"/>
</g>
<g id="XMLID_1_">
</g>
<g id="XMLID_15_">
</g>
<g id="XMLID_46_">
</g>
<g id="XMLID_47_">
</g>
<g id="XMLID_48_">
</g>
<g id="XMLID_50_">
</g>
</svg>
