<?xml version="1.0" encoding="utf-8"?>
<!-- Generator: Adobe Illustrator 19.0.0, SVG Export Plug-In . SVG Version: 6.00 Build 0)  -->
<svg version="1.1" id="Layer_1" xmlns="http://www.w3.org/2000/svg" xmlns:xlink="http://www.w3.org/1999/xlink" x="0px" y="0px"
	 viewBox="0 0 34 34" enable-background="new 0 0 34 34" xml:space="preserve">
<g id="XMLID_1_">
	<path id="XMLID_46_" d="M34,11.3v15.9c0,2.5-2,4.5-4.5,4.5H4.5c-2.5,0-4.5-2-4.5-4.5V11.3c0-2.5,2-4.5,4.5-4.5h4l0.9-2.4
		c0.4-1.2,1.8-2.1,3.1-2.1h9.1c1.2,0,2.6,1,3.1,2.1l0.9,2.4h4C32,6.8,34,8.8,34,11.3z M24.9,19.3c0-4.4-3.6-7.9-7.9-7.9
		s-7.9,3.6-7.9,7.9s3.6,7.9,7.9,7.9S24.9,23.6,24.9,19.3z M22.1,19.3c0,2.8-2.3,5.1-5.1,5.1s-5.1-2.3-5.1-5.1s2.3-5.1,5.1-5.1
		S22.1,16.5,22.1,19.3z"/>
</g>
<g id="XMLID_6_">
</g>
<g id="XMLID_15_">
</g>
<g id="XMLID_43_">
</g>
<g id="XMLID_44_">
</g>
<g id="XMLID_45_">
</g>
<g id="XMLID_49_">
</g>
</svg>
