<?xml version="1.0" encoding="utf-8"?>
<!-- Generator: Adobe Illustrator 19.0.0, SVG Export Plug-In . SVG Version: 6.00 Build 0)  -->
<svg version="1.1" id="Layer_1" xmlns="http://www.w3.org/2000/svg" xmlns:xlink="http://www.w3.org/1999/xlink" x="0px" y="0px"
	 viewBox="0 0 34 34" enable-background="new 0 0 34 34" xml:space="preserve">
<g id="XMLID_43_">
	<path id="XMLID_44_" d="M33.7,12.5l-16.5,5.2c-0.1,0-0.1,0-0.1,0s-0.1,0-0.1,0l-9.6-3c-0.8,0.7-1.4,2.3-1.5,4.3
		c0.6,0.3,0.9,0.9,0.9,1.6c0,0.7-0.3,1.2-0.9,1.6l0.9,6.4c0,0.1,0,0.3-0.1,0.4C6.4,29,6.3,29,6.1,29H3.3C3.2,29,3,29,3,28.9
		c-0.1-0.1-0.1-0.2-0.1-0.4l0.9-6.4c-0.5-0.3-0.9-0.9-0.9-1.6c0-0.7,0.4-1.3,1-1.6c0.1-1.7,0.5-3.6,1.4-4.9l-4.9-1.5
		C0.1,12.4,0,12.3,0,12c0-0.2,0.1-0.4,0.3-0.5l16.5-5.2c0.1,0,0.1,0,0.1,0s0.1,0,0.1,0l16.5,5.2c0.2,0.1,0.3,0.3,0.3,0.5
		C34,12.3,33.9,12.4,33.7,12.5z M26.4,21.5c0.1,2.1-4.2,3.8-9.4,3.8s-9.6-1.7-9.4-3.8l0.3-4.7l8.5,2.7c0.2,0.1,0.5,0.1,0.7,0.1
		s0.5,0,0.7-0.1l8.5-2.7L26.4,21.5z"/>
</g>
<g id="XMLID_1_">
</g>
<g id="XMLID_6_">
</g>
<g id="XMLID_15_">
</g>
<g id="XMLID_47_">
</g>
<g id="XMLID_48_">
</g>
<g id="XMLID_49_">
</g>
</svg>
