<?xml version="1.0" encoding="utf-8"?>
<!-- Generator: Adobe Illustrator 19.1.0, SVG Export Plug-In . SVG Version: 6.00 Build 0)  -->
<svg version="1.1" id="Layer_1" xmlns="http://www.w3.org/2000/svg" xmlns:xlink="http://www.w3.org/1999/xlink" x="0px" y="0px"
	 viewBox="0 0 34 34" enable-background="new 0 0 34 34" xml:space="preserve">
<path d="M17,0C7.6,0,0,7.6,0,17s7.6,17,17,17s17-7.6,17-17S26.4,0,17,0z M24.1,17.9l-8.5,8.5c-0.2,0.2-0.5,0.4-0.9,0.4
	c-0.7,0-1.2-0.6-1.2-1.2V8.5c0-0.7,0.6-1.2,1.2-1.2c0.3,0,0.6,0.1,0.9,0.4l8.5,8.5c0.2,0.2,0.4,0.5,0.4,0.9
	C24.5,17.3,24.4,17.6,24.1,17.9z"/>
<g>
</g>
<g>
</g>
<g>
</g>
<g>
</g>
<g>
</g>
<g>
</g>
</svg>
