<?xml version="1.0" encoding="utf-8"?>
<!-- Generator: Adobe Illustrator 19.0.0, SVG Export Plug-In . SVG Version: 6.00 Build 0)  -->
<svg version="1.1" id="Layer_1" xmlns="http://www.w3.org/2000/svg" xmlns:xlink="http://www.w3.org/1999/xlink" x="0px" y="0px"
	 viewBox="0 0 34 34" enable-background="new 0 0 34 34" xml:space="preserve">
<g id="XMLID_1_">
	<path id="XMLID_2_" d="M34,29.8c0,1-0.8,1.8-1.8,1.8h-6.1c-1,0-1.8-0.8-1.8-1.8v-6.1c0-1,0.8-1.8,1.8-1.8h1.8v-3.6h-9.7v3.6H20
		c1,0,1.8,0.8,1.8,1.8v6.1c0,1-0.8,1.8-1.8,1.8H14c-1,0-1.8-0.8-1.8-1.8v-6.1c0-1,0.8-1.8,1.8-1.8h1.8v-3.6H6.1v3.6h1.8
		c1,0,1.8,0.8,1.8,1.8v6.1c0,1-0.8,1.8-1.8,1.8H1.8c-1,0-1.8-0.8-1.8-1.8v-6.1c0-1,0.8-1.8,1.8-1.8h1.8v-3.6c0-1.3,1.1-2.4,2.4-2.4
		h9.7v-3.6H14c-1,0-1.8-0.8-1.8-1.8V4.2c0-1,0.8-1.8,1.8-1.8H20c1,0,1.8,0.8,1.8,1.8v6.1c0,1-0.8,1.8-1.8,1.8h-1.8v3.6h9.7
		c1.3,0,2.4,1.1,2.4,2.4v3.6h1.8c1,0,1.8,0.8,1.8,1.8V29.8z"/>
</g>
<g id="XMLID_4_">
</g>
<g id="XMLID_5_">
</g>
<g id="XMLID_6_">
</g>
<g id="XMLID_7_">
</g>
<g id="XMLID_8_">
</g>
<g id="XMLID_9_">
</g>
</svg>
