<?xml version="1.0" encoding="utf-8"?>
<!-- Generator: Adobe Illustrator 19.0.0, SVG Export Plug-In . SVG Version: 6.00 Build 0)  -->
<svg version="1.1" id="Layer_1" xmlns="http://www.w3.org/2000/svg" xmlns:xlink="http://www.w3.org/1999/xlink" x="0px" y="0px"
	 viewBox="0 0 34 34" enable-background="new 0 0 34 34" xml:space="preserve">
<g id="XMLID_1_">
	<path id="XMLID_2_" d="M33.4,10.6L17.5,26.4l-3,3C14.1,29.8,13.6,30,13,30c-0.5,0-1.1-0.2-1.5-0.6l-3-3l-7.9-7.9
		C0.2,18.1,0,17.5,0,17s0.2-1.1,0.6-1.5l3-3c0.4-0.4,0.9-0.6,1.5-0.6c0.6,0,1.1,0.2,1.5,0.6L13,19L27.4,4.6C27.8,4.2,28.4,4,28.9,4
		c0.5,0,1.1,0.2,1.5,0.6l3,3C33.8,8,34,8.5,34,9.1S33.8,10.2,33.4,10.6z"/>
</g>
<g id="XMLID_4_">
</g>
<g id="XMLID_5_">
</g>
<g id="XMLID_6_">
</g>
<g id="XMLID_7_">
</g>
<g id="XMLID_8_">
</g>
<g id="XMLID_9_">
</g>
</svg>
