<?xml version="1.0" encoding="utf-8"?>
<!-- Generator: Adobe Illustrator 19.0.0, SVG Export Plug-In . SVG Version: 6.00 Build 0)  -->
<svg version="1.1" id="Layer_1" xmlns="http://www.w3.org/2000/svg" xmlns:xlink="http://www.w3.org/1999/xlink" x="0px" y="0px"
	 viewBox="0 0 34 34" enable-background="new 0 0 34 34" xml:space="preserve">
<g id="XMLID_1_">
	<path id="XMLID_2_" d="M17,34C7.6,34,0,26.4,0,17S7.6,0,17,0s17,7.6,17,17S26.4,34,17,34z M22.4,25.8c0.6-0.6,0.6-1.4,0-2L15.6,17
		l6.8-6.8c0.6-0.6,0.6-1.4,0-2L20.1,6c-0.6-0.6-1.4-0.6-2,0L8.1,16c-0.6,0.6-0.6,1.4,0,2l10,10.1c0.6,0.6,1.4,0.6,2,0L22.4,25.8z"/>
</g>
<g id="XMLID_5_">
</g>
<g id="XMLID_6_">
</g>
<g id="XMLID_7_">
</g>
<g id="XMLID_8_">
</g>
<g id="XMLID_9_">
</g>
<g id="XMLID_10_">
</g>
</svg>
