<?xml version="1.0" encoding="utf-8"?>
<!-- Generator: Adobe Illustrator 19.0.0, SVG Export Plug-In . SVG Version: 6.00 Build 0)  -->
<svg version="1.1" id="Layer_1" xmlns="http://www.w3.org/2000/svg" xmlns:xlink="http://www.w3.org/1999/xlink" x="0px" y="0px"
	 viewBox="0 0 34 34" enable-background="new 0 0 34 34" xml:space="preserve">
<g id="XMLID_6_">
	<path id="XMLID_7_" d="M17,34C7.6,34,0,26.4,0,17S7.6,0,17,0s17,7.6,17,17S26.4,34,17,34z M25.9,18c0.6-0.6,0.6-1.4,0-2L15.9,6
		c-0.6-0.6-1.4-0.6-2,0l-2.3,2.3c-0.6,0.6-0.6,1.4,0,2l6.8,6.8l-6.8,6.8c-0.6,0.6-0.6,1.4,0,2l2.3,2.3c0.6,0.6,1.4,0.6,2,0L25.9,18z
		"/>
</g>
<g id="XMLID_1_">
</g>
<g id="XMLID_2_">
</g>
<g id="XMLID_3_">
</g>
<g id="XMLID_4_">
</g>
<g id="XMLID_5_">
</g>
<g id="XMLID_10_">
</g>
</svg>
