<?xml version="1.0" encoding="utf-8"?>
<!-- Generator: Adobe Illustrator 19.0.0, SVG Export Plug-In . SVG Version: 6.00 Build 0)  -->
<svg version="1.1" id="Layer_1" xmlns="http://www.w3.org/2000/svg" xmlns:xlink="http://www.w3.org/1999/xlink" x="0px" y="0px"
	 viewBox="0 0 34 34" enable-background="new 0 0 34 34" xml:space="preserve">
<g id="XMLID_43_">
	<path id="XMLID_44_" d="M33.2,29.3l-3.9,3.9c-0.5,0.5-1.2,0.8-1.9,0.8c-0.7,0-1.4-0.3-1.9-0.8L17,24.8l-8.4,8.4
		C8.1,33.7,7.4,34,6.6,34c-0.7,0-1.4-0.3-1.9-0.8l-3.9-3.9C0.3,28.8,0,28.1,0,27.4c0-0.7,0.3-1.4,0.8-1.9L9.2,17L0.8,8.6
		C0.3,8.1,0,7.4,0,6.6s0.3-1.4,0.8-1.9l3.9-3.9C5.2,0.3,5.9,0,6.6,0c0.7,0,1.4,0.3,1.9,0.8L17,9.2l8.4-8.4C25.9,0.3,26.6,0,27.4,0
		c0.7,0,1.4,0.3,1.9,0.8l3.9,3.9C33.7,5.2,34,5.9,34,6.6s-0.3,1.4-0.8,1.9L24.8,17l8.4,8.4c0.5,0.5,0.8,1.2,0.8,1.9
		C34,28.1,33.7,28.8,33.2,29.3z"/>
</g>
<g id="XMLID_1_">
</g>
<g id="XMLID_6_">
</g>
<g id="XMLID_15_">
</g>
<g id="XMLID_46_">
</g>
<g id="XMLID_47_">
</g>
<g id="XMLID_48_">
</g>
</svg>
