<?xml version="1.0" encoding="utf-8"?>
<!-- Generator: Adobe Illustrator 19.0.0, SVG Export Plug-In . SVG Version: 6.00 Build 0)  -->
<svg version="1.1" id="Layer_1" xmlns="http://www.w3.org/2000/svg" xmlns:xlink="http://www.w3.org/1999/xlink" x="0px" y="0px"
	 viewBox="0 0 34 34" enable-background="new 0 0 34 34" xml:space="preserve">
<g id="XMLID_44_">
	<path id="XMLID_45_" d="M34,19.5c0,0.3-0.3,0.7-0.6,0.8l-4.1,0.6c-0.2,0.7-0.5,1.4-0.9,2C29.2,24,30,25,30.8,26
		c0.1,0.2,0.2,0.4,0.2,0.6c0,0.2-0.1,0.4-0.2,0.5c-0.5,0.7-3.5,4-4.3,4c-0.2,0-0.4-0.1-0.6-0.2l-3.1-2.4c-0.6,0.3-1.3,0.6-2,0.8
		c-0.2,1.4-0.3,2.8-0.6,4.1c-0.1,0.4-0.4,0.6-0.8,0.6h-4.9c-0.4,0-0.8-0.3-0.8-0.7l-0.6-4.1c-0.7-0.2-1.4-0.5-2-0.8L8,30.8
		C7.9,30.9,7.7,31,7.5,31c-0.2,0-0.4-0.1-0.6-0.2c-1.2-1.1-2.7-2.4-3.7-3.7c-0.1-0.2-0.2-0.3-0.2-0.5c0-0.2,0.1-0.4,0.2-0.5
		c0.8-1,1.6-2,2.3-3c-0.4-0.7-0.7-1.4-0.9-2.2l-4-0.6C0.3,20.1,0,19.8,0,19.4v-4.9c0-0.3,0.3-0.7,0.6-0.8l4.1-0.6
		c0.2-0.7,0.5-1.4,0.9-2C4.8,10,4,9,3.2,8C3.1,7.8,3,7.7,3,7.5C3,7.3,3.1,7.1,3.2,7c0.5-0.7,3.5-4,4.3-4C7.7,3,7.9,3.1,8,3.2
		l3.1,2.4c0.6-0.3,1.3-0.6,2-0.8c0.2-1.4,0.3-2.8,0.6-4.1C13.8,0.3,14.1,0,14.5,0h4.9c0.4,0,0.8,0.3,0.8,0.7l0.6,4.1
		c0.7,0.2,1.4,0.5,2,0.8L26,3.2C26.1,3.1,26.3,3,26.5,3c0.2,0,0.4,0.1,0.6,0.2c1.2,1.1,2.7,2.5,3.7,3.8c0.1,0.1,0.2,0.3,0.2,0.5
		c0,0.2-0.1,0.4-0.2,0.5c-0.8,1-1.6,2-2.3,3c0.4,0.7,0.7,1.4,0.9,2.2l4,0.6c0.4,0.1,0.6,0.4,0.6,0.8V19.5z M17,11.3
		c-3.1,0-5.7,2.5-5.7,5.7s2.5,5.7,5.7,5.7s5.7-2.5,5.7-5.7S20.1,11.3,17,11.3z"/>
</g>
<g id="XMLID_1_">
</g>
<g id="XMLID_6_">
</g>
<g id="XMLID_15_">
</g>
<g id="XMLID_43_">
</g>
<g id="XMLID_48_">
</g>
<g id="XMLID_49_">
</g>
</svg>
