<?xml version="1.0" encoding="utf-8"?>
<!-- Generator: Adobe Illustrator 19.0.0, SVG Export Plug-In . SVG Version: 6.00 Build 0)  -->
<svg version="1.1" id="Layer_1" xmlns="http://www.w3.org/2000/svg" xmlns:xlink="http://www.w3.org/1999/xlink" x="0px" y="0px"
	 viewBox="0 0 34 34" enable-background="new 0 0 34 34" xml:space="preserve">
<g id="XMLID_1_">
	<path id="XMLID_2_" d="M26.7,13.4c0,5.4-6,9.7-13.4,9.7c-1.2,0-2.3-0.1-3.3-0.3c-1.6,1.1-3.4,1.9-5.3,2.4c-0.5,0.1-1.1,0.2-1.6,0.3
		c0,0,0,0-0.1,0c-0.3,0-0.6-0.2-0.6-0.6c-0.1-0.4,0.2-0.6,0.4-0.8C3.6,23.3,4.4,22.5,5,21c-3.1-1.8-5-4.5-5-7.6C0,8,6,3.6,13.4,3.6
		S26.7,8,26.7,13.4z M2.4,13.4c0,2.1,1.4,4.1,3.8,5.5l1.8,1.1l-0.7,1.6c0.4-0.2,0.8-0.5,1.2-0.7l0.8-0.6l1,0.2
		c0.9,0.2,1.9,0.3,2.9,0.3c5.9,0,10.9-3.3,10.9-7.3s-5-7.3-10.9-7.3S2.4,9.4,2.4,13.4z M31.2,29c0.2,0.2,0.5,0.5,0.4,0.8
		c-0.1,0.3-0.4,0.6-0.7,0.6c-0.6-0.1-1.1-0.2-1.6-0.3c-1.9-0.5-3.7-1.3-5.3-2.4c-1.1,0.2-2.2,0.3-3.3,0.3c-3.4,0-6.6-0.9-9-2.5
		c0.6,0,1.1,0.1,1.7,0.1c4.1,0,7.9-1.2,10.9-3.3c3.2-2.3,4.9-5.4,4.9-8.8c0-1-0.2-2-0.4-2.9c3.2,1.8,5.3,4.6,5.3,7.7
		c0,3.1-2,5.8-5,7.6C29.6,27.4,30.4,28.1,31.2,29z"/>
</g>
<g id="XMLID_6_">
</g>
<g id="XMLID_7_">
</g>
<g id="XMLID_8_">
</g>
<g id="XMLID_9_">
</g>
<g id="XMLID_10_">
</g>
<g id="XMLID_11_">
</g>
</svg>
