<?xml version="1.0" encoding="utf-8"?>
<!-- Generator: Adobe Illustrator 19.0.0, SVG Export Plug-In . SVG Version: 6.00 Build 0)  -->
<svg version="1.1" id="Layer_1" xmlns="http://www.w3.org/2000/svg" xmlns:xlink="http://www.w3.org/1999/xlink" x="0px" y="0px"
	 viewBox="0 0 34 34" enable-background="new 0 0 34 34" xml:space="preserve">
<g id="XMLID_1_">
	<path id="XMLID_2_" d="M17,26.7c-0.9,0-1.9-0.1-2.8-0.2c-2.5,2.2-5.4,3.8-8.7,4.6c-0.7,0.2-1.4,0.3-2.2,0.4c-0.4,0-0.8-0.3-0.9-0.7
		c0,0,0,0,0,0c-0.1-0.5,0.2-0.8,0.5-1.1c1.2-1.3,2.6-2.5,3.5-5.7C2.5,21.9,0,18.4,0,14.6C0,7.9,7.6,2.4,17,2.4s17,5.4,17,12.1
		S26.4,26.7,17,26.7z"/>
</g>
<g id="XMLID_4_">
</g>
<g id="XMLID_5_">
</g>
<g id="XMLID_6_">
</g>
<g id="XMLID_7_">
</g>
<g id="XMLID_8_">
</g>
<g id="XMLID_9_">
</g>
</svg>
