<?xml version="1.0" encoding="utf-8"?>
<!-- Generator: Adobe Illustrator 19.2.1, SVG Export Plug-In . SVG Version: 6.00 Build 0)  -->
<svg version="1.1" id="Layer_1" xmlns="http://www.w3.org/2000/svg" xmlns:xlink="http://www.w3.org/1999/xlink" x="0px" y="0px"
	 viewBox="0 0 34 34" enable-background="new 0 0 34 34" xml:space="preserve">
<path d="M8.2,22c0.5,0.1,1.6,0.4,2.5,1.3c0.9,0.9,1.2,2,1.3,2.5l-2.2,2.2c-0.3-0.7-0.8-1.5-1.5-2.3c-0.8-0.8-1.6-1.2-2.3-1.5L8.2,22
	z M22.6,7.6c0.5,0.1,1.6,0.4,2.5,1.3c0.9,0.9,1.2,2,1.3,2.5l-1.3,1.3c-1.2,0-3.4,1.3-5.4,3.3c-2,2-3.3,4.2-3.3,5.4l-1.3,1.3
	c-0.3-0.7-0.8-1.5-1.5-2.3c-0.8-0.8-1.6-1.2-2.3-1.5L22.6,7.6z M28.1,2.1c0.5,0.1,1.6,0.4,2.5,1.3c0.9,0.9,1.2,2,1.3,2.5l-2.5,2.5
	C29.2,7.6,28.7,6.8,28,6c-0.8-0.8-1.6-1.2-2.3-1.5L28.1,2.1z M4.2,25.6L0,33.1l0.4,0.4L0.9,34l7.6-4.2l0.8,0.8L34,5.8
	c0-0.2-0.1-0.3-0.1-0.6c-0.2-0.9-0.7-2.1-1.8-3.3c-1.2-1.2-2.4-1.6-3.3-1.8c-0.2,0-0.4-0.1-0.6-0.1L3.5,24.8L4.2,25.6z"/>
<g>
</g>
<g>
</g>
<g>
</g>
<g>
</g>
<g>
</g>
<g>
</g>
</svg>
