<?xml version="1.0" encoding="utf-8"?>
<!-- Generator: Adobe Illustrator 19.0.0, SVG Export Plug-In . SVG Version: 6.00 Build 0)  -->
<svg version="1.1" id="Layer_1" xmlns="http://www.w3.org/2000/svg" xmlns:xlink="http://www.w3.org/1999/xlink" x="0px" y="0px"
	 viewBox="0 0 34 34" enable-background="new 0 0 34 34" xml:space="preserve">
<g id="XMLID_1_">
	<path id="XMLID_6_" d="M34,6.2v21.5c0,1.6-1.3,2.8-2.8,2.8H2.8c-1.6,0-2.8-1.3-2.8-2.8V6.2c0-1.6,1.3-2.8,2.8-2.8h28.3
		C32.7,3.4,34,4.7,34,6.2z M2.3,6.2v4h29.5v-4c0-0.3-0.3-0.6-0.6-0.6H2.8C2.5,5.7,2.3,5.9,2.3,6.2z M31.7,27.8V17H2.3v10.8
		c0,0.3,0.3,0.6,0.6,0.6h28.3C31.5,28.3,31.7,28.1,31.7,27.8z M4.5,23.8h4.5v2.3H4.5V23.8z M11.3,23.8h6.8v2.3h-6.8V23.8z"/>
</g>
<g id="XMLID_44_">
</g>
<g id="XMLID_45_">
</g>
<g id="XMLID_46_">
</g>
<g id="XMLID_47_">
</g>
<g id="XMLID_51_">
</g>
<g id="XMLID_52_">
</g>
</svg>
