<?xml version="1.0" encoding="utf-8"?>
<!-- Generator: Adobe Illustrator 19.0.1, SVG Export Plug-In . SVG Version: 6.00 Build 0)  -->
<svg version="1.1" id="Layer_1" xmlns="http://www.w3.org/2000/svg" xmlns:xlink="http://www.w3.org/1999/xlink" x="0px" y="0px"
	 viewBox="0 0 34 34" enable-background="new 0 0 34 34" xml:space="preserve">
<g id="XMLID_1_">
	<path id="XMLID_2_" d="M15.8,13.4c0,1.5-1,2.9-2.4,3.4v14.8c0,1.3-1.1,2.4-2.4,2.4H8.5c-1.3,0-2.4-1.1-2.4-2.4V16.8
		c-1.4-0.5-2.4-1.9-2.4-3.4V1.2C3.6,0.6,4.2,0,4.9,0s1.2,0.6,1.2,1.2v7.9c0,0.7,0.6,1.2,1.2,1.2s1.2-0.6,1.2-1.2V1.2
		C8.5,0.6,9.1,0,9.7,0c0.7,0,1.2,0.6,1.2,1.2v7.9c0,0.7,0.6,1.2,1.2,1.2c0.7,0,1.2-0.6,1.2-1.2V1.2c0-0.7,0.6-1.2,1.2-1.2
		c0.7,0,1.2,0.6,1.2,1.2V13.4z M30.4,31.6c0,1.3-1.1,2.4-2.4,2.4h-2.4c-1.3,0-2.4-1.1-2.4-2.4v-9.7h-4.2c-0.3,0-0.6-0.3-0.6-0.6V6.1
		c0-3.3,2.7-6.1,6.1-6.1h4.9c0.7,0,1.2,0.6,1.2,1.2V31.6z"/>
</g>
<g id="XMLID_5_">
</g>
<g id="XMLID_6_">
</g>
<g id="XMLID_7_">
</g>
<g id="XMLID_8_">
</g>
<g id="XMLID_9_">
</g>
<g id="XMLID_10_">
</g>
</svg>
