<?xml version="1.0" encoding="utf-8"?>
<!-- Generator: Adobe Illustrator 19.0.0, SVG Export Plug-In . SVG Version: 6.00 Build 0)  -->
<svg version="1.1" id="Layer_1" xmlns="http://www.w3.org/2000/svg" xmlns:xlink="http://www.w3.org/1999/xlink" x="0px" y="0px"
	 viewBox="0 0 34 34" enable-background="new 0 0 34 34" xml:space="preserve">
<g id="XMLID_1_">
	<path id="XMLID_5_" fill-rule="evenodd" clip-rule="evenodd" d="M14.4,27.7c-0.1,0-0.2,0-0.3,0c-2.5,0-4.9,0-7.4,0
		c-0.2,0-0.4,0-0.6,0c-0.3,0-0.5-0.3-0.5-0.5c0-0.3,0.1-0.6,0.3-0.8c0.1-0.1,0.3-0.1,0.4-0.1c1.3,0,2.6,0,4,0v0c1.3,0,2.7,0,4,0
		c0.3,0,0.5,0.1,0.6,0.3C15.2,27.1,14.9,27.6,14.4,27.7z M6.3,20.6c0.4,0,0.8,0,1.2,0c0.5,0,1,0,1.5,0c0.3,0,0.5,0.1,0.7,0.4
		C9.8,21.4,9.5,22,9,22c-0.3,0-0.6,0-0.9,0H7.6v0c-0.4,0-0.9,0-1.3,0c-0.3,0-0.5-0.1-0.6-0.3C5.4,21.2,5.7,20.6,6.3,20.6z
		 M14.2,23.5c0.2,0,0.4,0,0.5,0.1c0.3,0.2,0.4,0.5,0.3,0.8c-0.1,0.3-0.3,0.5-0.6,0.5c-1.3,0-2.7,0-4,0v0c-1.3,0-2.6,0-4,0
		c-0.1,0-0.3,0-0.4-0.1c-0.3-0.2-0.4-0.4-0.4-0.8c0-0.2,0.3-0.5,0.5-0.5c0.1,0,0.2,0,0.2,0C9,23.5,11.6,23.5,14.2,23.5z M34,11.1
		h-2.5c0,0-0.1,0-0.1,0c-1.7,0-3.5,0-5.2,0c-1.1,0-2.1,0-3.2,0v0h-2.7c0,1.4,0,2.8,0,4.2c0,1,0,2,0,3.1c0,0.1,0,0.2,0,0.2h-6.6
		c0-0.1,0-0.1,0-0.2c0-2.4,0-4.9,0-7.3H6.3v0h0c-1.2,0-2.5,0-3.7,0c0,0-0.1,0-0.1,0H0c0,2.2,0,4.4,0,6.7c0,3.9,0,7.8,0,11.7
		c0,0.8,0,1.7,0,2.5c0,0.4,0.2,0.7,0.5,1c0.2,0.2,0.5,0.2,0.8,0.2c5.2,0,10.5,0,15.7,0c1.3,0,2.6,0,3.8,0c3.4,0,6.7,0,10.1,0
		c0.6,0,1.3,0,1.9,0c0.4,0,0.7-0.2,1-0.5c0.2-0.2,0.2-0.5,0.2-0.7c0-0.6,0-1.3,0-1.9c0-5.9,0-11.7,0-17.6L34,11.1z"/>
	<path id="XMLID_19_" fill-rule="evenodd" clip-rule="evenodd" d="M3.5,8.8c0.9,0,1.9,0,2.8,0v0h7.5c0-0.1,0-0.2,0.1-0.4l1-5.3
		c0,0,0,0,0,0h0l0.5-2.4c-0.9,0-1.9,0-2.8,0c-2.2,0-4.4,0-6.6,0c-0.4,0-0.8,0.2-1,0.6C4.3,2.4,3.6,3.5,3,4.6C2.1,6,1.3,7.4,0.5,8.8
		L3.5,8.8C3.5,8.8,3.5,8.8,3.5,8.8"/>
	<path id="XMLID_14_" fill-rule="evenodd" clip-rule="evenodd" d="M20.2,7.8l0,0.2h0c0,0.1,0,0.2,0.1,0.3c0,0.2,0.1,0.3,0.1,0.5H23
		v0h1.8c1,0,2,0,2.9,0c0.6,0,1.2,0,1.8,0h3.9c0,0,0,0.1,0,0.1c-0.8-1.3-1.6-2.6-2.3-3.9c-0.7-1.2-1.4-2.3-2.1-3.5
		C28.9,1,28.5,0.8,28,0.8c-0.6,0-1.3,0-1.9,0h-6.5c-0.3,0-0.6,0-0.8,0L20.2,7.8C20.2,7.7,20.2,7.7,20.2,7.8"/>
</g>
<g id="XMLID_2_">
</g>
<g id="XMLID_3_">
</g>
<g id="XMLID_4_">
</g>
<g id="XMLID_10_">
</g>
<g id="XMLID_11_">
</g>
<g id="XMLID_12_">
</g>
</svg>
