<?xml version="1.0" encoding="utf-8"?>
<!-- Generator: Adobe Illustrator 19.1.0, SVG Export Plug-In . SVG Version: 6.00 Build 0)  -->
<svg version="1.1" id="Layer_1" xmlns="http://www.w3.org/2000/svg" xmlns:xlink="http://www.w3.org/1999/xlink" x="0px" y="0px"
	 viewBox="0 0 34 34" enable-background="new 0 0 34 34" xml:space="preserve">
<path d="M17,0C7.6,0,0,7.6,0,17s7.6,17,17,17s17-7.6,17-17S26.4,0,17,0z M16.2,23.6l-1.7,1.7c-0.4,0.4-1.1,0.4-1.5,0l-7.5-7.5
	c-0.4-0.4-0.4-1.1,0-1.5L13,8.7c0.4-0.4,1.1-0.4,1.5,0l1.7,1.7c0.4,0.4,0.4,1.1,0,1.5L11.1,17l5.1,5.1
	C16.6,22.5,16.6,23.2,16.2,23.6z M27,22.1c0.4,0.4,0.4,1.1,0,1.5l-1.7,1.7c-0.4,0.4-1.1,0.4-1.5,0l-7.5-7.5c-0.4-0.4-0.4-1.1,0-1.5
	l7.5-7.5c0.4-0.4,1.1-0.4,1.5,0l1.7,1.7c0.4,0.4,0.4,1.1,0,1.5L22,17L27,22.1z"/>
<g>
</g>
<g>
</g>
<g>
</g>
<g>
</g>
<g>
</g>
<g>
</g>
</svg>
