<?xml version="1.0" encoding="utf-8"?>
<!-- Generator: Adobe Illustrator 19.0.0, SVG Export Plug-In . SVG Version: 6.00 Build 0)  -->
<svg version="1.1" id="Layer_1" xmlns="http://www.w3.org/2000/svg" xmlns:xlink="http://www.w3.org/1999/xlink" x="0px" y="0px"
	 viewBox="0 0 34 34" enable-background="new 0 0 34 34" xml:space="preserve">
<g id="XMLID_1_">
	<path id="XMLID_2_" d="M28,15.3L9.3,34H0v-9.3L18.7,6L28,15.3z M10.2,29.1l-5.3-5.3l-2,2v2.4h2.9v2.9h2.4L10.2,29.1z M19.4,9.8
		c-0.1,0-0.3,0-0.4,0.2L6.8,22.1c-0.1,0.1-0.2,0.2-0.2,0.4c0,0.3,0.2,0.5,0.5,0.5c0.1,0,0.3,0,0.4-0.2l12.2-12.2
		c0.1-0.1,0.2-0.2,0.2-0.4C19.9,10,19.7,9.8,19.4,9.8z M33.2,10.2l-3.7,3.7l-9.3-9.3l3.7-3.7c0.5-0.5,1.3-0.9,2-0.9
		c0.8,0,1.5,0.3,2,0.9l5.3,5.3c0.5,0.5,0.8,1.3,0.8,2S33.7,9.7,33.2,10.2z"/>
</g>
<g id="XMLID_7_">
</g>
<g id="XMLID_8_">
</g>
<g id="XMLID_9_">
</g>
<g id="XMLID_10_">
</g>
<g id="XMLID_11_">
</g>
<g id="XMLID_12_">
</g>
</svg>
