<?xml version="1.0" encoding="utf-8"?>
<!-- Generator: Adobe Illustrator 19.0.1, SVG Export Plug-In . SVG Version: 6.00 Build 0)  -->
<svg version="1.1" id="Layer_1" xmlns="http://www.w3.org/2000/svg" xmlns:xlink="http://www.w3.org/1999/xlink" x="0px" y="0px"
	 viewBox="0 0 34 34" enable-background="new 0 0 34 34" xml:space="preserve">
<g id="XMLID_1_">
	<path id="XMLID_2_" d="M34,6.4v21.2c0,3.5-2.9,6.4-6.4,6.4H6.4C2.9,34,0,31.1,0,27.6V6.4C0,2.9,2.9,0,6.4,0h21.2
		C31.1,0,34,2.9,34,6.4z M26.2,8.5H7.8c-1.2,0-2.1,1-2.1,2.1c0,1.2,1.2,2.5,2.2,3.1c1.9,1.3,4,2.5,5.9,3.8c0.8,0.6,2.2,1.6,3.3,1.6
		s2.4-1,3.3-1.6c2-1.3,3.9-2.5,5.9-3.9c0.9-0.6,2.2-1.9,2.2-3C28.3,9.5,27.4,8.5,26.2,8.5z M28.3,13.7c-0.4,0.5-0.9,0.9-1.4,1.2
		c-2.1,1.4-4.2,2.7-6.3,4.1c-1,0.7-2.3,1.5-3.6,1.5s-2.6-0.8-3.6-1.5c-2.1-1.4-4.2-2.7-6.3-4.1c-0.5-0.3-0.9-0.8-1.4-1.2v9.7
		c0,1.2,1,2.1,2.1,2.1h18.4c1.2,0,2.1-1,2.1-2.1V13.7z"/>
</g>
<g id="XMLID_6_">
</g>
<g id="XMLID_7_">
</g>
<g id="XMLID_8_">
</g>
<g id="XMLID_9_">
</g>
<g id="XMLID_10_">
</g>
<g id="XMLID_11_">
</g>
</svg>
