<?xml version="1.0" encoding="utf-8"?>
<!-- Generator: Adobe Illustrator 19.0.0, SVG Export Plug-In . SVG Version: 6.00 Build 0)  -->
<svg version="1.1" id="Layer_1" xmlns="http://www.w3.org/2000/svg" xmlns:xlink="http://www.w3.org/1999/xlink" x="0px" y="0px"
	 viewBox="0 0 34 34" enable-background="new 0 0 34 34" xml:space="preserve">
<g id="XMLID_44_">
	<path id="XMLID_45_" d="M30.8,11.9c-3,2-5.9,4.1-8.9,6.2c-1.2,0.9-3.3,2.6-4.9,2.6h0h0c-1.5,0-3.6-1.7-4.9-2.6
		c-2.9-2.1-5.9-4.1-8.9-6.2C1.9,11,0,8.8,0,7.1c0-1.9,1-3.5,3-3.5H31c1.7,0,3,1.4,3,3C34,8.8,32.4,10.7,30.8,11.9z M34,27.3
		c0,1.7-1.4,3-3,3H3c-1.7,0-3-1.4-3-3V12.3c0.6,0.6,1.2,1.2,1.9,1.7c3.1,2.1,6.3,4.3,9.4,6.5c1.6,1.2,3.6,2.6,5.6,2.6h0h0
		c2.1,0,4-1.4,5.6-2.6c3.1-2.2,6.3-4.4,9.4-6.5c0.7-0.5,1.3-1,1.9-1.7V27.3z"/>
</g>
<g id="XMLID_1_">
</g>
<g id="XMLID_6_">
</g>
<g id="XMLID_15_">
</g>
<g id="XMLID_43_">
</g>
<g id="XMLID_48_">
</g>
<g id="XMLID_49_">
</g>
</svg>
