<?xml version="1.0" encoding="utf-8"?>
<!-- Generator: Adobe Illustrator 19.1.0, SVG Export Plug-In . SVG Version: 6.00 Build 0)  -->
<svg version="1.1" id="Layer_1" xmlns="http://www.w3.org/2000/svg" xmlns:xlink="http://www.w3.org/1999/xlink" x="0px" y="0px"
	 viewBox="0 0 34 34" enable-background="new 0 0 34 34" xml:space="preserve">
<g>
	<path d="M33.8,11.4l-6.1,6.1c-0.1,0.1-0.3,0.2-0.4,0.2c-0.3,0-0.6-0.3-0.6-0.6v-3.6H0.6c-0.3,0-0.6-0.3-0.6-0.6V9.1
		c0-0.3,0.3-0.6,0.6-0.6h26.1V4.9c0-0.3,0.3-0.6,0.6-0.6c0.2,0,0.3,0.1,0.5,0.2l6.1,6.1c0.1,0.1,0.2,0.3,0.2,0.4
		C34,11.1,33.9,11.3,33.8,11.4z M34,24.9c0,0.3-0.3,0.6-0.6,0.6H7.3v3.6c0,0.3-0.3,0.6-0.6,0.6c-0.2,0-0.3-0.1-0.5-0.2l-6.1-6.1
		C0.1,23.4,0,23.2,0,23.1c0-0.2,0.1-0.3,0.2-0.4l6.1-6.1c0.1-0.1,0.3-0.2,0.4-0.2c0.3,0,0.6,0.3,0.6,0.6v3.6h26.1
		c0.3,0,0.6,0.3,0.6,0.6V24.9z"/>
</g>
<g>
</g>
<g>
</g>
<g>
</g>
<g>
</g>
<g>
</g>
<g>
</g>
</svg>
