<?xml version="1.0" encoding="utf-8"?>
<!-- Generator: Adobe Illustrator 19.0.0, SVG Export Plug-In . SVG Version: 6.00 Build 0)  -->
<svg version="1.1" id="Layer_1" xmlns="http://www.w3.org/2000/svg" xmlns:xlink="http://www.w3.org/1999/xlink" x="0px" y="0px"
	 viewBox="0 0 34 34" enable-background="new 0 0 34 34" xml:space="preserve">
<g id="XMLID_1_">
	<path id="XMLID_6_" d="M34,17c0,9.4-7.6,17-17,17S0,26.4,0,17S7.6,0,17,0S34,7.6,34,17z M20.2,6.2c0-0.2-0.1-0.3-0.2-0.4
		c-0.1-0.1-0.3-0.2-0.5-0.2h-4.9c-0.2,0-0.4,0.1-0.5,0.2c-0.2,0.1-0.2,0.2-0.2,0.4L14.2,20c0,0.3,0.3,0.6,0.8,0.6H19
		c0.4,0,0.7-0.2,0.8-0.6L20.2,6.2z M19.8,23.4c0-0.4-0.3-0.7-0.7-0.7h-4.2c-0.4,0-0.7,0.3-0.7,0.7v4.2c0,0.4,0.3,0.7,0.7,0.7h4.2
		c0.4,0,0.7-0.3,0.7-0.7V23.4z"/>
</g>
<g id="XMLID_45_">
</g>
<g id="XMLID_46_">
</g>
<g id="XMLID_47_">
</g>
<g id="XMLID_48_">
</g>
<g id="XMLID_49_">
</g>
<g id="XMLID_50_">
</g>
</svg>
