<?xml version="1.0" encoding="utf-8"?>
<!-- Generator: Adobe Illustrator 19.1.0, SVG Export Plug-In . SVG Version: 6.00 Build 0)  -->
<svg version="1.1" id="Layer_1" xmlns="http://www.w3.org/2000/svg" xmlns:xlink="http://www.w3.org/1999/xlink" x="0px" y="0px"
	 viewBox="0 0 34 34" enable-background="new 0 0 34 34" xml:space="preserve">
<g>
	<circle cx="17" cy="8.5" r="8.5"/>
	<path d="M17.9,18.2h-2.1c-0.2,0-0.3,0.2-0.3,0.4l0.3,1.6c0,0.2,0.3,0.4,0.5,0.4h1.3c0.2,0,0.4-0.2,0.5-0.4l0.3-1.6
		c0-0.2-0.1-0.4-0.3-0.4H17.9z"/>
	<path d="M24.9,15.6c-0.3,0-0.9,0.5-1.7,1c-0.1,0-0.1,0.1-0.2,0.2l-3.5,11.8l-1.6-7.1c0-0.2-0.2-0.3-0.3-0.3h-1.2
		c-0.2,0-0.3,0.1-0.3,0.3l-1.6,7.1L11,16.8c0-0.1-0.1-0.2-0.2-0.2c-0.9-0.6-1.5-1-1.7-1c-6.5,0-7.7,7.7-7.7,12.7
		c0,3.6,2.4,5.7,5.9,5.7h19.3c3.5,0,5.9-2.1,5.9-5.7C32.6,23.3,31.4,15.6,24.9,15.6z"/>
</g>
<g>
</g>
<g>
</g>
<g>
</g>
<g>
</g>
<g>
</g>
<g>
</g>
</svg>
