<?xml version="1.0" encoding="utf-8"?>
<!-- Generator: Adobe Illustrator 19.1.0, SVG Export Plug-In . SVG Version: 6.00 Build 0)  -->
<svg version="1.1" id="Layer_1" xmlns="http://www.w3.org/2000/svg" xmlns:xlink="http://www.w3.org/1999/xlink" x="0px" y="0px"
	 viewBox="0 0 34 34" enable-background="new 0 0 34 34" xml:space="preserve">
<g>
	<path d="M33.6,18.3c-3.5,5.7-9.9,9.6-16.6,9.6S3.9,24,0.4,18.3C0.2,17.9,0,17.5,0,17s0.2-0.9,0.4-1.3C3.9,10,10.3,6.1,17,6.1
		s13.1,3.9,16.6,9.6c0.2,0.4,0.4,0.8,0.4,1.3S33.8,17.9,33.6,18.3z M24.3,10.3c0.8,1.3,1.2,2.8,1.2,4.3c0,4.7-3.8,8.5-8.5,8.5
		s-8.5-3.8-8.5-8.5c0-1.5,0.4-3,1.2-4.3c-3,1.5-5.4,3.9-7.2,6.7c3.2,5,8.5,8.5,14.6,8.5S28.3,22,31.6,17
		C29.8,14.2,27.3,11.8,24.3,10.3z M17,8.8c-3.2,0-5.8,2.6-5.8,5.8c0,0.5,0.4,0.9,0.9,0.9c0.5,0,0.9-0.4,0.9-0.9
		c0-2.2,1.8-3.9,3.9-3.9c0.5,0,0.9-0.4,0.9-0.9C17.9,9.2,17.5,8.8,17,8.8z"/>
</g>
<g>
</g>
<g>
</g>
<g>
</g>
<g>
</g>
<g>
</g>
<g>
</g>
</svg>
