<?xml version="1.0" encoding="utf-8"?>
<!-- Generator: Adobe Illustrator 19.0.0, SVG Export Plug-In . SVG Version: 6.00 Build 0)  -->
<svg version="1.1" id="Layer_1" xmlns="http://www.w3.org/2000/svg" xmlns:xlink="http://www.w3.org/1999/xlink" x="0px" y="0px"
	 viewBox="0 0 34 34" enable-background="new 0 0 34 34" xml:space="preserve">
<g id="XMLID_1_">
	<path id="XMLID_2_" d="M34,6.4v21.2c0,3.5-2.9,6.4-6.4,6.4h-4.2V20.8h4.4l0.7-5.1h-5.1v-3.3c0-1.5,0.4-2.5,2.5-2.5l2.7,0V5.3
		c-0.5-0.1-2.1-0.2-3.9-0.2c-3.9,0-6.6,2.4-6.6,6.8v3.8h-4.4v5.1h4.4V34H6.4C2.9,34,0,31.1,0,27.6V6.4C0,2.9,2.9,0,6.4,0h21.2
		C31.1,0,34,2.9,34,6.4z"/>
</g>
<g id="XMLID_4_">
</g>
<g id="XMLID_5_">
</g>
<g id="XMLID_6_">
</g>
<g id="XMLID_7_">
</g>
<g id="XMLID_8_">
</g>
<g id="XMLID_9_">
</g>
</svg>
