<?xml version="1.0" encoding="utf-8"?>
<!-- Generator: Adobe Illustrator 19.1.0, SVG Export Plug-In . SVG Version: 6.00 Build 0)  -->
<svg version="1.1" id="Layer_1" xmlns="http://www.w3.org/2000/svg" xmlns:xlink="http://www.w3.org/1999/xlink" x="0px" y="0px"
	 viewBox="0 0 34 34" enable-background="new 0 0 34 34" xml:space="preserve">
<g>
	<path d="M30.4,33.4c0,0.3-0.3,0.6-0.6,0.6H4.3c-0.3,0-0.6-0.3-0.6-0.6v-1.2c0-0.3,0.3-0.6,0.6-0.6h25.5c0.3,0,0.6,0.3,0.6,0.6V33.4
		z M17,24.9c0,1.3,0.7,3.1,1.3,4.2l-0.1,0l0,0C13,26.7,8.5,23.4,8.5,17C8.5,9.7,17,9.1,17,4.2c0-1.3-0.7-3.1-1.3-4.2l0.1,0l0,0
		c5.2,2.4,9.7,5.7,9.7,12.1C25.5,19.4,17,20.1,17,24.9z"/>
</g>
<g>
</g>
<g>
</g>
<g>
</g>
<g>
</g>
<g>
</g>
<g>
</g>
</svg>
