<?xml version="1.0" encoding="utf-8"?>
<!-- Generator: Adobe Illustrator 19.1.0, SVG Export Plug-In . SVG Version: 6.00 Build 0)  -->
<svg version="1.1" id="Layer_1" xmlns="http://www.w3.org/2000/svg" xmlns:xlink="http://www.w3.org/1999/xlink" x="0px" y="0px"
	 viewBox="0 0 34 34" enable-background="new 0 0 34 34" xml:space="preserve">
<g>
	<path d="M31.6,30.4c-0.2,0.4-0.4,1-0.7,1.4c-0.1,0.2-0.3,0.3-0.5,0.3c-0.4,0-0.6-0.3-0.6-0.7c0-0.3,0.1-0.6,0.1-0.9
		c0.1-0.8,0.1-1.6,0.1-2.3c0-9-5.4-10.6-13.5-10.6h-4.2v4.9c0,0.7-0.6,1.2-1.2,1.2c-0.3,0-0.6-0.1-0.9-0.4l-9.7-9.7
		C0.1,13.4,0,13.1,0,12.8s0.1-0.6,0.4-0.9l9.7-9.7c0.2-0.2,0.5-0.4,0.9-0.4c0.7,0,1.2,0.6,1.2,1.2v4.9h4.2c6.2,0,14,1.1,16.6,7.6
		c0.8,2,1,4.2,1,6.3C34,24.5,32.7,28,31.6,30.4z"/>
</g>
<g>
</g>
<g>
</g>
<g>
</g>
<g>
</g>
<g>
</g>
<g>
</g>
</svg>
