<?xml version="1.0" encoding="utf-8"?>
<!-- Generator: Adobe Illustrator 19.2.1, SVG Export Plug-In . SVG Version: 6.00 Build 0)  -->
<svg version="1.1" id="Layer_1" xmlns="http://www.w3.org/2000/svg" xmlns:xlink="http://www.w3.org/1999/xlink" x="0px" y="0px"
	 viewBox="0 0 34 34" enable-background="new 0 0 34 34" xml:space="preserve">
<path fill-rule="evenodd" clip-rule="evenodd" d="M22.9,6.5c0.4,0,0.7,0.3,0.7,0.7v1.3c0,0.4-0.3,0.7-0.7,0.7
	c-0.4,0-0.7-0.3-0.7-0.7V7.2C22.2,6.8,22.5,6.5,22.9,6.5z M22.9,13.1c0.4,0,0.7,0.3,0.7,0.6v2.6c0,0.4-0.3,0.6-0.7,0.6
	c-0.4,0-0.7-0.3-0.7-0.6v-2.6C22.2,13.4,22.5,13.1,22.9,13.1z M7.8,10.5V2.6C7.8,1.2,9,0,10.5,0h13.1c1.4,0,2.6,1.2,2.6,2.6v7.8H7.8
	z M7.8,11.8v18.3c0,1.5,1.2,2.6,2.6,2.6v0.6c0,0.4,0.3,0.7,0.7,0.7c0.4,0,0.7-0.3,0.7-0.7v-0.6h10.5v0.6c0,0.4,0.3,0.7,0.7,0.7
	c0.4,0,0.7-0.3,0.7-0.7v-0.6c1.4,0,2.6-1.2,2.6-2.6V11.8H7.8z"/>
<g>
</g>
<g>
</g>
<g>
</g>
<g>
</g>
<g>
</g>
<g>
</g>
</svg>
