<?xml version="1.0" encoding="utf-8"?>
<!-- Generator: Adobe Illustrator 19.0.0, SVG Export Plug-In . SVG Version: 6.00 Build 0)  -->
<svg version="1.1" id="Layer_1" xmlns="http://www.w3.org/2000/svg" xmlns:xlink="http://www.w3.org/1999/xlink" x="0px" y="0px"
	 viewBox="0 0 34 34" enable-background="new 0 0 34 34" xml:space="preserve">
<g id="XMLID_1_">
	<path id="XMLID_2_" d="M34,27.6c0,3.5-2.9,6.4-6.4,6.4H6.4C2.9,34,0,31.1,0,27.6V6.4C0,2.9,2.9,0,6.4,0h21.2C31.1,0,34,2.9,34,6.4
		V27.6z M21,5h-5.9c-3.7,0-7.5,2.2-7.5,6.3c0,2.8,2.2,4.8,4.9,4.8c0.3,0,0.6,0,1-0.1c-0.2,0.4-0.3,0.8-0.3,1.2
		c0,0.8,0.4,1.4,0.9,2.1c-1.9,0.1-4,0.4-5.7,1.4c-1.3,0.8-2.3,2.1-2.3,3.7c0,3.3,3.7,4.4,6.4,4.4c3.4,0,7.8-1.7,7.8-5.8
		c0-3.9-4.3-4.6-4.3-6.5c0-1.8,3.3-2.2,3.3-5.9c0-1.9-0.8-2.9-2.1-4.2h1.8L21,5z M14,27.4c-2.3,0-5.2-1-5.2-3.7
		c0-2.9,3.4-3.6,5.7-3.6c0.2,0,0.4,0,0.7,0c1.3,1,3.2,2.1,3.2,4C18.3,26.6,16.1,27.4,14,27.4z M13.9,15.1c-2.5,0-3.7-3.3-3.7-5.4
		c0-1.7,0.9-3.3,2.7-3.3c2.5,0,3.7,3.5,3.7,5.6C16.7,13.7,15.8,15.1,13.9,15.1z M28.3,16.3v-1.4h-2.8V12h-1.4v2.8h-2.8v1.4h2.8v3.5
		h1.4v-3.5H28.3z"/>
</g>
<g id="XMLID_8_">
</g>
<g id="XMLID_9_">
</g>
<g id="XMLID_10_">
</g>
<g id="XMLID_11_">
</g>
<g id="XMLID_12_">
</g>
<g id="XMLID_13_">
</g>
</svg>
