<?xml version="1.0" encoding="utf-8"?>
<!-- Generator: Adobe Illustrator 19.0.1, SVG Export Plug-In . SVG Version: 6.00 Build 0)  -->
<svg version="1.1" id="Layer_1" xmlns="http://www.w3.org/2000/svg" xmlns:xlink="http://www.w3.org/1999/xlink" x="0px" y="0px"
	 viewBox="0 0 34 34" enable-background="new 0 0 34 34" xml:space="preserve">
<g id="XMLID_1_">
	<path id="XMLID_2_" d="M5.8,19.3H3.4c-1.8,0-3.4-0.8-3.4-2.8c0-1.4-0.1-6.3,2.2-6.3c0.4,0,2.2,1.5,4.6,1.5c0.8,0,1.6-0.1,2.4-0.4
		c-0.1,0.4-0.1,0.8-0.1,1.2c0,1.6,0.5,3.2,1.4,4.5C8.7,17.1,7,17.8,5.8,19.3z M6.8,10.2c-2.5,0-4.5-2-4.5-4.5s2-4.5,4.5-4.5
		s4.5,2,4.5,4.5S9.3,10.2,6.8,10.2z M24.7,32.9H9.3c-2.8,0-4.7-1.7-4.7-4.6c0-4,0.9-10.1,6.1-10.1c0.6,0,2.8,2.5,6.3,2.5
		s5.7-2.5,6.3-2.5c5.2,0,6.1,6.1,6.1,10.1C29.5,31.1,27.6,32.9,24.7,32.9z M17,19.3c-3.8,0-6.8-3-6.8-6.8s3-6.8,6.8-6.8
		s6.8,3,6.8,6.8S20.8,19.3,17,19.3z M27.2,10.2c-2.5,0-4.5-2-4.5-4.5s2-4.5,4.5-4.5s4.5,2,4.5,4.5S29.7,10.2,27.2,10.2z M30.6,19.3
		h-2.4c-1.2-1.4-2.9-2.2-4.7-2.3c0.9-1.3,1.4-2.9,1.4-4.5c0-0.4,0-0.8-0.1-1.2c0.8,0.3,1.5,0.4,2.4,0.4c2.4,0,4.2-1.5,4.6-1.5
		c2.3,0,2.2,4.8,2.2,6.3C34,18.4,32.3,19.3,30.6,19.3z"/>
</g>
<g id="XMLID_9_">
</g>
<g id="XMLID_10_">
</g>
<g id="XMLID_11_">
</g>
<g id="XMLID_12_">
</g>
<g id="XMLID_13_">
</g>
<g id="XMLID_14_">
</g>
</svg>
