<?xml version="1.0" encoding="utf-8"?>
<!-- Generator: Adobe Illustrator 19.0.0, SVG Export Plug-In . SVG Version: 6.00 Build 0)  -->
<svg version="1.1" id="Layer_1" xmlns="http://www.w3.org/2000/svg" xmlns:xlink="http://www.w3.org/1999/xlink" x="0px" y="0px"
	 viewBox="0 0 34 34" enable-background="new 0 0 34 34" xml:space="preserve">
<g id="tlwaNy.tif">
	<g id="XMLID_1_">
		<path id="XMLID_18_" d="M18.2,34c-0.4-0.1-0.8-0.1-1.1-0.2c-0.7-0.2-1.3-0.5-1.8-1c-1.3-1.3-1.1-3.3,0.4-4.4
			c1.6-1.2,3.7-1.1,5.3,0.1c0.4,0.3,0.7,0.7,0.9,1.1c0.1,0.2,0.2,0.3,0.4,0.3c0.6,0,1.3,0,1.9,0c0.2,0,0.5-0.1,0.7-0.2
			c0.9-0.5,1.7-1.3,2.3-2.1c1.2-1.5,2-3.2,2.3-5.1c0-0.1,0-0.2,0-0.2c0,0,0-0.1,0-0.1c-0.3,0-0.5,0-0.8,0c-0.8,0-1.3-0.5-1.3-1.3
			c0-3,0-6,0-9.1c0-0.5,0.2-0.9,0.7-1.2c0.1,0,0.1-0.1,0.2-0.1c0,0,0,0,0,0C27.2,7,23.3,2.9,17.9,2.5C11.5,2.1,7.1,6.5,5.6,10.4
			c0,0,0,0,0,0.1c0.7,0.3,0.9,0.8,0.9,1.5c0,2.9,0,5.9,0,8.8c0,0.7-0.4,1.2-1,1.3c-0.3,0-0.6,0-1,0c-2.4-0.3-3.8-2.1-4.3-4.2
			c-0.1-0.4-0.1-0.7-0.2-1.1c0-0.1-0.1-0.3-0.1-0.4c0-0.1,0-0.2,0-0.3c0.1-0.4,0.1-0.7,0.2-1.1c0.3-1.6,1-2.9,2.3-3.8
			c0.1-0.1,0.2-0.2,0.3-0.4c0.3-0.7,0.6-1.5,0.9-2.2c0.9-2,2.2-3.6,3.8-5c2.2-1.9,4.7-3.1,7.6-3.5c1.4-0.2,2.7-0.2,4.1,0
			c2.5,0.4,4.7,1.4,6.7,2.9c1.6,1.2,2.9,2.7,3.9,4.4c0.6,1,1.1,2.1,1.5,3.3c0,0.1,0.1,0.3,0.3,0.4c1.4,0.9,2.1,2.3,2.3,3.9
			c0.1,0.3,0.1,0.7,0.1,1c0,0.1,0,0.2,0,0.3c0,0.2-0.1,0.3-0.1,0.5c-0.1,1.7-0.8,3.2-2.2,4.3c-0.1,0.1-0.2,0.2-0.2,0.4
			c-0.1,0.5-0.1,0.9-0.2,1.4c-0.4,2.1-1.3,3.9-2.6,5.6c-0.9,1.1-1.9,2-3.1,2.7c-0.4,0.2-0.8,0.3-1.2,0.3c-0.7,0-1.3,0-2,0
			c-0.2,0-0.3,0-0.4,0.2c-0.5,1.1-1.4,1.7-2.5,2c-0.3,0.1-0.7,0.1-1,0.2C18.4,34,18.3,34,18.2,34z"/>
	</g>
</g>
<g id="XMLID_2_">
</g>
<g id="XMLID_3_">
</g>
<g id="XMLID_4_">
</g>
<g id="XMLID_5_">
</g>
<g id="XMLID_6_">
</g>
<g id="XMLID_7_">
</g>
</svg>
