<?xml version="1.0" encoding="utf-8"?>
<!-- Generator: Adobe Illustrator 19.0.1, SVG Export Plug-In . SVG Version: 6.00 Build 0)  -->
<svg version="1.1" id="Layer_1" xmlns="http://www.w3.org/2000/svg" xmlns:xlink="http://www.w3.org/1999/xlink" x="0px" y="0px"
	 viewBox="0 0 34 34" enable-background="new 0 0 34 34" xml:space="preserve">
<g id="XMLID_1_">
	<path id="XMLID_2_" d="M32,17h-7l-2.1-4.2c-0.2-0.4-0.7-0.7-1.2-0.7c-0.5,0.1-0.9,0.4-1.1,0.9l-2.4,8.2l-3.7-13
		c-0.2-0.5-0.6-0.9-1.2-0.9c-0.6,0-1,0.4-1.2,0.9L10,17H2c-1-1.5-2-3.5-2-5.7c0-5.6,3.4-8.9,9.1-8.9c3.3,0,6.4,2.6,7.9,4.1
		c1.5-1.5,4.6-4.1,7.9-4.1c5.7,0,9.1,3.3,9.1,8.9C34,13.5,33.1,15.5,32,17z M30.1,19.4c-0.2,0.2-0.4,0.4-0.4,0.4L17.8,31.2
		c-0.2,0.2-0.5,0.3-0.8,0.3s-0.6-0.1-0.8-0.3L4.3,19.8c0,0-0.2-0.2-0.4-0.4h7c0.6,0,1-0.4,1.2-0.9l1.3-5.3L17,25.8
		c0.2,0.5,0.6,0.9,1.2,0.9c0.5,0,1-0.4,1.2-0.9l2.8-9.2l1.1,2.1c0.2,0.4,0.6,0.7,1.1,0.7H30.1z"/>
</g>
<g id="XMLID_5_">
</g>
<g id="XMLID_6_">
</g>
<g id="XMLID_7_">
</g>
<g id="XMLID_8_">
</g>
<g id="XMLID_9_">
</g>
<g id="XMLID_10_">
</g>
</svg>
