<?xml version="1.0" encoding="utf-8"?>
<!-- Generator: Adobe Illustrator 19.0.0, SVG Export Plug-In . SVG Version: 6.00 Build 0)  -->
<svg version="1.1" id="Layer_1" xmlns="http://www.w3.org/2000/svg" xmlns:xlink="http://www.w3.org/1999/xlink" x="0px" y="0px"
	 viewBox="0 0 34 34" enable-background="new 0 0 34 34" xml:space="preserve">
<g id="XMLID_1_">
	<path id="XMLID_2_" d="M32.5,19.2c-0.1,0.1-0.3,0.2-0.4,0.2c0,0,0,0-0.1,0c-0.2,0-0.3,0-0.4-0.1L17,7.1L2.4,19.2
		c-0.1,0.1-0.3,0.2-0.5,0.1c-0.2,0-0.3-0.1-0.4-0.2l-1.3-1.6c-0.2-0.3-0.2-0.7,0.1-0.9L15.4,4c0.9-0.7,2.3-0.7,3.2,0l5.1,4.3V4.2
		c0-0.4,0.3-0.7,0.7-0.7h4c0.4,0,0.7,0.3,0.7,0.7v8.6l4.6,3.8c0.3,0.2,0.3,0.7,0.1,0.9L32.5,19.2z M29.1,29.2c0,0.7-0.6,1.3-1.3,1.3
		h-8.1v-8.1h-5.4v8.1H6.2c-0.7,0-1.3-0.6-1.3-1.3V19.1c0,0,0-0.1,0-0.1L17,8.9l12.1,10c0,0,0,0.1,0,0.1V29.2z"/>
</g>
<g id="XMLID_5_">
</g>
<g id="XMLID_6_">
</g>
<g id="XMLID_7_">
</g>
<g id="XMLID_8_">
</g>
<g id="XMLID_9_">
</g>
<g id="XMLID_10_">
</g>
</svg>
