<?xml version="1.0" encoding="utf-8"?>
<!-- Generator: Adobe Illustrator 19.0.0, SVG Export Plug-In . SVG Version: 6.00 Build 0)  -->
<svg version="1.1" id="Layer_1" xmlns="http://www.w3.org/2000/svg" xmlns:xlink="http://www.w3.org/1999/xlink" x="0px" y="0px"
	 viewBox="0 0 34 34" enable-background="new 0 0 34 34" xml:space="preserve">
<g id="XMLID_1_">
	<path id="XMLID_6_" d="M34,24.9c0,1.3-1,2.3-2.3,2.3H2.3c-1.3,0-2.3-1-2.3-2.3V9.1c0-1.3,1-2.3,2.3-2.3h29.5c1.3,0,2.3,1,2.3,2.3
		V24.9z M31.7,9.1H2.3v15.9h29.5V9.1z M6.8,13.3c0,0.2-0.1,0.3-0.3,0.3H4.8c-0.2,0-0.3-0.1-0.3-0.3v-1.7c0-0.2,0.1-0.3,0.3-0.3h1.7
		c0.2,0,0.3,0.1,0.3,0.3V13.3z M9.1,17.8c0,0.2-0.1,0.3-0.3,0.3h-4c-0.2,0-0.3-0.1-0.3-0.3v-1.7c0-0.2,0.1-0.3,0.3-0.3h4
		c0.2,0,0.3,0.1,0.3,0.3V17.8z M6.8,22.4c0,0.2-0.1,0.3-0.3,0.3H4.8c-0.2,0-0.3-0.1-0.3-0.3v-1.7c0-0.2,0.1-0.3,0.3-0.3h1.7
		c0.2,0,0.3,0.1,0.3,0.3V22.4z M11.3,13.3c0,0.2-0.1,0.3-0.3,0.3H9.4c-0.2,0-0.3-0.1-0.3-0.3v-1.7c0-0.2,0.1-0.3,0.3-0.3H11
		c0.2,0,0.3,0.1,0.3,0.3V13.3z M24.9,22.4c0,0.2-0.1,0.3-0.3,0.3H9.4c-0.2,0-0.3-0.1-0.3-0.3v-1.7c0-0.2,0.1-0.3,0.3-0.3h15.3
		c0.2,0,0.3,0.1,0.3,0.3V22.4z M13.6,17.8c0,0.2-0.1,0.3-0.3,0.3h-1.7c-0.2,0-0.3-0.1-0.3-0.3v-1.7c0-0.2,0.1-0.3,0.3-0.3h1.7
		c0.2,0,0.3,0.1,0.3,0.3V17.8z M15.9,13.3c0,0.2-0.1,0.3-0.3,0.3h-1.7c-0.2,0-0.3-0.1-0.3-0.3v-1.7c0-0.2,0.1-0.3,0.3-0.3h1.7
		c0.2,0,0.3,0.1,0.3,0.3V13.3z M18.1,17.8c0,0.2-0.1,0.3-0.3,0.3h-1.7c-0.2,0-0.3-0.1-0.3-0.3v-1.7c0-0.2,0.1-0.3,0.3-0.3h1.7
		c0.2,0,0.3,0.1,0.3,0.3V17.8z M20.4,13.3c0,0.2-0.1,0.3-0.3,0.3h-1.7c-0.2,0-0.3-0.1-0.3-0.3v-1.7c0-0.2,0.1-0.3,0.3-0.3h1.7
		c0.2,0,0.3,0.1,0.3,0.3V13.3z M22.7,17.8c0,0.2-0.1,0.3-0.3,0.3h-1.7c-0.2,0-0.3-0.1-0.3-0.3v-1.7c0-0.2,0.1-0.3,0.3-0.3h1.7
		c0.2,0,0.3,0.1,0.3,0.3V17.8z M24.9,13.3c0,0.2-0.1,0.3-0.3,0.3H23c-0.2,0-0.3-0.1-0.3-0.3v-1.7c0-0.2,0.1-0.3,0.3-0.3h1.7
		c0.2,0,0.3,0.1,0.3,0.3V13.3z M29.5,17.8c0,0.2-0.1,0.3-0.3,0.3h-4c-0.2,0-0.3-0.1-0.3-0.3v-1.7c0-0.2,0.1-0.3,0.3-0.3h2v-4.2
		c0-0.2,0.1-0.3,0.3-0.3h1.7c0.2,0,0.3,0.1,0.3,0.3V17.8z M29.5,22.4c0,0.2-0.1,0.3-0.3,0.3h-1.7c-0.2,0-0.3-0.1-0.3-0.3v-1.7
		c0-0.2,0.1-0.3,0.3-0.3h1.7c0.2,0,0.3,0.1,0.3,0.3V22.4z"/>
</g>
<g id="XMLID_57_">
</g>
<g id="XMLID_58_">
</g>
<g id="XMLID_59_">
</g>
<g id="XMLID_60_">
</g>
<g id="XMLID_61_">
</g>
<g id="XMLID_62_">
</g>
</svg>
