<?xml version="1.0" encoding="utf-8"?>
<!-- Generator: Adobe Illustrator 19.0.0, SVG Export Plug-In . SVG Version: 6.00 Build 0)  -->
<svg version="1.1" id="Layer_1" xmlns="http://www.w3.org/2000/svg" xmlns:xlink="http://www.w3.org/1999/xlink" x="0px" y="0px"
	 viewBox="0 0 34 34" enable-background="new 0 0 34 34" xml:space="preserve">
<g id="XMLID_1_">
	<path id="XMLID_6_" d="M33.3,31.2l-2.1,2.1c-0.5,0.5-1.1,0.7-1.8,0.7s-1.3-0.3-1.8-0.7l-7.1-7.1c-0.5-0.5-0.7-1.1-0.7-1.8
		c0-0.7,0.3-1.4,0.8-1.9l-5-5l-2.5,2.5c-0.2,0.2-0.4,0.3-0.7,0.3c-0.3,0-0.5-0.1-0.7-0.3c0.6,0.6,1.1,1,1.1,1.9c0,0.5-0.2,1-0.5,1.3
		c-0.7,0.7-1.4,1.6-2.4,1.6c-0.5,0-1-0.2-1.3-0.5l-8-8C0.2,15.9,0,15.4,0,14.9c0-1.1,0.9-1.8,1.7-2.4C2,12.1,2.5,11.9,3,11.9
		c0.9,0,1.3,0.5,1.9,1.1c-0.2-0.2-0.3-0.4-0.3-0.7s0.1-0.5,0.3-0.7l6.8-6.8c0.2-0.2,0.4-0.3,0.7-0.3c0.3,0,0.5,0.1,0.7,0.3
		c-0.6-0.6-1.1-1-1.1-1.9c0-0.5,0.2-1,0.5-1.3C13.2,0.9,13.9,0,14.9,0c0.5,0,1,0.2,1.3,0.5l8,8c0.4,0.4,0.5,0.8,0.5,1.3
		c0,1.1-0.9,1.8-1.7,2.4c-0.4,0.4-0.8,0.5-1.3,0.5c-0.9,0-1.3-0.5-1.9-1.1c0.2,0.2,0.3,0.4,0.3,0.7s-0.1,0.5-0.3,0.7l-2.5,2.5l5,5
		c0.5-0.5,1.1-0.8,1.9-0.8c0.7,0,1.3,0.3,1.8,0.7l7.1,7.1c0.5,0.5,0.7,1.1,0.7,1.8S33.7,30.7,33.3,31.2z"/>
</g>
<g id="XMLID_43_">
</g>
<g id="XMLID_44_">
</g>
<g id="XMLID_45_">
</g>
<g id="XMLID_46_">
</g>
<g id="XMLID_47_">
</g>
<g id="XMLID_48_">
</g>
</svg>
