<?xml version="1.0" encoding="utf-8"?>
<!-- Generator: Adobe Illustrator 19.0.0, SVG Export Plug-In . SVG Version: 6.00 Build 0)  -->
<svg version="1.1" id="Layer_1" xmlns="http://www.w3.org/2000/svg" xmlns:xlink="http://www.w3.org/1999/xlink" x="0px" y="0px"
	 viewBox="0 0 34 34" enable-background="new 0 0 34 34" xml:space="preserve">
<g id="XMLID_1_">
	<path id="XMLID_2_" d="M34,29.8H0V4.2h2.1v23.4H34V29.8z M31.9,14.1c0,0.5-0.6,0.7-0.9,0.4l-2-2L18.4,23c-0.2,0.2-0.5,0.2-0.8,0
		l-3.9-3.9L6.9,26l-3.2-3.2l9.7-9.7c0.2-0.2,0.5-0.2,0.8,0l3.9,3.9l7.7-7.7l-2-2c-0.3-0.3-0.1-0.9,0.4-0.9h7.2
		c0.3,0,0.5,0.2,0.5,0.5V14.1z"/>
</g>
<g id="XMLID_5_">
</g>
<g id="XMLID_6_">
</g>
<g id="XMLID_7_">
</g>
<g id="XMLID_8_">
</g>
<g id="XMLID_9_">
</g>
<g id="XMLID_10_">
</g>
</svg>
