<?xml version="1.0" encoding="utf-8"?>
<!-- Generator: Adobe Illustrator 19.0.0, SVG Export Plug-In . SVG Version: 6.00 Build 0)  -->
<svg version="1.1" id="Layer_1" xmlns="http://www.w3.org/2000/svg" xmlns:xlink="http://www.w3.org/1999/xlink" x="0px" y="0px"
	 viewBox="0 0 34 34" enable-background="new 0 0 34 34" xml:space="preserve">
<g id="XMLID_1_">
	<path id="XMLID_2_" d="M3.6,10.9c-2,0-3.6-1.6-3.6-3.6s1.6-3.6,3.6-3.6s3.6,1.6,3.6,3.6S5.7,10.9,3.6,10.9z M3.6,20.6
		C1.6,20.6,0,19,0,17s1.6-3.6,3.6-3.6S7.3,15,7.3,17S5.7,20.6,3.6,20.6z M3.6,30.4c-2,0-3.6-1.6-3.6-3.6s1.6-3.6,3.6-3.6
		s3.6,1.6,3.6,3.6S5.7,30.4,3.6,30.4z M34,9.1c0,0.3-0.3,0.6-0.6,0.6H10.3c-0.3,0-0.6-0.3-0.6-0.6V5.5c0-0.3,0.3-0.6,0.6-0.6h23.1
		c0.3,0,0.6,0.3,0.6,0.6V9.1z M34,18.8c0,0.3-0.3,0.6-0.6,0.6H10.3c-0.3,0-0.6-0.3-0.6-0.6v-3.6c0-0.3,0.3-0.6,0.6-0.6h23.1
		c0.3,0,0.6,0.3,0.6,0.6V18.8z M34,28.5c0,0.3-0.3,0.6-0.6,0.6H10.3c-0.3,0-0.6-0.3-0.6-0.6v-3.6c0-0.3,0.3-0.6,0.6-0.6h23.1
		c0.3,0,0.6,0.3,0.6,0.6V28.5z"/>
</g>
<g id="XMLID_9_">
</g>
<g id="XMLID_10_">
</g>
<g id="XMLID_11_">
</g>
<g id="XMLID_12_">
</g>
<g id="XMLID_13_">
</g>
<g id="XMLID_14_">
</g>
</svg>
