<?xml version="1.0" encoding="utf-8"?>
<!-- Generator: Adobe Illustrator 19.0.0, SVG Export Plug-In . SVG Version: 6.00 Build 0)  -->
<svg version="1.1" id="Layer_1" xmlns="http://www.w3.org/2000/svg" xmlns:xlink="http://www.w3.org/1999/xlink" x="0px" y="0px"
	 viewBox="0 0 34 34" enable-background="new 0 0 34 34" xml:space="preserve">
<g id="XMLID_1_">
	<path id="XMLID_2_" d="M27.6,15.3l-8.1,17.1c-0.5,1-1.5,1.6-2.5,1.6s-2.1-0.6-2.5-1.6L6.4,15.3c-0.6-1.2-0.7-2.6-0.7-4
		C5.7,5.1,10.7,0,17,0s11.3,5.1,11.3,11.3C28.3,12.7,28.2,14.1,27.6,15.3z M17,5.7c-3.1,0-5.7,2.5-5.7,5.7S13.9,17,17,17
		s5.7-2.5,5.7-5.7S20.1,5.7,17,5.7z"/>
</g>
<g id="XMLID_5_">
</g>
<g id="XMLID_6_">
</g>
<g id="XMLID_7_">
</g>
<g id="XMLID_8_">
</g>
<g id="XMLID_9_">
</g>
<g id="XMLID_10_">
</g>
</svg>
