<?xml version="1.0" encoding="utf-8"?>
<!-- Generator: Adobe Illustrator 19.0.0, SVG Export Plug-In . SVG Version: 6.00 Build 0)  -->
<svg version="1.1" id="Layer_1" xmlns="http://www.w3.org/2000/svg" xmlns:xlink="http://www.w3.org/1999/xlink" x="0px" y="0px"
	 viewBox="0 0 34 34" enable-background="new 0 0 34 34" xml:space="preserve">
<g id="XMLID_44_">
	<path id="XMLID_48_" fill-rule="evenodd" clip-rule="evenodd" d="M33.7,21.6l-1.5-1.5c-0.2-0.2-0.5-0.3-0.7-0.3
		c-0.3,0-0.5,0.1-0.7,0.3l-7,7.1L20.6,24c-0.2-0.2-0.5-0.3-0.7-0.3s-0.5,0.1-0.7,0.3l-1.5,1.5c-0.2,0.2-0.3,0.5-0.3,0.7
		c0,0.3,0.1,0.5,0.3,0.7l5.3,5.4c0.2,0.2,0.5,0.3,0.7,0.3c0.3,0,0.5-0.1,0.7-0.3l9.2-9.3c0.2-0.2,0.3-0.5,0.3-0.7
		C34,22.1,33.9,21.8,33.7,21.6z"/>
	<ellipse id="XMLID_49_" fill-rule="evenodd" clip-rule="evenodd" cx="14.2" cy="9.2" rx="7.8" ry="7.8"/>
	<path id="XMLID_50_" fill-rule="evenodd" clip-rule="evenodd" d="M15.6,26.2c0-0.7,0.3-1.5,0.8-2l1.5-1.5c0.5-0.5,1.2-0.8,2-0.8
		c0.7,0,1.5,0.3,2,0.8l1.9,1.9l3.9-3.9c-0.9-2.8-2.7-5.1-6.1-5.1c-0.6,0-3.3,2.8-7.2,2.8c-4,0-6.6-2.8-7.2-2.8c-5.9,0-7,7.1-7,11.7
		c0,3.3,2.2,5.3,5.4,5.3h15.4l-4.4-4.4C15.9,27.7,15.6,27,15.6,26.2z"/>
</g>
<g id="XMLID_1_">
</g>
<g id="XMLID_6_">
</g>
<g id="XMLID_15_">
</g>
<g id="XMLID_43_">
</g>
<g id="XMLID_45_">
</g>
<g id="XMLID_46_">
</g>
</svg>
