<?xml version="1.0" encoding="utf-8"?>
<!-- Generator: Adobe Illustrator 19.0.0, SVG Export Plug-In . SVG Version: 6.00 Build 0)  -->
<svg version="1.1" id="Layer_1" xmlns="http://www.w3.org/2000/svg" xmlns:xlink="http://www.w3.org/1999/xlink" x="0px" y="0px"
	 viewBox="0 0 34 34" enable-background="new 0 0 34 34" xml:space="preserve">
<g id="XMLID_2_">
	<path id="XMLID_3_" d="M34,7.1c0,0.8-0.6,1.4-1.4,1.4H1.4C0.6,8.5,0,7.9,0,7.1V4.2c0-0.8,0.6-1.4,1.4-1.4h31.2
		c0.8,0,1.4,0.6,1.4,1.4V7.1z M34,18.4c0,0.8-0.6,1.4-1.4,1.4H1.4c-0.8,0-1.4-0.6-1.4-1.4v-2.8c0-0.8,0.6-1.4,1.4-1.4h31.2
		c0.8,0,1.4,0.6,1.4,1.4V18.4z M34,29.8c0,0.8-0.6,1.4-1.4,1.4H1.4c-0.8,0-1.4-0.6-1.4-1.4v-2.8c0-0.8,0.6-1.4,1.4-1.4h31.2
		c0.8,0,1.4,0.6,1.4,1.4V29.8z"/>
</g>
<g id="XMLID_1_">
</g>
<g id="XMLID_6_">
</g>
<g id="XMLID_8_">
</g>
<g id="XMLID_9_">
</g>
<g id="XMLID_10_">
</g>
<g id="XMLID_11_">
</g>
</svg>
