<?xml version="1.0" encoding="utf-8"?>
<!-- Generator: Adobe Illustrator 19.1.0, SVG Export Plug-In . SVG Version: 6.00 Build 0)  -->
<svg version="1.1" id="Layer_1" xmlns="http://www.w3.org/2000/svg" xmlns:xlink="http://www.w3.org/1999/xlink" x="0px" y="0px"
	 viewBox="0 0 34 34" enable-background="new 0 0 34 34" xml:space="preserve">
<g>
	<g>
		<path d="M32.6,14.6l-1.1,0c-0.4,0-0.7-0.1-1-0.4c-0.3-0.3-0.4-0.6-0.4-1l0-4.4l-12,12c-0.5,0.5-1.3,0.4-1.8-0.1l-1-1
			c-0.5-0.5-0.6-1.3-0.1-1.8l12-12l-4.4,0c-0.4,0-0.7-0.1-1-0.4c-0.3-0.3-0.4-0.6-0.4-1l0-1.1c0-0.4,0.1-0.7,0.4-1
			c0.3-0.3,0.6-0.4,1-0.4l9.8,0c0.4,0,0.7,0.1,1,0.4s0.4,0.6,0.4,1l0,9.8c0,0.4-0.2,0.7-0.4,1C33.3,14.4,33,14.6,32.6,14.6z"/>
	</g>
	<g>
		<path d="M24.5,18.6v8.7c0,0.6-0.5,1.2-1.2,1.2H4.7c-0.6,0-1.2-0.5-1.2-1.2V12.6c0-0.6,0.5-1.2,1.2-1.2h13c0.1,0,0.3-0.1,0.3-0.1
			l2.5-2.5c0.3-0.3,0.1-0.8-0.3-0.8H4.7C2.1,7.9,0,10,0,12.6v14.7c0,2.6,2.1,4.7,4.7,4.7h18.6c2.6,0,4.7-2.1,4.7-4.7V16
			c0-0.4-0.5-0.6-0.8-0.3l-2.5,2.5C24.5,18.3,24.5,18.4,24.5,18.6z"/>
	</g>
</g>
<g>
</g>
<g>
</g>
<g>
</g>
<g>
</g>
<g>
</g>
<g>
</g>
</svg>
