<?xml version="1.0" encoding="utf-8"?>
<!-- Generator: Adobe Illustrator 19.1.0, SVG Export Plug-In . SVG Version: 6.00 Build 0)  -->
<svg version="1.1" id="Layer_1" xmlns="http://www.w3.org/2000/svg" xmlns:xlink="http://www.w3.org/1999/xlink" x="0px" y="0px"
	 viewBox="0 0 34 34" enable-background="new 0 0 34 34" xml:space="preserve">
<g>
	<path d="M34,25.5c0,1.8-1.4,3.2-3.2,3.2H3.2c-1.8,0-3.2-1.4-3.2-3.2V7.4h4.2V5.3H34V25.5z M4.2,9.6H2.1v15.9c0,0.6,0.5,1.1,1.1,1.1
		s1.1-0.5,1.1-1.1V9.6z M31.9,7.4H6.4v18.1c0,0.4-0.1,0.7-0.2,1.1h24.6c0.6,0,1.1-0.5,1.1-1.1V7.4z M19.1,20.2H8.5V9.6h10.6V20.2z
		 M19.1,24.4H8.5v-2.1h10.6V24.4z M10.6,11.7v6.4H17v-6.4H10.6z M29.8,11.7h-8.5V9.6h8.5V11.7z M29.8,15.9h-8.5v-2.1h8.5V15.9z
		 M29.8,20.2h-8.5v-2.1h8.5V20.2z M29.8,24.4h-8.5v-2.1h8.5V24.4z"/>
</g>
<g>
</g>
<g>
</g>
<g>
</g>
<g>
</g>
<g>
</g>
<g>
</g>
</svg>
