<?xml version="1.0" encoding="utf-8"?>
<!-- Generator: Adobe Illustrator 19.2.1, SVG Export Plug-In . SVG Version: 6.00 Build 0)  -->
<svg version="1.1" id="Layer_1" xmlns="http://www.w3.org/2000/svg" xmlns:xlink="http://www.w3.org/1999/xlink" x="0px" y="0px"
	 viewBox="0 0 34 34" enable-background="new 0 0 34 34" xml:space="preserve">
<g>
	<path d="M18.3,15.7c-3.3-3.3-8.7-3.3-12.1,0c-3.3,3.3-3.3,8.7,0,12.1c3.3,3.3,8.7,3.3,12.1,0C21.6,24.4,21.6,19,18.3,15.7z"/>
	<path d="M5.2,28.7c-3.9-3.9-3.9-10.2,0-14.1c3.9-3.9,10.2-3.9,14.1,0c3.9,3.9,3.9,10.2,0,14.1C15.4,32.6,9.1,32.6,5.2,28.7z
		 M31.9,2c0.5,0.5,0.5,1.3,0,1.9c-0.5,0.5-1.3,0.5-1.9,0c-0.5-0.5-0.5-1.3,0-1.9C30.6,1.5,31.4,1.5,31.9,2z M22.7,14.1L33,5.2
		c1.3-1.1,1.4-3.1,0.1-4.3c-1.2-1.2-3.2-1.1-4.3,0.1l-8.9,10.2c-0.2,0.3-0.6,0.3-0.9,0.1C14,8.2,7.3,8.9,3.2,13.4
		C-1.1,18.1-1,25.4,3.3,30C8,35.2,16.1,35.3,21,30.4c4.2-4.2,4.7-10.6,1.6-15.4C22.4,14.7,22.4,14.3,22.7,14.1z"/>
</g>
<g>
</g>
<g>
</g>
<g>
</g>
<g>
</g>
<g>
</g>
<g>
</g>
</svg>
