<?xml version="1.0" encoding="utf-8"?>
<!-- Generator: Adobe Illustrator 19.0.0, SVG Export Plug-In . SVG Version: 6.00 Build 0)  -->
<svg version="1.1" id="Layer_1" xmlns="http://www.w3.org/2000/svg" xmlns:xlink="http://www.w3.org/1999/xlink" x="0px" y="0px"
	 viewBox="0 0 34 34" enable-background="new 0 0 34 34" xml:space="preserve">
<g id="XMLID_1_">
	<path id="XMLID_2_" d="M33.3,30.2c-0.5,1.2-1.9,2-2.9,2.6c-1.4,0.8-2.9,1.2-4.5,1.2c-2.2,0-4.3-0.9-6.3-1.7c-1.5-0.5-2.9-1.2-4.2-2
		c-4.1-2.5-9.1-7.5-11.6-11.6c-0.8-1.3-1.5-2.8-2-4.2C0.9,12.5,0,10.4,0,8.2c0-1.6,0.5-3.1,1.2-4.5c0.6-1.1,1.4-2.4,2.6-2.9
		C4.6,0.4,6.3,0,7.1,0c0.2,0,0.3,0,0.5,0.1c0.5,0.2,1,1.4,1.3,1.8c0.8,1.4,1.5,2.8,2.3,4.1c0.4,0.6,1.1,1.4,1.1,2.1
		c0,1.5-4.4,3.6-4.4,4.9c0,0.7,0.6,1.5,0.9,2.1c2.4,4.4,5.5,7.4,9.9,9.9c0.6,0.3,1.4,0.9,2.1,0.9c1.3,0,3.5-4.4,4.9-4.4
		c0.7,0,1.5,0.7,2.1,1.1c1.4,0.8,2.8,1.5,4.1,2.3c0.5,0.2,1.7,0.8,1.8,1.3c0.1,0.2,0.1,0.3,0.1,0.5C34,27.7,33.6,29.4,33.3,30.2z"/>
</g>
<g id="XMLID_4_">
</g>
<g id="XMLID_5_">
</g>
<g id="XMLID_6_">
</g>
<g id="XMLID_7_">
</g>
<g id="XMLID_8_">
</g>
<g id="XMLID_9_">
</g>
</svg>
