<?xml version="1.0" encoding="utf-8"?>
<!-- Generator: Adobe Illustrator 19.0.0, SVG Export Plug-In . SVG Version: 6.00 Build 0)  -->
<svg version="1.1" id="Layer_1" xmlns="http://www.w3.org/2000/svg" xmlns:xlink="http://www.w3.org/1999/xlink" x="0px" y="0px"
	 viewBox="0 0 34 34" enable-background="new 0 0 34 34" xml:space="preserve">
<g id="XMLID_1_">
	<path id="XMLID_2_" d="M34,6.4v21.2c0,3.5-2.9,6.4-6.4,6.4h-16c0.7-1,1.9-2.8,2.4-4.6c0,0,0.2-0.8,1.2-4.6c0.6,1.1,2.3,2.1,4.1,2.1
		c5.4,0,9.1-4.9,9.1-11.5c0-5-4.2-9.6-10.6-9.6c-8,0-12,5.7-12,10.5c0,2.9,1.1,5.4,3.5,6.4c0.4,0.2,0.7,0,0.8-0.4
		c0.1-0.3,0.2-1,0.3-1.4c0.1-0.4,0.1-0.6-0.2-0.9c-0.7-0.8-1.1-1.8-1.1-3.3c0-4.2,3.2-8,8.3-8c4.5,0,7,2.7,7,6.4
		c0,4.8-2.1,8.9-5.3,8.9c-1.7,0-3.1-1.5-2.7-3.3c0.5-2.1,1.5-4.4,1.5-6c0-1.4-0.7-2.5-2.3-2.5c-1.8,0-3.2,1.9-3.2,4.3
		c0,0,0,1.6,0.5,2.7c-1.8,7.8-2.2,9.2-2.2,9.2c-0.5,2-0.3,4.4-0.2,5.6h-4C2.9,34,0,31.1,0,27.6V6.4C0,2.9,2.9,0,6.4,0h21.2
		C31.1,0,34,2.9,34,6.4z"/>
</g>
<g id="XMLID_4_">
</g>
<g id="XMLID_5_">
</g>
<g id="XMLID_6_">
</g>
<g id="XMLID_7_">
</g>
<g id="XMLID_8_">
</g>
<g id="XMLID_9_">
</g>
</svg>
