<?xml version="1.0" encoding="utf-8"?>
<!-- Generator: Adobe Illustrator 19.2.1, SVG Export Plug-In . SVG Version: 6.00 Build 0)  -->
<svg version="1.1" id="Layer_1" xmlns="http://www.w3.org/2000/svg" xmlns:xlink="http://www.w3.org/1999/xlink" x="0px" y="0px"
	 viewBox="0 0 34 34" enable-background="new 0 0 34 34" xml:space="preserve">
<g>
	<path d="M33.9,19.5c0.2,0.6,0.1,1-0.2,1.3c-0.1,0.1-0.2,0.2-0.4,0.2l-1.6,0.6c-0.5,0.2-1,0.1-1.3-0.3L30.2,21
		c-1.5-3.8-3.8-7.3-6.8-10.3c-3-3-6.4-5.2-10.3-6.8l-0.5-0.2c-0.4-0.4-0.4-0.8-0.3-1.3l0.6-1.6c0-0.1,0.1-0.2,0.2-0.4
		C13.5,0,14-0.1,14.6,0.1c4.3,1.7,8.1,4.3,11.6,7.8C29.6,11.3,32.2,15.2,33.9,19.5z"/>
	<path d="M28.6,21.7c-1.4-3.5-3.5-6.8-6.5-9.7c-3-3-6.3-5.2-9.7-6.5c-0.8-0.4-1.4-0.2-1.6,0.6C10.5,6.7,6.9,16,0,34l27.9-10.6
		C28.7,23.1,28.9,22.5,28.6,21.7z M12,25.8c-0.5,0.5-1.1,0.8-1.8,0.8s-1.4-0.2-1.9-0.8c-0.5-0.5-0.8-1.2-0.8-1.9s0.3-1.3,0.8-1.8
		c0.5-0.5,1.1-0.8,1.8-0.8c0.7,0,1.4,0.2,1.9,0.8c0.5,0.5,0.8,1.2,0.8,1.9S12.5,25.3,12,25.8z M16.8,13.5c-0.5,0.5-1.2,0.8-1.9,0.8
		c-0.7,0-1.3-0.3-1.9-0.8c-0.5-0.5-0.8-1.2-0.8-1.9s0.3-1.3,0.8-1.9c0.5-0.5,1.2-0.8,1.9-0.8c0.7,0,1.3,0.3,1.9,0.8
		c0.5,0.5,0.8,1.2,0.8,1.9S17.4,12.9,16.8,13.5z M22.4,22.8c-0.5,0.5-1.2,0.8-1.9,0.8c-0.7,0-1.3-0.3-1.9-0.8
		c-0.5-0.5-0.8-1.2-0.8-1.9s0.3-1.3,0.8-1.9c0.5-0.5,1.2-0.8,1.9-0.8c0.7,0,1.3,0.3,1.9,0.8c0.5,0.5,0.8,1.2,0.8,1.9
		S23,22.3,22.4,22.8z"/>
</g>
<g>
</g>
<g>
</g>
<g>
</g>
<g>
</g>
<g>
</g>
<g>
</g>
</svg>
