<?xml version="1.0" encoding="utf-8"?>
<!-- Generator: Adobe Illustrator 19.0.0, SVG Export Plug-In . SVG Version: 6.00 Build 0)  -->
<svg version="1.1" id="Layer_1" xmlns="http://www.w3.org/2000/svg" xmlns:xlink="http://www.w3.org/1999/xlink" x="0px" y="0px"
	 viewBox="0 0 34 34" enable-background="new 0 0 34 34" xml:space="preserve">
<g id="XMLID_1_">
	<path id="XMLID_2_" d="M31,8.4l-3.9,3.9L31,29.2c0.1,0.3,0,0.6-0.3,0.8l-3.1,2.3c-0.1,0.1-0.3,0.1-0.5,0.1c0,0-0.1,0-0.2,0
		c-0.2,0-0.4-0.2-0.5-0.4l-6.8-12.3L13.4,26l1.3,4.7c0.1,0.3,0,0.5-0.2,0.8l-2.3,2.3c-0.1,0.1-0.4,0.2-0.6,0.2c0,0,0,0,0,0
		c-0.2,0-0.4-0.1-0.6-0.3l-4.6-6.1L0.3,23C0.1,22.9,0,22.6,0,22.4c0-0.2,0.1-0.4,0.2-0.6l2.3-2.4c0.1-0.1,0.4-0.2,0.6-0.2
		c0.1,0,0.1,0,0.2,0L8,20.6l6.3-6.3L2,7.5C1.8,7.4,1.6,7.2,1.6,6.9c0-0.2,0-0.5,0.2-0.7l3.1-3.1C5.1,3,5.4,2.9,5.6,3l16.1,3.9
		L25.6,3c2.3-2.3,6.2-3.9,7.8-2.3C34.9,2.2,33.4,6.1,31,8.4z"/>
</g>
<g id="XMLID_4_">
</g>
<g id="XMLID_5_">
</g>
<g id="XMLID_6_">
</g>
<g id="XMLID_7_">
</g>
<g id="XMLID_8_">
</g>
<g id="XMLID_9_">
</g>
</svg>
