<?xml version="1.0" encoding="utf-8"?>
<!-- Generator: Adobe Illustrator 19.0.0, SVG Export Plug-In . SVG Version: 6.00 Build 0)  -->
<svg version="1.1" id="Layer_1" xmlns="http://www.w3.org/2000/svg" xmlns:xlink="http://www.w3.org/1999/xlink" x="0px" y="0px"
	 viewBox="0 0 34 34" enable-background="new 0 0 34 34" xml:space="preserve">
<g id="XMLID_1_">
	<path id="XMLID_2_" d="M17,34C7.6,34,0,26.4,0,17S7.6,0,17,0s17,7.6,17,17S26.4,34,17,34z M26.9,15.6c0-0.8-0.6-1.4-1.4-1.4h-5.7
		V8.5c0-0.8-0.6-1.4-1.4-1.4h-2.8c-0.8,0-1.4,0.6-1.4,1.4v5.7H8.5c-0.8,0-1.4,0.6-1.4,1.4v2.8c0,0.8,0.6,1.4,1.4,1.4h5.7v5.7
		c0,0.8,0.6,1.4,1.4,1.4h2.8c0.8,0,1.4-0.6,1.4-1.4v-5.7h5.7c0.8,0,1.4-0.6,1.4-1.4V15.6z"/>
</g>
<g id="XMLID_5_">
</g>
<g id="XMLID_6_">
</g>
<g id="XMLID_7_">
</g>
<g id="XMLID_8_">
</g>
<g id="XMLID_9_">
</g>
<g id="XMLID_10_">
</g>
</svg>
