<?xml version="1.0" encoding="utf-8"?>
<!-- Generator: Adobe Illustrator 19.1.0, SVG Export Plug-In . SVG Version: 6.00 Build 0)  -->
<svg version="1.1" id="Layer_1" xmlns="http://www.w3.org/2000/svg" xmlns:xlink="http://www.w3.org/1999/xlink" x="0px" y="0px"
	 viewBox="0 0 34 34" enable-background="new 0 0 34 34" xml:space="preserve">
<g>
	<path d="M34,26.8c0,0.3-0.3,0.7-0.7,0.7h-4.6v3.3c0,1.1-0.9,2-2,2H7.2c-1.1,0-2-0.9-2-2v-3.3H0.7c-0.3,0-0.7-0.3-0.7-0.7v-8.5
		c0-2.1,1.8-3.9,3.9-3.9h1.3V3.3c0-1.1,0.9-2,2-2h13.7c1.1,0,2.6,0.6,3.4,1.4l3.1,3.1c0.8,0.8,1.4,2.3,1.4,3.4v5.2h1.3
		c2.1,0,3.9,1.8,3.9,3.9V26.8z M26.2,17V9.2h-3.3c-1.1,0-2-0.9-2-2V3.9H7.8V17H26.2z M26.2,30.1v-5.2H7.8v5.2H26.2z M30.1,17
		c-0.7,0-1.3,0.6-1.3,1.3c0,0.7,0.6,1.3,1.3,1.3c0.7,0,1.3-0.6,1.3-1.3C31.4,17.6,30.8,17,30.1,17z"/>
</g>
<g>
</g>
<g>
</g>
<g>
</g>
<g>
</g>
<g>
</g>
<g>
</g>
</svg>
