<?xml version="1.0" encoding="utf-8"?>
<!-- Generator: Adobe Illustrator 19.0.0, SVG Export Plug-In . SVG Version: 6.00 Build 0)  -->
<svg version="1.1" id="Layer_1" xmlns="http://www.w3.org/2000/svg" xmlns:xlink="http://www.w3.org/1999/xlink" x="0px" y="0px"
	 viewBox="0 0 34 34" enable-background="new 0 0 34 34" xml:space="preserve">
<g id="XMLID_1_">
	<path id="XMLID_2_" d="M23.3,19c-1.6,0.9-2.5,2.7-2.5,3.5c0,0.6-0.5,1.3-1.1,1.3h-6.4c-0.6,0-1-0.9-1-1.5v-1.2c0-3.2,3.2-6,5.5-7
		c2-0.9,2.9-1.8,2.9-3.5c0-1.5-1.9-2.8-4.1-2.8c-1.2,0-2.3,0.4-2.9,0.8C13.2,9,12.6,9.6,11,11.6c-0.2,0.3-0.5,0.4-0.8,0.4
		c-0.2,0-0.5-0.1-0.7-0.2L5.2,8.5C4.7,8.1,4.6,7.5,4.9,7.1C7.8,2.3,11.8,0,17.2,0c5.7,0,12.1,4.5,12.1,10.6
		C29.3,15.7,25.8,17.6,23.3,19z M20.9,32.9c0,0.6-0.5,1.1-1.1,1.1h-6.4c-0.6,0-1.1-0.5-1.1-1.1v-6.4c0-0.6,0.5-1.1,1.1-1.1h6.4
		c0.6,0,1.1,0.5,1.1,1.1V32.9z"/>
</g>
<g id="XMLID_5_">
</g>
<g id="XMLID_6_">
</g>
<g id="XMLID_7_">
</g>
<g id="XMLID_8_">
</g>
<g id="XMLID_9_">
</g>
<g id="XMLID_10_">
</g>
</svg>
