<?xml version="1.0" encoding="utf-8"?>
<!-- Generator: Adobe Illustrator 19.0.0, SVG Export Plug-In . SVG Version: 6.00 Build 0)  -->
<svg version="1.1" id="Layer_1" xmlns="http://www.w3.org/2000/svg" xmlns:xlink="http://www.w3.org/1999/xlink" x="0px" y="0px"
	 viewBox="0 0 34 34" enable-background="new 0 0 34 34" xml:space="preserve">
<g id="XMLID_1_">
	<path id="XMLID_2_" d="M17,34C7.6,34,0,26.4,0,17S7.6,0,17,0s17,7.6,17,17S26.4,34,17,34z M17.4,5.7c-3.6,0-6.3,1.5-8.2,4.7
		c-0.2,0.3-0.1,0.7,0.2,0.9l2.9,2.2c0.1,0.1,0.3,0.1,0.4,0.1c0.2,0,0.4-0.1,0.6-0.3c1-1.3,1.5-1.7,1.9-2c0.4-0.3,1.1-0.5,1.9-0.5
		c1.4,0,2.7,0.9,2.7,1.9c0,1.2-0.6,1.7-1.9,2.3c-1.6,0.7-3.7,2.5-3.7,4.7v0.8c0,0.4,0.3,0.7,0.7,0.7h4.2c0.4,0,0.7-0.3,0.7-0.7
		c0-0.5,0.6-1.6,1.7-2.2c1.7-1,4-2.2,4-5.6C25.5,8.7,21.2,5.7,17.4,5.7z M19.8,23.4c0-0.4-0.3-0.7-0.7-0.7h-4.2
		c-0.4,0-0.7,0.3-0.7,0.7v4.2c0,0.4,0.3,0.7,0.7,0.7h4.2c0.4,0,0.7-0.3,0.7-0.7V23.4z"/>
</g>
<g id="XMLID_6_">
</g>
<g id="XMLID_7_">
</g>
<g id="XMLID_8_">
</g>
<g id="XMLID_9_">
</g>
<g id="XMLID_10_">
</g>
<g id="XMLID_11_">
</g>
</svg>
