<?xml version="1.0" encoding="utf-8"?>
<!-- Generator: Adobe Illustrator 19.0.0, SVG Export Plug-In . SVG Version: 6.00 Build 0)  -->
<svg version="1.1" id="Layer_1" xmlns="http://www.w3.org/2000/svg" xmlns:xlink="http://www.w3.org/1999/xlink" x="0px" y="0px"
	 viewBox="0 0 34 34" enable-background="new 0 0 34 34" xml:space="preserve">
<g id="XMLID_1_">
	<path id="XMLID_2_" d="M2.8,8.5h28.4c0.4,0,0.7-0.2,0.9-0.5L34,4.7c-0.1-0.6-0.6-1.1-1.2-1.1H1.2C0.6,3.6,0.1,4.1,0,4.7L1.9,8
		C2.1,8.3,2.4,8.5,2.8,8.5z"/>
	<path id="XMLID_3_" d="M28.7,10.9H5.3c-0.8,0-1.3,0.8-0.9,1.5l1.6,2.9c0.2,0.3,0.5,0.5,0.9,0.5h20c0.4,0,0.7-0.2,0.9-0.5l1.6-2.9
		C29.9,11.8,29.4,10.9,28.7,10.9z"/>
	<path id="XMLID_4_" d="M24.4,18.2H9.6c-0.8,0-1.3,0.8-0.9,1.5l1.6,2.9c0.2,0.3,0.5,0.5,0.9,0.5h11.6c0.4,0,0.7-0.2,0.9-0.5l1.6-2.9
		C25.7,19,25.2,18.2,24.4,18.2z"/>
	<path id="XMLID_5_" d="M20.2,25.5h-6.5c-0.8,0-1.3,0.8-0.9,1.5l1.6,2.9c0.2,0.3,0.5,0.5,0.9,0.5h3.2c0.4,0,0.7-0.2,0.9-0.5l1.6-2.9
		C21.5,26.3,21,25.5,20.2,25.5z"/>
</g>
<g id="XMLID_6_">
</g>
<g id="XMLID_7_">
</g>
<g id="XMLID_8_">
</g>
<g id="XMLID_9_">
</g>
<g id="XMLID_10_">
</g>
<g id="XMLID_11_">
</g>
</svg>
