<?xml version="1.0" encoding="utf-8"?>
<!-- Generator: Adobe Illustrator 19.0.0, SVG Export Plug-In . SVG Version: 6.00 Build 0)  -->
<svg version="1.1" id="Layer_1" xmlns="http://www.w3.org/2000/svg" xmlns:xlink="http://www.w3.org/1999/xlink" x="0px" y="0px"
	 viewBox="0 0 34 34" enable-background="new 0 0 34 34" xml:space="preserve">
<g id="XMLID_1_">
	<path id="XMLID_2_" d="M27.1,17.1c-1.2,1.2-2.6,2.4-4.1,3.7l-0.4,7.9c0,0.2-0.1,0.4-0.3,0.5l-8,4.7C14.2,34,14.1,34,14,34
		c-0.2,0-0.3-0.1-0.5-0.2l-1.3-1.3C12,32.3,12,32,12,31.8l1.8-5.7l-5.9-5.9L2.2,22c-0.1,0-0.1,0-0.2,0c-0.2,0-0.4-0.1-0.5-0.2
		l-1.3-1.3c-0.2-0.2-0.2-0.6-0.1-0.8l4.7-8c0.1-0.2,0.3-0.3,0.5-0.3l7.9-0.4c1.3-1.5,2.5-2.9,3.7-4.1C22.1,1.7,26,0,33.3,0
		C33.7,0,34,0.3,34,0.7C34,7.6,32.1,12.2,27.1,17.1z M27.3,4.7c-1.1,0-2,0.9-2,2s0.9,2,2,2s2-0.9,2-2S28.4,4.7,27.3,4.7z"/>
</g>
<g id="XMLID_5_">
</g>
<g id="XMLID_6_">
</g>
<g id="XMLID_7_">
</g>
<g id="XMLID_8_">
</g>
<g id="XMLID_9_">
</g>
<g id="XMLID_10_">
</g>
</svg>
