<?xml version="1.0" encoding="utf-8"?>
<!-- Generator: Adobe Illustrator 19.1.0, SVG Export Plug-In . SVG Version: 6.00 Build 0)  -->
<svg version="1.1" id="Layer_1" xmlns="http://www.w3.org/2000/svg" xmlns:xlink="http://www.w3.org/1999/xlink" x="0px" y="0px"
	 viewBox="0 0 34 34" enable-background="new 0 0 34 34" xml:space="preserve">
<g>
	<path d="M31.4,34c-0.7,0-1.4-0.3-1.8-0.8l-7-7c-2.4,1.7-5.3,2.5-8.2,2.5C6.4,28.8,0,22.3,0,14.4S6.4,0,14.4,0s14.4,6.4,14.4,14.4
		c0,2.9-0.9,5.8-2.5,8.2l7,7c0.5,0.5,0.8,1.1,0.8,1.8C34,32.8,32.8,34,31.4,34z M14.4,5.2c-5,0-9.2,4.1-9.2,9.2s4.1,9.2,9.2,9.2
		s9.2-4.1,9.2-9.2S19.4,5.2,14.4,5.2z M20.9,15c0,0.3-0.3,0.7-0.7,0.7h-4.6v4.6c0,0.3-0.3,0.7-0.7,0.7h-1.3c-0.3,0-0.7-0.3-0.7-0.7
		v-4.6H8.5c-0.3,0-0.7-0.3-0.7-0.7v-1.3c0-0.3,0.3-0.7,0.7-0.7h4.6V8.5c0-0.3,0.3-0.7,0.7-0.7H15c0.3,0,0.7,0.3,0.7,0.7v4.6h4.6
		c0.3,0,0.7,0.3,0.7,0.7V15z"/>
</g>
<g>
</g>
<g>
</g>
<g>
</g>
<g>
</g>
<g>
</g>
<g>
</g>
</svg>
