<?xml version="1.0" encoding="utf-8"?>
<!-- Generator: Adobe Illustrator 19.1.0, SVG Export Plug-In . SVG Version: 6.00 Build 0)  -->
<svg version="1.1" id="Layer_1" xmlns="http://www.w3.org/2000/svg" xmlns:xlink="http://www.w3.org/1999/xlink" x="0px" y="0px"
	 viewBox="0 0 34 34" enable-background="new 0 0 34 34" xml:space="preserve">
<g>
	<path d="M13.7,29.3c-0.5-0.3-4-2.6-4-2.6S6,24.2,5.7,24c-0.3-0.2-0.8,0.3-0.7,0.6C5.1,25,4.2,25,3.2,25.8c-1,0.8-0.7,2.5,1,4
		s5.6,3.6,5.6,3.6s2.8,1.5,3.7-0.3c0.9-1.8,0.1-2.2,0.6-2.7C14.4,29.9,14.2,29.6,13.7,29.3z"/>
	<path d="M30.7,7.7c-1.3-1.8-3.4-2.7-5.9-4.4c-2.4-1.7-5-3.9-7.4-3.2c0,0-0.7,0-2.5,3.7C13.3,7.4,7.3,18,7.3,18s-0.7,1-0.2,2.5
		c0,0,0.5,1,0.1,1.4C6.8,22.3,6,22.7,6,23c0,0.3-0.1,0.4,1.1,1.2c1.2,0.7,6.8,4.6,6.8,4.6s0.9,0.6,1.2,0c0.3-0.6,0-1.6,0.6-1.7
		c0.7-0.1,2.3-0.1,3.2-1.2c0.8-1,12.2-15.4,12.2-15.4S32,9.5,30.7,7.7z M27.8,11.3l-7.8,10.3c0,0-2.1,3.2-2.9,3.6
		c-0.8,0.4-3.2,0.6-3.2,0.6c0,0.5,0.4,0.3,0.6,1.1c0.1,0.8-0.5,0.5-0.8,0.4c-0.3-0.1-6.2-4.1-6.2-4.1c0.4-0.5,1.1-0.6,2.4,0.5
		c1.3,1,2.2,1.3,2.2,1.3C10.4,23.8,9,21.5,9,21.5c-0.9-1.5-0.5-2.6,0-3.3c0.5-0.7,4.2-7.1,4.2-7.1s4.3-7.7,4.8-8.4
		C18.6,2,20.3,2.6,21,3.2c0.8,0.6,3,2,3,2c4.7,2.5,4.7,3.6,4.8,4.2C29,10,27.8,11.3,27.8,11.3z"/>
	<path d="M10,19c-0.5,0.9-0.1,1.4-0.1,1.4c2.1,3.1,4,3.5,5.1,3.8c1,0.3,1.9-0.6,1.9-0.6l9.7-12.2l-11.5-0.8
		C15.1,10.6,10.5,18.1,10,19z M23.7,12.6c0,0-7.3,9-7.7,9.7c-0.4,0.6-1,0.6-1,0.6c-1.8-0.3-3.2-1.9-3.7-2.5c-0.5-0.6,0-1.3,0-1.3
		l4.3-7L23.7,12.6z"/>
</g>
</svg>
