<?xml version="1.0" encoding="utf-8"?>
<!-- Generator: Adobe Illustrator 19.0.0, SVG Export Plug-In . SVG Version: 6.00 Build 0)  -->
<svg version="1.1" id="Layer_1" xmlns="http://www.w3.org/2000/svg" xmlns:xlink="http://www.w3.org/1999/xlink" x="0px" y="0px"
	 viewBox="0 0 34 34" enable-background="new 0 0 34 34" xml:space="preserve">
<g id="XMLID_1_">
	<path id="XMLID_6_" d="M34,1.4l-4.9,29.1c-0.1,0.4-0.3,0.7-0.6,0.9c-0.2,0.1-0.4,0.2-0.6,0.2c-0.2,0-0.3,0-0.5-0.1L18.9,28
		l-4.6,5.6c-0.2,0.3-0.6,0.4-0.9,0.4c-0.1,0-0.3,0-0.4-0.1c-0.5-0.2-0.8-0.6-0.8-1.1v-6.6L28.5,6.1L8.3,23.6l-7.5-3.1
		C0.3,20.4,0,20,0,19.5c0-0.5,0.2-0.9,0.6-1.1L32.2,0.2C32.4,0.1,32.6,0,32.8,0c0.2,0,0.5,0.1,0.7,0.2C33.9,0.5,34.1,0.9,34,1.4z"/>
</g>
<g id="XMLID_43_">
</g>
<g id="XMLID_44_">
</g>
<g id="XMLID_45_">
</g>
<g id="XMLID_46_">
</g>
<g id="XMLID_47_">
</g>
<g id="XMLID_48_">
</g>
</svg>
