<?xml version="1.0" encoding="utf-8"?>
<!-- Generator: Adobe Illustrator 19.1.0, SVG Export Plug-In . SVG Version: 6.00 Build 0)  -->
<svg version="1.1" id="Layer_1" xmlns="http://www.w3.org/2000/svg" xmlns:xlink="http://www.w3.org/1999/xlink" x="0px" y="0px"
	 viewBox="0 0 34 34" enable-background="new 0 0 34 34" xml:space="preserve">
<g>
	<path d="M34,26.9c0,3.9-3.2,7.1-7.1,7.1s-7.1-3.2-7.1-7.1c0-0.2,0-0.5,0-0.8l-8-4c-1.3,1.2-3,1.9-4.8,1.9C3.2,24.1,0,20.9,0,17
		s3.2-7.1,7.1-7.1c1.9,0,3.6,0.7,4.8,1.9l8-4c0-0.2,0-0.5,0-0.8C19.8,3.2,23,0,26.9,0S34,3.2,34,7.1s-3.2,7.1-7.1,7.1
		c-1.9,0-3.6-0.7-4.8-1.9l-8,4c0,0.2,0,0.5,0,0.8s0,0.5,0,0.8l8,4c1.3-1.2,3-1.9,4.8-1.9C30.8,19.8,34,23,34,26.9z"/>
</g>
<g>
</g>
<g>
</g>
<g>
</g>
<g>
</g>
<g>
</g>
<g>
</g>
</svg>
