<?xml version="1.0" encoding="utf-8"?>
<!-- Generator: Adobe Illustrator 19.0.0, SVG Export Plug-In . SVG Version: 6.00 Build 0)  -->
<svg version="1.1" id="Layer_1" xmlns="http://www.w3.org/2000/svg" xmlns:xlink="http://www.w3.org/1999/xlink" x="0px" y="0px"
	 viewBox="0 0 34 34" enable-background="new 0 0 34 34" xml:space="preserve">
<g id="XMLID_1_">
	<path id="XMLID_2_" d="M34,24.6c0,1.5-1.5,1.3-2.5,1.3c0,2.8-2.3,5-5,5s-5-2.3-5-5h-7.6c0,2.8-2.3,5-5,5s-5-2.3-5-5H2.5
		c-1,0-2.5,0.2-2.5-1.3c0-0.7,0.6-1.3,1.3-1.3V17c0-1.4-0.2-3,0.9-4L6,9.1c0.5-0.5,1.4-0.9,2.1-0.9h3.1V4.4c0-0.7,0.6-1.3,1.3-1.3
		h20.1c0.7,0,1.3,0.6,1.3,1.3V24.6z M11.3,15.7v-5H8.2c-0.1,0-0.4,0.1-0.4,0.2L4,14.7c-0.1,0.1-0.2,0.4-0.2,0.4v0.6H11.3z M8.8,23.3
		c-1.4,0-2.5,1.1-2.5,2.5c0,1.4,1.1,2.5,2.5,2.5s2.5-1.1,2.5-2.5C11.3,24.4,10.2,23.3,8.8,23.3z M26.4,23.3c-1.4,0-2.5,1.1-2.5,2.5
		c0,1.4,1.1,2.5,2.5,2.5s2.5-1.1,2.5-2.5C29,24.4,27.8,23.3,26.4,23.3z"/>
</g>
<g id="XMLID_7_">
</g>
<g id="XMLID_8_">
</g>
<g id="XMLID_9_">
</g>
<g id="XMLID_10_">
</g>
<g id="XMLID_11_">
</g>
<g id="XMLID_12_">
</g>
</svg>
