<?xml version="1.0" encoding="utf-8"?>
<!-- Generator: Adobe Illustrator 19.0.0, SVG Export Plug-In . SVG Version: 6.00 Build 0)  -->
<svg version="1.1" id="Layer_1" xmlns="http://www.w3.org/2000/svg" xmlns:xlink="http://www.w3.org/1999/xlink" x="0px" y="0px"
	 viewBox="0 0 34 34" enable-background="new 0 0 34 34" xml:space="preserve">
<g id="XMLID_1_">
	<path id="XMLID_2_" d="M34,17c0,0.7-0.5,1.2-1.2,1.3l-21.3,2.5c0.1,0.5,0.3,0.9,0.3,1.4c0,0.5-0.3,0.9-0.5,1.3h18.8
		c0.7,0,1.3,0.6,1.3,1.3c0,0.7-0.6,1.3-1.3,1.3H9.2c-0.7,0-1.3-0.6-1.3-1.3c0-0.6,0.9-2.2,1.2-2.8L5.5,5.2H1.3C0.6,5.2,0,4.6,0,3.9
		s0.6-1.3,1.3-1.3h5.2c1.4,0,1.4,1.6,1.6,2.6h24.5c0.7,0,1.3,0.6,1.3,1.3V17z M10.5,31.4c-1.4,0-2.6-1.2-2.6-2.6
		c0-1.4,1.2-2.6,2.6-2.6s2.6,1.2,2.6,2.6C13.1,30.2,11.9,31.4,10.5,31.4z M28.8,31.4c-1.4,0-2.6-1.2-2.6-2.6c0-1.4,1.2-2.6,2.6-2.6
		c1.4,0,2.6,1.2,2.6,2.6C31.4,30.2,30.2,31.4,28.8,31.4z"/>
</g>
<g id="XMLID_6_">
</g>
<g id="XMLID_7_">
</g>
<g id="XMLID_8_">
</g>
<g id="XMLID_9_">
</g>
<g id="XMLID_10_">
</g>
<g id="XMLID_11_">
</g>
</svg>
