<?xml version="1.0" encoding="utf-8"?>
<!-- Generator: Adobe Illustrator 19.0.0, SVG Export Plug-In . SVG Version: 6.00 Build 0)  -->
<svg version="1.1" id="Layer_1" xmlns="http://www.w3.org/2000/svg" xmlns:xlink="http://www.w3.org/1999/xlink" x="0px" y="0px"
	 viewBox="0 0 34 34" enable-background="new 0 0 34 34" xml:space="preserve">
<g id="XMLID_1_">
	<path id="XMLID_2_" d="M13.2,30.9H6.2c-3.4,0-6.2-2.8-6.2-6.2V9.4c0-3.4,2.8-6.2,6.2-6.2h6.9c0.4,0,0.7,0.3,0.7,0.7
		c0,0.6,0.3,2.1-0.7,2.1H6.2c-1.9,0-3.5,1.6-3.5,3.5v15.3c0,1.9,1.6,3.5,3.5,3.5h6.2c0.5,0,1.4-0.1,1.4,0.7
		C13.9,29.4,14.2,30.9,13.2,30.9z M33.6,18L21.8,29.8c-0.3,0.3-0.6,0.4-1,0.4c-0.8,0-1.4-0.6-1.4-1.4v-6.2H9.7
		c-0.8,0-1.4-0.6-1.4-1.4v-8.3c0-0.8,0.6-1.4,1.4-1.4h9.7V5.2c0-0.8,0.6-1.4,1.4-1.4c0.4,0,0.7,0.2,1,0.4L33.6,16
		c0.3,0.3,0.4,0.6,0.4,1S33.8,17.7,33.6,18z"/>
</g>
<g id="XMLID_5_">
</g>
<g id="XMLID_6_">
</g>
<g id="XMLID_7_">
</g>
<g id="XMLID_8_">
</g>
<g id="XMLID_9_">
</g>
<g id="XMLID_10_">
</g>
</svg>
