<?xml version="1.0" encoding="utf-8"?>
<!-- Generator: Adobe Illustrator 19.0.0, SVG Export Plug-In . SVG Version: 6.00 Build 0)  -->
<svg version="1.1" id="Layer_1" xmlns="http://www.w3.org/2000/svg" xmlns:xlink="http://www.w3.org/1999/xlink" x="0px" y="0px"
	 viewBox="0 0 34 34" enable-background="new 0 0 34 34" xml:space="preserve">
<g id="XMLID_1_">
	<path id="XMLID_2_" d="M17,34C7.6,34,0,26.4,0,17S7.6,0,17,0s17,7.6,17,17S26.4,34,17,34z M17,2.8C9.2,2.8,2.8,9.2,2.8,17
		S9.2,31.2,17,31.2S31.2,24.8,31.2,17S24.8,2.8,17,2.8z M11.3,14.2c-1.6,0-2.8-1.3-2.8-2.8s1.3-2.8,2.8-2.8s2.8,1.3,2.8,2.8
		S12.9,14.2,11.3,14.2z M17,26.9c-3.7,0-7-2.4-8.1-6c-0.2-0.8,0.2-1.5,0.9-1.8c0.7-0.2,1.5,0.2,1.8,0.9c0.7,2.4,2.9,4,5.4,4
		s4.7-1.6,5.4-4c0.2-0.8,1-1.2,1.8-0.9c0.7,0.2,1.2,1,0.9,1.8C24,24.5,20.7,26.9,17,26.9z M22.7,14.2c-1.6,0-2.8-1.3-2.8-2.8
		s1.3-2.8,2.8-2.8c1.6,0,2.8,1.3,2.8,2.8S24.2,14.2,22.7,14.2z"/>
</g>
<g id="XMLID_8_">
</g>
<g id="XMLID_9_">
</g>
<g id="XMLID_10_">
</g>
<g id="XMLID_11_">
</g>
<g id="XMLID_12_">
</g>
<g id="XMLID_13_">
</g>
</svg>
