<?xml version="1.0" encoding="utf-8"?>
<!-- Generator: Adobe Illustrator 19.1.0, SVG Export Plug-In . SVG Version: 6.00 Build 0)  -->
<svg version="1.1" id="Layer_1" xmlns="http://www.w3.org/2000/svg" xmlns:xlink="http://www.w3.org/1999/xlink" x="0px" y="0px"
	 viewBox="0 0 34 34" enable-background="new 0 0 34 34" xml:space="preserve">
<g>
	<g>
		<path d="M23,8h5.5c0.5,0,0.7-0.3,0.3-0.7l-6.1-6.1C22.3,0.9,22,1,22,1.5v5.5C22,7.6,22.4,8,23,8z"/>
	</g>
	<g>
		<path d="M13.5,13.1c0-0.6-0.3-0.8-1-0.8c-0.2,0-0.4,0-0.5,0v1.6c0.1,0,0.2,0,0.4,0C13,13.9,13.5,13.6,13.5,13.1z"/>
		<path d="M29.1,9.2h-2.3c0,0,0,0,0,0H7.3C7,9.2,6.7,8.9,6.7,8.6S7,8,7.3,8h13.5V5.2H7.3c-0.3,0-0.6-0.3-0.6-0.6S6.9,4,7.3,4h13.6V1
			c0-0.5-0.4-1-1-1H5C4.4,0,4,0.4,4,1V33c0,0.5,0.4,1,1,1h24.1c0.5,0,1-0.4,1-1V10.2C30,9.6,29.6,9.2,29.1,9.2z M23.4,17.5
			c0-0.1,0.1-0.1,0.2-0.1h3.4c0.1,0,0.1,0.1,0.1,0.1l0,0.6c0,0.1-0.1,0.2-0.2,0.2h-1.2v4.2c0,0.1-0.1,0.1-0.1,0.1h-0.7
			c-0.1,0-0.1-0.1-0.1-0.1v-4.2h-1.2c-0.1,0-0.1-0.1-0.1-0.2L23.4,17.5z M22.9,17.5l0,0.6c0,0.1-0.1,0.2-0.2,0.2h-1.8v1.2h1.7
			c0.1,0,0.1,0.1,0.1,0.1l0,0.5c0,0.1-0.1,0.2-0.2,0.2h-1.7v1.4h2c0.1,0,0.1,0.1,0.1,0.2l0,0.5c0,0.1-0.1,0.1-0.2,0.1H20
			c-0.1,0-0.1-0.1-0.1-0.1v-4.9c0-0.1,0.1-0.1,0.1-0.1h2.8C22.8,17.4,22.9,17.4,22.9,17.5z M21.5,11.4c0.5,0,0.9,0.1,1.1,0.2
			c0.1,0,0.1,0.1,0.1,0.2l-0.1,0.5c0,0.1-0.1,0.1-0.2,0.1c-0.3-0.1-0.6-0.1-0.9-0.1c-0.9,0-1.6,0.6-1.6,1.8c0,1.1,0.6,1.8,1.6,1.8
			c0.3,0,0.7-0.1,0.9-0.1c0.1,0,0.1,0,0.2,0.1l0.1,0.5c0,0.1-0.1,0.2-0.1,0.2c-0.3,0.1-0.7,0.2-1.2,0.2c-1.7,0-2.5-1.1-2.5-2.6
			C18.9,12.5,19.9,11.4,21.5,11.4z M19,17.5l0,0.6c0,0.1-0.1,0.2-0.2,0.2h-1.8v1.2h1.7c0.1,0,0.1,0.1,0.1,0.1l0,0.5
			c0,0.1-0.1,0.2-0.2,0.2h-1.7v1.4h2c0.1,0,0.1,0.1,0.1,0.2l0,0.5c0,0.1-0.1,0.1-0.2,0.1h-2.8c-0.1,0-0.1-0.1-0.1-0.1v-4.9
			c0-0.1,0.1-0.1,0.1-0.1h2.8C18.9,17.4,19,17.4,19,17.5z M15.2,11.6c0-0.1,0.1-0.1,0.1-0.1h2.8c0.1,0,0.1,0.1,0.1,0.1l0,0.6
			c0,0.1-0.1,0.2-0.2,0.2h-1.8v1.2H18c0.1,0,0.1,0.1,0.1,0.1l0,0.5c0,0.1-0.1,0.2-0.2,0.2h-1.7v1.4h2c0.1,0,0.1,0.1,0.1,0.2l0,0.5
			c0,0.1-0.1,0.1-0.2,0.1h-2.8c-0.1,0-0.1-0.1-0.1-0.1V11.6z M10.9,11.7c0-0.1,0.1-0.2,0.1-0.2c0.4,0,0.8-0.1,1.3-0.1
			c1.1,0,2.1,0.4,2.1,1.6c0,1.1-0.8,1.7-1.9,1.7c-0.1,0-0.5,0-0.6,0v1.8c0,0.1-0.1,0.1-0.2,0.1h-0.7c-0.1,0-0.1-0.1-0.1-0.1V11.7z
			 M10.9,17.5c0-0.1,0.1-0.1,0.1-0.1h0.7c0.1,0,0.2,0.1,0.2,0.1v1.9h2v-1.9c0-0.1,0.1-0.1,0.2-0.1h0.7c0.1,0,0.2,0.1,0.2,0.1v4.9
			c0,0.1-0.1,0.1-0.2,0.1h-0.7c-0.1,0-0.2-0.1-0.2-0.1v-2.1h-2v2.1c0,0.1-0.1,0.1-0.2,0.1h-0.7c-0.1,0-0.1-0.1-0.1-0.1V17.5z
			 M7,15.7c0-0.1,0.1-0.1,0.2-0.1c0.3,0.1,0.8,0.2,1.2,0.2c0.5,0,0.8-0.2,0.8-0.6c0-1-2.2-0.7-2.2-2.4c0-0.9,0.8-1.5,1.8-1.5
			c0.5,0,0.8,0.1,1.2,0.2c0.1,0,0.1,0.1,0.1,0.2l-0.1,0.5c0,0.1-0.1,0.1-0.2,0.1c-0.3-0.1-0.6-0.2-1-0.2c-0.5,0-0.8,0.2-0.8,0.6
			c0,0.9,2.2,0.7,2.2,2.4c0,0.9-0.7,1.5-1.9,1.5c-0.5,0-1-0.1-1.3-0.2c-0.1,0-0.1-0.1-0.1-0.2L7,15.7z M7,21.6
			c0-0.1,0.1-0.1,0.2-0.1c0.3,0.1,0.8,0.2,1.2,0.2c0.5,0,0.8-0.2,0.8-0.6c0-1-2.2-0.7-2.2-2.4c0-0.9,0.8-1.5,1.8-1.5
			c0.5,0,0.8,0.1,1.2,0.2c0.1,0,0.1,0.1,0.1,0.2l-0.1,0.5c0,0.1-0.1,0.1-0.2,0.1c-0.3-0.1-0.6-0.2-1-0.2c-0.5,0-0.8,0.2-0.8,0.6
			c0,0.9,2.2,0.7,2.2,2.4c0,0.9-0.7,1.5-1.9,1.5c-0.5,0-1-0.1-1.3-0.2c-0.1,0-0.1-0.1-0.1-0.2L7,21.6z M16.7,30H7.3
			c-0.3,0-0.6-0.3-0.6-0.6s0.3-0.6,0.6-0.6h9.4c0.3,0,0.6,0.3,0.6,0.6S17,30,16.7,30z M26.7,26H7.3c-0.3,0-0.6-0.3-0.6-0.6
			s0.3-0.6,0.6-0.6h19.4c0.3,0,0.6,0.3,0.6,0.6S27,26,26.7,26z"/>
	</g>
</g>
<g>
</g>
<g>
</g>
<g>
</g>
<g>
</g>
<g>
</g>
<g>
</g>
</svg>
