<?xml version="1.0" encoding="utf-8"?>
<!-- Generator: Adobe Illustrator 19.0.0, SVG Export Plug-In . SVG Version: 6.00 Build 0)  -->
<svg version="1.1" id="Layer_1" xmlns="http://www.w3.org/2000/svg" xmlns:xlink="http://www.w3.org/1999/xlink" x="0px" y="0px"
	 viewBox="0 0 34 34" enable-background="new 0 0 34 34" xml:space="preserve">
<g id="XMLID_1_">
	<path id="XMLID_6_" d="M26.1,21.6l1.8,10.2c0.1,0.9-0.2,1.4-0.8,1.4c-0.2,0-0.5-0.1-0.8-0.2L17,28.1L7.8,33
		c-0.3,0.2-0.6,0.2-0.8,0.2c-0.6,0-1-0.5-0.8-1.4l1.8-10.2l-7.4-7.2c-0.9-0.9-0.6-1.7,0.6-1.9l10.3-1.5L16,1.6
		c0.3-0.6,0.6-0.8,1-0.8s0.7,0.3,1,0.8l4.6,9.3l10.3,1.5c1.2,0.2,1.5,1,0.6,1.9L26.1,21.6z M29.5,14.6l-7.3-1.1l-1.3-0.2l-0.6-1.2
		L17,5.5v19.7l1.2,0.6l6.5,3.4L23.5,22l-0.2-1.3l1-1L29.5,14.6z"/>
</g>
<g id="XMLID_44_">
</g>
<g id="XMLID_45_">
</g>
<g id="XMLID_46_">
</g>
<g id="XMLID_47_">
</g>
<g id="XMLID_48_">
</g>
<g id="XMLID_49_">
</g>
</svg>
