<?xml version="1.0" encoding="utf-8"?>
<!-- Generator: Adobe Illustrator 19.0.0, SVG Export Plug-In . SVG Version: 6.00 Build 0)  -->
<svg version="1.1" id="Layer_1" xmlns="http://www.w3.org/2000/svg" xmlns:xlink="http://www.w3.org/1999/xlink" x="0px" y="0px"
	 viewBox="0 0 34 34" enable-background="new 0 0 34 34" xml:space="preserve">
<g id="XMLID_1_">
	<path id="XMLID_2_" d="M33.5,14.3l-7.4,7.2l1.8,10.2c0,0.1,0,0.3,0,0.4c0,0.6-0.2,1-0.8,1c-0.3,0-0.6-0.1-0.8-0.2L17,28.1L7.8,33
		c-0.3,0.1-0.5,0.2-0.8,0.2c-0.6,0-0.9-0.5-0.9-1c0-0.1,0-0.3,0-0.4l1.8-10.2l-7.4-7.2c-0.2-0.3-0.5-0.6-0.5-1
		c0-0.6,0.6-0.9,1.1-0.9l10.3-1.5L16,1.6c0.2-0.4,0.5-0.8,1-0.8s0.8,0.4,1,0.8l4.6,9.3l10.3,1.5c0.5,0.1,1.1,0.3,1.1,0.9
		C34,13.7,33.7,14.1,33.5,14.3z M29.5,14.6l-8.6-1.3L17,5.5l-3.9,7.8l-8.6,1.3l6.3,6.1l-1.5,8.6l7.7-4.1l7.7,4.1l-1.5-8.6L29.5,14.6
		z"/>
</g>
<g id="XMLID_5_">
</g>
<g id="XMLID_6_">
</g>
<g id="XMLID_7_">
</g>
<g id="XMLID_8_">
</g>
<g id="XMLID_9_">
</g>
<g id="XMLID_10_">
</g>
</svg>
