<?xml version="1.0" encoding="utf-8"?>
<!-- Generator: Adobe Illustrator 19.1.0, SVG Export Plug-In . SVG Version: 6.00 Build 0)  -->
<svg version="1.1" id="Layer_1" xmlns="http://www.w3.org/2000/svg" xmlns:xlink="http://www.w3.org/1999/xlink" x="0px" y="0px"
	 viewBox="0 0 34 34" enable-background="new 0 0 34 34" xml:space="preserve">
<g>
	<path d="M32.8,22.6l-5.5,1.8v5.8c0,0.2-0.1,0.4-0.2,0.5c-0.2,0.1-0.4,0.2-0.6,0.1L20.9,29l-3.4,4.7C17.4,33.9,17.2,34,17,34
		s-0.4-0.1-0.5-0.2L13.1,29l-5.5,1.8c-0.2,0.1-0.4,0-0.6-0.1c-0.2-0.1-0.2-0.3-0.2-0.5v-5.8l-5.5-1.8c-0.2-0.1-0.3-0.2-0.4-0.4
		c-0.1-0.2,0-0.4,0.1-0.6L4.3,17l-3.4-4.7c-0.1-0.2-0.1-0.4-0.1-0.6c0.1-0.2,0.2-0.3,0.4-0.4l5.5-1.8V3.7c0-0.2,0.1-0.4,0.2-0.5
		c0.2-0.1,0.4-0.2,0.6-0.1l5.5,1.8l3.4-4.7c0.2-0.3,0.8-0.3,1,0l3.4,4.7l5.5-1.8c0.2-0.1,0.4,0,0.6,0.1c0.2,0.1,0.2,0.3,0.2,0.5v5.8
		l5.5,1.8c0.2,0.1,0.3,0.2,0.4,0.4c0.1,0.2,0,0.4-0.1,0.6L29.7,17l3.4,4.7c0.1,0.2,0.1,0.4,0.1,0.6C33.1,22.4,33,22.6,32.8,22.6z
		 M17,6.1C11,6.1,6.1,11,6.1,17S11,27.9,17,27.9S27.9,23,27.9,17S23,6.1,17,6.1z"/>
</g>
<g>
</g>
<g>
</g>
<g>
</g>
<g>
</g>
<g>
</g>
<g>
</g>
</svg>
