<?xml version="1.0" encoding="utf-8"?>
<!-- Generator: Adobe Illustrator 19.0.0, SVG Export Plug-In . SVG Version: 6.00 Build 0)  -->
<svg version="1.1" id="Layer_1" xmlns="http://www.w3.org/2000/svg" xmlns:xlink="http://www.w3.org/1999/xlink" x="0px" y="0px"
	 viewBox="0 0 34 34" enable-background="new 0 0 34 34" xml:space="preserve">
<g id="XMLID_1_">
	<path id="XMLID_2_" d="M33.2,22.1l-11,11c-0.5,0.5-1.3,0.8-2,0.8s-1.5-0.3-2-0.8L2,17.1c-1.1-1.1-2-3.3-2-4.9V2.9
		C0,1.3,1.3,0,2.9,0h9.3c1.6,0,3.8,0.9,4.9,2l16,16c0.5,0.5,0.8,1.3,0.8,2S33.7,21.6,33.2,22.1z M7.2,4.3c-1.6,0-2.9,1.3-2.9,2.9
		s1.3,2.9,2.9,2.9s2.9-1.3,2.9-2.9S8.8,4.3,7.2,4.3z"/>
</g>
<g id="XMLID_5_">
</g>
<g id="XMLID_6_">
</g>
<g id="XMLID_7_">
</g>
<g id="XMLID_8_">
</g>
<g id="XMLID_9_">
</g>
<g id="XMLID_10_">
</g>
</svg>
