<?xml version="1.0" encoding="utf-8"?>
<!-- Generator: Adobe Illustrator 19.1.0, SVG Export Plug-In . SVG Version: 6.00 Build 0)  -->
<svg version="1.1" id="Layer_1" xmlns="http://www.w3.org/2000/svg" xmlns:xlink="http://www.w3.org/1999/xlink" x="0px" y="0px"
	 viewBox="0 0 34 34" enable-background="new 0 0 34 34" xml:space="preserve">
<g>
	<path d="M9.7,9.1c0,1-0.8,1.8-1.8,1.8H1.8c-1,0-1.8-0.8-1.8-1.8V5.5c0-1,0.8-1.8,1.8-1.8h6.1c1,0,1.8,0.8,1.8,1.8V9.1z M9.7,18.8
		c0,1-0.8,1.8-1.8,1.8H1.8c-1,0-1.8-0.8-1.8-1.8v-3.6c0-1,0.8-1.8,1.8-1.8h6.1c1,0,1.8,0.8,1.8,1.8V18.8z M9.7,28.5
		c0,1-0.8,1.8-1.8,1.8H1.8c-1,0-1.8-0.8-1.8-1.8v-3.6c0-1,0.8-1.8,1.8-1.8h6.1c1,0,1.8,0.8,1.8,1.8V28.5z M21.9,9.1
		c0,1-0.8,1.8-1.8,1.8H14c-1,0-1.8-0.8-1.8-1.8V5.5c0-1,0.8-1.8,1.8-1.8H20c1,0,1.8,0.8,1.8,1.8V9.1z M21.9,18.8
		c0,1-0.8,1.8-1.8,1.8H14c-1,0-1.8-0.8-1.8-1.8v-3.6c0-1,0.8-1.8,1.8-1.8H20c1,0,1.8,0.8,1.8,1.8V18.8z M21.9,28.5
		c0,1-0.8,1.8-1.8,1.8H14c-1,0-1.8-0.8-1.8-1.8v-3.6c0-1,0.8-1.8,1.8-1.8H20c1,0,1.8,0.8,1.8,1.8V28.5z M34,9.1c0,1-0.8,1.8-1.8,1.8
		h-6.1c-1,0-1.8-0.8-1.8-1.8V5.5c0-1,0.8-1.8,1.8-1.8h6.1c1,0,1.8,0.8,1.8,1.8V9.1z M34,18.8c0,1-0.8,1.8-1.8,1.8h-6.1
		c-1,0-1.8-0.8-1.8-1.8v-3.6c0-1,0.8-1.8,1.8-1.8h6.1c1,0,1.8,0.8,1.8,1.8V18.8z M34,28.5c0,1-0.8,1.8-1.8,1.8h-6.1
		c-1,0-1.8-0.8-1.8-1.8v-3.6c0-1,0.8-1.8,1.8-1.8h6.1c1,0,1.8,0.8,1.8,1.8V28.5z"/>
</g>
<g>
</g>
<g>
</g>
<g>
</g>
<g>
</g>
<g>
</g>
<g>
</g>
</svg>
