<?xml version="1.0" encoding="utf-8"?>
<!-- Generator: Adobe Illustrator 19.1.0, SVG Export Plug-In . SVG Version: 6.00 Build 0)  -->
<svg version="1.1" id="Layer_1" xmlns="http://www.w3.org/2000/svg" xmlns:xlink="http://www.w3.org/1999/xlink" x="0px" y="0px"
	 viewBox="0 0 34 34" enable-background="new 0 0 34 34" xml:space="preserve">
<g>
	<path d="M31.7,19c0.1,0.4,0.2,0.9,0.2,1.4c0,1-0.3,2-0.8,2.9c0,0.3,0.1,0.6,0.1,0.9c0,1.3-0.4,2.6-1.2,3.6c0,3.9-2.6,6.1-6.4,6.1
		h-0.7h-1.9c-2.9,0-5.6-0.9-8.3-1.8c-0.6-0.2-2.2-0.8-2.8-0.8H3.9c-1.5,0-2.6-1.2-2.6-2.6V15.7c0-1.5,1.2-2.6,2.6-2.6h5.6
		c0.8-0.5,2.2-2.4,2.8-3.2C13,9,13.7,8.1,14.5,7.3c1.2-1.3,0.6-4.5,2.6-6.5C17.6,0.3,18.3,0,19,0c2.1,0,4.2,0.8,5.2,2.7
		c0.6,1.2,0.7,2.4,0.7,3.8c0,1.4-0.4,2.7-1,3.9h3.6c2.8,0,5.2,2.4,5.2,5.2C32.7,16.9,32.3,18,31.7,19z M5.2,26.2
		c-0.7,0-1.3,0.6-1.3,1.3c0,0.7,0.6,1.3,1.3,1.3s1.3-0.6,1.3-1.3C6.5,26.7,5.9,26.2,5.2,26.2z M27.5,13.1h-7.2c0-2.4,2-4.1,2-6.5
		c0-2.4-0.5-3.9-3.3-3.9c-1.3,1.3-0.6,4.5-2.6,6.5c-0.6,0.6-1.1,1.2-1.6,1.9c-0.9,1.2-3.4,4.7-5,4.7H9.2v13.1h0.7
		c1.1,0,3,0.7,4.1,1.1c2.2,0.8,4.6,1.5,7,1.5h2.5c2.3,0,3.9-0.9,3.9-3.4c0-0.4,0-0.8-0.1-1.1c0.9-0.5,1.3-1.6,1.3-2.6
		c0-0.5-0.1-1-0.4-1.4c0.7-0.7,1.1-1.5,1.1-2.4c0-0.7-0.3-1.6-0.7-2.1c1,0,1.5-1.9,1.5-2.6C30.1,14.3,28.8,13.1,27.5,13.1z"/>
</g>
<g>
</g>
<g>
</g>
<g>
</g>
<g>
</g>
<g>
</g>
<g>
</g>
</svg>
