<?xml version="1.0" encoding="utf-8"?>
<!-- Generator: Adobe Illustrator 19.0.1, SVG Export Plug-In . SVG Version: 6.00 Build 0)  -->
<svg version="1.1" id="Layer_1" xmlns="http://www.w3.org/2000/svg" xmlns:xlink="http://www.w3.org/1999/xlink" x="0px" y="0px"
	 viewBox="0 0 34 34" enable-background="new 0 0 34 34" xml:space="preserve">
<g id="XMLID_1_">
	<path id="XMLID_2_" d="M31.6,6.1v17c0,3.3-3.6,5.9-8.2,6.1l4,3.8c0.4,0.4,0.1,1-0.4,1H7c-0.6,0-0.8-0.7-0.4-1l4-3.8
		c-4.6-0.1-8.2-2.8-8.2-6.1v-17C2.4,2.7,6.2,0,10.9,0h12.1C27.8,0,31.6,2.7,31.6,6.1z M27.9,4.9H6.1v9.7h21.9V4.9z M20.6,21.9
		c0-2-1.6-3.6-3.6-3.6s-3.6,1.6-3.6,3.6s1.6,3.6,3.6,3.6S20.6,23.9,20.6,21.9z"/>
</g>
<g id="XMLID_6_">
</g>
<g id="XMLID_7_">
</g>
<g id="XMLID_8_">
</g>
<g id="XMLID_9_">
</g>
<g id="XMLID_10_">
</g>
<g id="XMLID_11_">
</g>
</svg>
