<?xml version="1.0" encoding="utf-8"?>
<!-- Generator: Adobe Illustrator 19.0.0, SVG Export Plug-In . SVG Version: 6.00 Build 0)  -->
<svg version="1.1" id="Layer_1" xmlns="http://www.w3.org/2000/svg" xmlns:xlink="http://www.w3.org/1999/xlink" x="0px" y="0px"
	 viewBox="0 0 34 34" enable-background="new 0 0 34 34" xml:space="preserve">
<g id="XMLID_1_">
	<path id="XMLID_2_" d="M32.6,7.8c0,0.4-0.3,0.7-0.7,0.7h-2.1v21c0,2.4-1.6,4.5-3.5,4.5H7.8c-1.9,0-3.5-2-3.5-4.4V8.5H2.1
		c-0.4,0-0.7-0.3-0.7-0.7V6.4c0-0.4,0.3-0.7,0.7-0.7H9L10.5,2c0.4-1.1,1.8-2,2.9-2h7.1c1.2,0,2.5,0.9,2.9,2L25,5.7h6.8
		c0.4,0,0.7,0.3,0.7,0.7V7.8z M26.9,8.5H7.1v21c0,1.1,0.6,1.7,0.7,1.7h18.4c0.1,0,0.7-0.6,0.7-1.7V8.5z M12.8,26.2
		c0,0.4-0.3,0.7-0.7,0.7h-1.4c-0.4,0-0.7-0.3-0.7-0.7V13.5c0-0.4,0.3-0.7,0.7-0.7H12c0.4,0,0.7,0.3,0.7,0.7V26.2z M22,5.7l-1.1-2.6
		c-0.1-0.1-0.3-0.2-0.4-0.2h-7c-0.1,0-0.3,0.2-0.4,0.2L12,5.7H22z M18.4,26.2c0,0.4-0.3,0.7-0.7,0.7h-1.4c-0.4,0-0.7-0.3-0.7-0.7
		V13.5c0-0.4,0.3-0.7,0.7-0.7h1.4c0.4,0,0.7,0.3,0.7,0.7V26.2z M24.1,26.2c0,0.4-0.3,0.7-0.7,0.7H22c-0.4,0-0.7-0.3-0.7-0.7V13.5
		c0-0.4,0.3-0.7,0.7-0.7h1.4c0.4,0,0.7,0.3,0.7,0.7V26.2z"/>
</g>
<g id="XMLID_9_">
</g>
<g id="XMLID_10_">
</g>
<g id="XMLID_11_">
</g>
<g id="XMLID_12_">
</g>
<g id="XMLID_13_">
</g>
<g id="XMLID_14_">
</g>
</svg>
