<?xml version="1.0" encoding="utf-8"?>
<!-- Generator: Adobe Illustrator 19.0.0, SVG Export Plug-In . SVG Version: 6.00 Build 0)  -->
<svg version="1.1" id="Layer_1" xmlns="http://www.w3.org/2000/svg" xmlns:xlink="http://www.w3.org/1999/xlink" x="0px" y="0px"
	 viewBox="0 0 34 34" enable-background="new 0 0 34 34" xml:space="preserve">
<g id="XMLID_1_">
	<path id="XMLID_2_" d="M34,27.6c0,3.5-2.9,6.4-6.4,6.4H6.4C2.9,34,0,31.1,0,27.6V6.4C0,2.9,2.9,0,6.4,0h21.2C31.1,0,34,2.9,34,6.4
		V27.6z M25.7,11.4c1-0.6,1.7-1.5,2.1-2.6c-0.9,0.5-1.9,0.9-3,1.1c-0.8-0.9-2.1-1.5-3.4-1.5c-2.6,0-4.6,2.1-4.6,4.6
		c0,0.4,0,0.7,0.1,1.1c-3.9-0.2-7.3-2-9.6-4.9c-0.4,0.7-0.6,1.5-0.6,2.3c0,1.6,0.8,3,2,3.9c-0.8,0-1.5-0.2-2.2-0.6c0,0,0,0,0,0
		c0,2.3,1.7,4.1,3.8,4.6c-0.4,0.1-0.7,0.2-1.1,0.2c-0.3,0-0.6,0-0.9-0.1c0.6,1.8,2.3,3.2,4.3,3.2c-1.6,1.2-3.6,2-5.8,2
		c-0.4,0-0.8,0-1.1-0.1c2.1,1.3,4.5,2.1,7.1,2.1c8.5,0,13.2-7.1,13.2-13.2c0-0.2,0-0.4,0-0.6c0.9-0.6,1.7-1.5,2.3-2.4
		C27.5,11,26.6,11.3,25.7,11.4z"/>
</g>
<g id="XMLID_5_">
</g>
<g id="XMLID_6_">
</g>
<g id="XMLID_7_">
</g>
<g id="XMLID_8_">
</g>
<g id="XMLID_9_">
</g>
<g id="XMLID_10_">
</g>
</svg>
