<?xml version="1.0" encoding="utf-8"?>
<!-- Generator: Adobe Illustrator 19.0.0, SVG Export Plug-In . SVG Version: 6.00 Build 0)  -->
<svg version="1.1" id="Layer_1" xmlns="http://www.w3.org/2000/svg" xmlns:xlink="http://www.w3.org/1999/xlink" x="0px" y="0px"
	 viewBox="0 0 34 34" enable-background="new 0 0 34 34" xml:space="preserve">
<g id="XMLID_44_">
	<path id="XMLID_45_" d="M19.1,30.1v3.3c0,0.3-0.3,0.6-0.6,0.6h-2.6c-0.3,0-0.6-0.3-0.6-0.6v-3.3c-4.4-0.6-6.9-3.3-7-3.4
		c-0.2-0.2-0.2-0.6,0-0.8l2-2.6c0.1-0.1,0.3-0.2,0.4-0.2c0.2,0,0.3,0,0.5,0.2c0,0,2.7,2.6,6.1,2.6c1.9,0,3.9-1,3.9-3.1
		c0-1.8-2.2-2.7-4.8-3.7c-3.4-1.3-7.7-3.1-7.7-7.8c0-3.5,2.7-6.4,6.7-7.1V0.6c0-0.3,0.3-0.6,0.6-0.6h2.6c0.3,0,0.6,0.3,0.6,0.6v3.3
		c3.9,0.4,5.9,2.5,6,2.6c0.2,0.2,0.2,0.5,0.1,0.7L23.6,10c-0.1,0.2-0.2,0.3-0.4,0.3c-0.2,0-0.4,0-0.5-0.1c0,0-2.3-2-5.2-2
		c-2.4,0-4.1,1.2-4.1,2.9c0,2,2.3,2.9,5,3.9c3.5,1.3,7.4,2.9,7.4,7.5C25.8,26.4,23.1,29.4,19.1,30.1z"/>
</g>
<g id="XMLID_1_">
</g>
<g id="XMLID_6_">
</g>
<g id="XMLID_15_">
</g>
<g id="XMLID_43_">
</g>
<g id="XMLID_47_">
</g>
<g id="XMLID_48_">
</g>
</svg>
