<?xml version="1.0" encoding="utf-8"?>
<!-- Generator: Adobe Illustrator 19.1.0, SVG Export Plug-In . SVG Version: 6.00 Build 0)  -->
<svg version="1.1" id="Layer_1" xmlns="http://www.w3.org/2000/svg" xmlns:xlink="http://www.w3.org/1999/xlink" x="0px" y="0px"
	 viewBox="0 0 34 34" enable-background="new 0 0 34 34" xml:space="preserve">
<g>
	<polygon points="9.4,15.6 9.4,15.6 9.3,16.1 8.9,17.3 9.8,17.3 9.5,16.1 	"/>
	<path d="M12.7,15.5c-0.2,0-0.3,0-0.4,0v1.2h0.4c0.4,0,0.7-0.2,0.7-0.6C13.4,15.7,13.2,15.5,12.7,15.5z"/>
	<path d="M16,15.5c-0.2,0-0.3,0-0.4,0v1.2H16c0.4,0,0.7-0.2,0.7-0.6C16.7,15.7,16.4,15.5,16,15.5z"/>
	<polygon points="19.4,15.6 19.4,15.6 19.3,16.1 19,17.3 19.9,17.3 19.5,16.1 	"/>
</g>
<path d="M31.6,20.9c0.4-1.3,2.4-2.5,2.4-3.9c0-1.4-2.1-2.6-2.4-3.9c-0.4-1.4,0.9-3.4,0.2-4.6c-0.7-1.2-3.1-1.2-4.1-2.2
	c-1-1-0.9-3.4-2.2-4.1c-1.2-0.7-3.2,0.5-4.6,0.2C19.6,2.1,18.4,0,17,0c-1.4,0-2.6,2.1-3.9,2.4c-1.4,0.4-3.4-0.9-4.6-0.2
	C7.3,3,7.3,5.4,6.3,6.3c-1,1-3.4,0.9-4.1,2.2c-0.7,1.2,0.5,3.2,0.2,4.6C2.1,14.4,0,15.6,0,17c0,1.4,2.1,2.6,2.4,3.9
	c0.4,1.4-0.9,3.4-0.2,4.6c0.7,1.2,3.1,1.2,4.1,2.2c1,1,0.9,3.4,2.2,4.1c1.2,0.7,3.2-0.5,4.6-0.2c1.3,0.4,2.5,2.4,3.9,2.4
	c1.4,0,2.6-2.1,3.9-2.4c1.4-0.4,3.4,0.9,4.6,0.2c1.2-0.7,1.2-3.1,2.2-4.1c1-1,3.4-0.9,4.1-2.2C32.4,24.3,31.2,22.3,31.6,20.9z
	 M5.4,11.9C7.4,7.3,12,4.3,17,4.3c5,0,9.6,3,11.6,7.6c0.1,0.3,0,0.6-0.3,0.8s-0.6,0-0.8-0.3c-1.8-4.2-6-6.9-10.6-6.9
	c-4.6,0-8.7,2.7-10.6,6.9c-0.1,0.2-0.3,0.3-0.5,0.3c-0.1,0-0.2,0-0.2,0C5.4,12.6,5.3,12.2,5.4,11.9z M25.2,15.6
	c-0.1,0-0.1-0.1-0.1-0.1l0-0.4c0-0.1,0.1-0.1,0.1-0.1h2.6c0.1,0,0.1,0.1,0.1,0.1l0,0.4c0,0.1-0.1,0.1-0.1,0.1h-0.9v3.1
	c0,0.1-0.1,0.1-0.1,0.1h-0.6c-0.1,0-0.1-0.1-0.1-0.1v-3.1H25.2z M22.3,17.2v1.5c0,0.1-0.1,0.1-0.1,0.1h-0.5c-0.1,0-0.1-0.1-0.1-0.1
	v-3.7c0-0.1,0.1-0.1,0.1-0.1h0.7c0.1,0,0.1,0,0.2,0.1c0.5,0.9,1,1.8,1.4,2.7l0-1.2v-1.5c0-0.1,0.1-0.1,0.1-0.1h0.5
	c0.1,0,0.1,0.1,0.1,0.1v3.7c0,0.1-0.1,0.1-0.1,0.1h-0.6c-0.1,0-0.1,0-0.2-0.1c-0.8-1.4-1.2-2.1-1.5-2.7L22.3,17.2z M21.1,18.8
	c0,0.1,0,0.1-0.1,0.1h-0.6c-0.1,0-0.1,0-0.2-0.1L20,17.9h-1.1c0,0.2-0.2,0.6-0.3,0.9c0,0.1-0.1,0.1-0.2,0.1h-0.6
	c-0.1,0-0.1-0.1-0.1-0.1l1.1-3.7c0-0.1,0.1-0.1,0.2-0.1h0.8c0.1,0,0.1,0,0.2,0.1L21.1,18.8z M17.6,18.8c0,0,0,0.1-0.1,0.1h-0.6
	c-0.1,0-0.1,0-0.2-0.1l-0.7-1.5h-0.5v1.5c0,0.1-0.1,0.1-0.1,0.1h-0.5c-0.1,0-0.1-0.1-0.1-0.1v-3.7c0-0.1,0.1-0.1,0.1-0.1
	c0.3,0,0.7,0,1,0c1,0,1.5,0.4,1.5,1.1c0,0.5-0.3,0.9-0.7,1L17.6,18.8z M14.3,18.8c0,0,0,0.1-0.1,0.1h-0.6c-0.1,0-0.1,0-0.2-0.1
	l-0.7-1.5h-0.5v1.5c0,0.1-0.1,0.1-0.1,0.1h-0.5c-0.1,0-0.1-0.1-0.1-0.1v-3.7c0-0.1,0.1-0.1,0.1-0.1c0.3,0,0.7,0,1,0
	c1,0,1.5,0.4,1.5,1.1c0,0.5-0.3,0.9-0.7,1L14.3,18.8z M11.1,18.8c0,0.1,0,0.1-0.1,0.1h-0.6c-0.1,0-0.1,0-0.2-0.1L10,17.9H8.8
	c0,0.2-0.2,0.6-0.3,0.9c0,0.1-0.1,0.1-0.2,0.1H7.8c-0.1,0-0.1-0.1-0.1-0.1l1.1-3.7c0-0.1,0.1-0.1,0.2-0.1h0.8c0.1,0,0.1,0,0.2,0.1
	L11.1,18.8z M4.6,18.8c0,0.1-0.1,0.1-0.1,0.1H3.8c-0.1,0-0.1,0-0.1-0.1l-0.8-3.7c0-0.1,0-0.1,0.1-0.1h0.6c0.1,0,0.1,0.1,0.1,0.1
	L4,16.7L4.2,18l0.3-1.3l0.3-1.6c0-0.1,0.1-0.1,0.1-0.1h0.6c0.1,0,0.1,0.1,0.1,0.1L6,16.7L6.3,18l0.2-1.3l0.3-1.6
	c0-0.1,0.1-0.1,0.1-0.1h0.6c0.1,0,0.1,0.1,0.1,0.1l-0.8,3.7c0,0.1-0.1,0.1-0.1,0.1H5.9c-0.1,0-0.1-0.1-0.1-0.1l-0.6-2.7L4.6,18.8z
	 M28.7,21.9c-2,4.7-6.6,7.7-11.7,7.7c-5.1,0-9.7-3-11.7-7.7c-0.1-0.3,0-0.6,0.3-0.8c0.3-0.1,0.6,0,0.8,0.3c1.8,4.3,6,7,10.6,7
	c4.6,0,8.8-2.8,10.6-7c0.1-0.3,0.5-0.4,0.8-0.3C28.7,21.2,28.8,21.6,28.7,21.9z M30,17.4v1.4c0,0.1-0.1,0.1-0.1,0.1h-0.6
	c-0.1,0-0.1-0.1-0.1-0.1v-1.4L28,15c0,0,0-0.1,0.1-0.1h0.7c0.1,0,0.1,0,0.2,0.1l0.3,0.8l0.3,0.9l0.3-0.9l0.3-0.8
	c0-0.1,0.1-0.1,0.2-0.1h0.7c0.1,0,0.1,0.1,0.1,0.1L30,17.4z"/>
<g>
</g>
<g>
</g>
<g>
</g>
<g>
</g>
<g>
</g>
<g>
</g>
</svg>
