<?xml version="1.0" encoding="utf-8"?>
<!-- Generator: Adobe Illustrator 19.0.0, SVG Export Plug-In . SVG Version: 6.00 Build 0)  -->
<svg version="1.1" id="Layer_1" xmlns="http://www.w3.org/2000/svg" xmlns:xlink="http://www.w3.org/1999/xlink" x="0px" y="0px"
	 viewBox="0 0 34 34" enable-background="new 0 0 34 34" xml:space="preserve">
<g id="XMLID_1_">
	<path id="XMLID_6_" d="M6.7,33.2C6.3,33.7,5.6,34,4.9,34S3.5,33.7,3,33.2L0.8,31C0.3,30.5,0,29.8,0,29.1s0.3-1.4,0.8-1.9l14.1-14.1
		c1.1,2.7,3.2,4.9,6,6L6.7,33.2z M6.2,26.5c-0.7,0-1.3,0.6-1.3,1.3c0,0.7,0.6,1.3,1.3,1.3s1.3-0.6,1.3-1.3
		C7.5,27.1,6.9,26.5,6.2,26.5z M33.5,12.3c-1.3,3.7-4.8,6.2-8.8,6.2c-5.1,0-9.3-4.2-9.3-9.3S19.6,0,24.8,0c1.5,0,3.5,0.5,4.7,1.3
		c0.2,0.1,0.3,0.3,0.3,0.6c0,0.2-0.1,0.5-0.3,0.6L23.4,6v4.6l4,2.2c0.7-0.4,5.5-3.4,5.9-3.4c0.4,0,0.7,0.3,0.7,0.7
		C34,10.8,33.7,11.7,33.5,12.3z"/>
</g>
<g id="XMLID_2_">
</g>
<g id="XMLID_3_">
</g>
<g id="XMLID_4_">
</g>
<g id="XMLID_5_">
</g>
<g id="XMLID_7_">
</g>
<g id="XMLID_8_">
</g>
</svg>
