<?xml version="1.0" encoding="utf-8"?>
<!-- Generator: Adobe Illustrator 19.0.0, SVG Export Plug-In . SVG Version: 6.00 Build 0)  -->
<svg version="1.1" id="Layer_1" xmlns="http://www.w3.org/2000/svg" xmlns:xlink="http://www.w3.org/1999/xlink" x="0px" y="0px"
	 viewBox="0 0 34 34" enable-background="new 0 0 34 34" xml:space="preserve">
<g id="XMLID_2_">
	<path id="XMLID_3_" d="M34,27.6c0,3.5-2.9,6.4-6.4,6.4H6.4C2.9,34,0,31.1,0,27.6V6.4C0,2.9,2.9,0,6.4,0h21.2C31.1,0,34,2.9,34,6.4
		V27.6z M28.8,17.3c-0.3-1.3-1.4-2.3-2.6-2.4c-3-0.3-6.1-0.3-9.1-0.3c-3,0-6.1,0-9.1,0.3c-1.3,0.1-2.3,1.1-2.6,2.4
		c-0.4,1.8-0.4,3.9-0.4,5.8c0,1.9,0,3.9,0.4,5.8c0.3,1.3,1.3,2.2,2.6,2.4c3,0.3,6.1,0.3,9.1,0.3s6.1,0,9.1-0.3
		c1.3-0.2,2.3-1.1,2.6-2.4c0.4-1.9,0.4-3.9,0.4-5.8C29.2,21.2,29.2,19.1,28.8,17.3z M11.8,19H10v9.4H8.4V19H6.6v-1.5h5.1V19z
		 M14.5,2.1h-1.7l-1.1,4.3l-1.2-4.3H8.8c0.3,1,0.7,2,1,3.1c0.5,1.6,0.9,2.7,1,3.5v4.5h1.6V8.7L14.5,2.1z M16.2,28.3h-1.5v-0.9
		c-0.6,0.7-1.1,1-1.7,1c-0.5,0-0.8-0.2-0.9-0.6C12,27.6,12,27.2,12,26.6v-6.4h1.5v6c0,0.3,0,0.5,0,0.6c0,0.2,0.1,0.3,0.3,0.3
		c0.3,0,0.6-0.2,0.9-0.7v-6.2h1.5V28.3z M18.9,7.6c0-0.9-0.2-1.5-0.5-1.9c-0.4-0.6-1-0.8-1.7-0.8c-0.8,0-1.3,0.3-1.7,0.8
		c-0.3,0.4-0.5,1.1-0.5,1.9v2.9c0,0.9,0.2,1.5,0.5,1.9c0.4,0.6,1,0.8,1.7,0.8c0.7,0,1.3-0.3,1.7-0.8c0.3-0.4,0.5-1.1,0.5-1.9V7.6z
		 M17.4,10.7c0,0.8-0.2,1.1-0.7,1.1c-0.5,0-0.7-0.4-0.7-1.1V7.3c0-0.8,0.2-1.2,0.7-1.2c0.5,0,0.7,0.4,0.7,1.2V10.7z M21.8,25.9
		c0,0.7,0,1.3-0.2,1.6c-0.2,0.6-0.6,0.9-1.2,0.9c-0.5,0-1-0.3-1.5-0.9v0.8h-1.5V17.4H19V21c0.5-0.6,1-0.9,1.5-0.9
		c0.6,0,1,0.3,1.2,0.9c0.1,0.3,0.2,0.9,0.2,1.6V25.9z M20.3,22.5c0-0.7-0.2-1.1-0.6-1.1c-0.2,0-0.5,0.1-0.7,0.4v5
		c0.2,0.2,0.5,0.4,0.7,0.4c0.4,0,0.6-0.4,0.6-1.1V22.5z M24.3,13.1V4.9h-1.5v6.3c-0.3,0.5-0.6,0.7-0.9,0.7c-0.2,0-0.3-0.1-0.4-0.4
		c0,0,0-0.2,0-0.6v-6h-1.5v6.5c0,0.6,0,1,0.1,1.2c0.2,0.4,0.5,0.6,1,0.6c0.6,0,1.1-0.3,1.7-1v0.9H24.3z M27.4,25.7c0,0.5,0,0.8,0,1
		c0,0.3-0.2,0.6-0.3,0.9c-0.4,0.6-1,0.9-1.8,0.9c-0.8,0-1.4-0.3-1.8-0.8c-0.3-0.4-0.5-1-0.5-1.9v-2.9c0-0.9,0.1-1.5,0.4-1.9
		c0.4-0.6,1-0.8,1.8-0.8c0.7,0,1.3,0.3,1.7,0.8c0.3,0.4,0.5,1,0.5,1.9v1.7h-2.9V26c0,0.8,0.2,1.1,0.8,1.1c0.4,0,0.6-0.2,0.7-0.6
		c0-0.1,0-0.4,0-1h1.5V25.7z M25.9,23.3v-0.8c0-0.8-0.2-1.1-0.7-1.1s-0.7,0.4-0.7,1.1v0.8H25.9z"/>
</g>
<g id="XMLID_1_">
</g>
<g id="XMLID_6_">
</g>
<g id="XMLID_15_">
</g>
<g id="XMLID_18_">
</g>
<g id="XMLID_19_">
</g>
<g id="XMLID_20_">
</g>
</svg>
