<?xml version="1.0" standalone="no"?>
<!DOCTYPE svg PUBLIC "-//W3C//DTD SVG 1.1//EN" "http://www.w3.org/Graphics/SVG/1.1/DTD/svg11.dtd" >
<!--
2016-2-12: Created with FontForge (http://fontforge.org)
-->
<svg xmlns="http://www.w3.org/2000/svg" xmlns:xlink="http://www.w3.org/1999/xlink" version="1.1">
<metadata>
Created by FontForge 20150618 at Fri Feb 12 10:22:19 2016
 By Morgan Jeffrey
Copyright (c) 2016, Morgan Jeffrey
</metadata>
<defs>
<font id="fswcustom" horiz-adv-x="512" >
  <font-face 
    font-family="fswcustom"
    font-weight="400"
    font-stretch="normal"
    units-per-em="512"
    panose-1="2 0 5 3 0 0 0 0 0 0"
    ascent="448"
    descent="-64"
    bbox="-0.75 -66 514 448.75"
    underline-thickness="25.6"
    underline-position="-51.2"
    unicode-range="U+0020-F179"
  />
    <missing-glyph />
    <glyph glyph-name="space" unicode=" " horiz-adv-x="200" 
 />
    <glyph glyph-name="uniF169" unicode="&#xf169;" 
d="M142 213l1 -7l5 -19h-14l6 19l2 7v0zM191 215c8 0 11 -3 11 -9s-5 -9 -11 -9h-6v18h6zM241 215c6 0 10 -3 10 -9s-4 -9 -10 -9h-6v18h6zM292 213l2 -7l6 -19h-14l5 19l1 7v0zM476 133c-6 -21 12 -51 3 -69c-11 -20 -47 -18 -62 -33s-15 -51 -33 -62s-48 9 -69 3
c-20 -5 -38 -36 -59 -36s-39 30 -59 36c-21 5 -51 -14 -69 -3c-20 11 -18 47 -33 62s-51 15 -62 33s9 48 3 69c-5 20 -36 38 -36 59s31 39 36 59c5 21 -14 51 -3 69c11 20 47 18 62 33c15 14 15 50 33 62c18 11 48 -9 69 -3c20 5 38 36 59 36s39 -31 59 -36
c21 -5 51 14 69 3c20 -11 18 -47 33 -62s51 -15 62 -33s-9 -48 -3 -69c5 -20 36 -38 36 -59s-30 -39 -36 -59zM81 269c-2 -5 0 -10 3 -12h3c3 0 6 1 8 4c29 63 90 104 159 104s133 -41 160 -104c3 -5 7 -7 12 -4s7 7 5 12c-30 69 -100 114 -175 114s-145 -45 -175 -114z
M379 213h14v-47s0 -1 2 -1h9s1 -1 1 1v47h14s1 0 1 2v6s1 1 -1 1h-40s-1 1 -1 -1v-6s-1 -2 1 -2zM336 189v18c5 -9 10 -20 22 -41c2 -2 1 -1 3 -1h9s2 -1 2 1v56s0 2 -2 2h-7s-2 0 -2 -2v-22v-19c-6 14 -13 27 -21 41c-2 2 -1 2 -3 2h-10s-2 0 -2 -2v-56s0 -1 2 -1h7
s2 -1 2 1v23zM318 165l-17 56c-2 2 -1 1 -3 1h-12c-2 0 -3 1 -3 -1l-16 -56s-1 -2 1 -2h9c2 0 3 0 3 2c2 5 5 10 5 13h16l3 -13c2 -2 1 -2 3 -2h9c2 0 2 0 2 2zM265 165l-14 25c6 2 11 8 11 16c0 11 -8 16 -23 16h-15c0 0 -1 1 -1 -1v-56s-1 -2 1 -2h8s1 0 1 2v22h8l10 -22
c2 -2 1 -2 3 -2h10c2 0 1 2 1 2zM215 165l-13 25c6 2 10 8 10 16c0 11 -7 16 -22 16h-15c0 0 -2 1 -2 -1v-56s0 -2 2 -2h7s2 0 2 2v22h7l11 -22c2 -2 1 -2 3 -2h9c2 0 1 2 1 2zM167 165l-16 56c-2 2 -1 1 -3 1h-12c-2 0 -3 1 -3 -1l-17 -56s-1 -2 1 -2h8c2 0 3 0 3 2
c2 5 5 10 5 13h18l3 -13c2 -2 1 -2 3 -2h9c2 0 1 0 1 2zM69 165l9 41l9 -41s0 -2 2 -2h12s1 0 1 2l12 56s1 1 -1 1h-9s-2 1 -2 -1l-4 -24l-3 -20l-5 20l-6 24s1 1 -1 1h-9s-2 1 -2 -1l-4 -24l-5 -20l-3 20l-4 24s0 1 -2 1h-9c-2 0 -1 1 -1 -1l12 -56c0 -2 -1 -2 1 -2h11
s1 0 1 2zM432 118c2 5 1 10 -4 12s-10 1 -12 -4c-27 -63 -91 -106 -160 -106s-133 41 -160 106c-3 5 -7 6 -12 4c-5 -3 -6 -7 -4 -12c30 -71 99 -116 176 -116s146 45 176 116zM452 186l18 36s0 2 -2 2h-10c-2 0 -3 0 -3 -2l-5 -12l-4 -13l-5 13l-4 12c-2 2 -1 2 -3 2h-11
c-2 0 -1 -2 -1 -2l18 -36v-21s-1 -2 1 -2h9s2 0 2 2v21z" />
    <glyph glyph-name="uniF14F" unicode="&#xf14f;" horiz-adv-x="511" 
d="M392 123l27 -154c2 -14 -3 -21 -12 -21c-3 0 -7 1 -12 3l-140 74l-139 -74c-5 -3 -9 -3 -12 -3c-9 0 -15 7 -12 21l27 154l-111 108c-14 14 -9 26 9 29l155 22l68 142c5 9 9 12 15 12s10 -4 15 -12l69 -140l155 -23c18 -3 23 -14 9 -28zM443 228l-110 17l-19 3l-9 18
l-50 99v-296l18 -10l98 -51l-18 109l-3 19l15 15z" />
    <glyph glyph-name="uniF146" unicode="&#xf146;" horiz-adv-x="511" 
d="M408 190c-18 -18 -39 -35 -62 -55l-6 -119c0 -3 -2 -6 -5 -8l-120 -70c-2 -2 -3 -2 -5 -2c-3 0 -4 1 -7 3l-20 20c-3 3 -3 7 -3 10l27 86l-89 89l-85 -27h-3c-3 0 -6 1 -8 3l-20 19c-3 3 -3 9 -1 12l71 121c2 3 4 4 7 4l119 6c20 23 38 44 56 62c78 78 137 104 247 104
c6 0 10 -5 10 -11c0 -104 -28 -173 -103 -247zM411 377c-17 0 -31 -13 -31 -30s14 -30 31 -30s30 13 30 30s-13 30 -30 30z" />
    <glyph glyph-name="uniF115" unicode="&#xf115;" 
d="M256 -64c-142 0 -256 114 -256 256s114 256 256 256s256 -114 256 -256s-114 -256 -256 -256zM390 177c9 9 9 21 0 30l-151 151c-9 9 -21 9 -30 0l-34 -35c-9 -9 -9 -21 0 -30l102 -103l-102 -102c-9 -9 -9 -21 0 -30l34 -35c9 -9 21 -9 30 0z" />
    <glyph glyph-name="uniF174" unicode="&#xf174;" 
d="M123 117l-33 -33c11 -5 23 -11 35 -23c11 -12 18 -24 23 -35l33 33c-2 8 -6 24 -20 38s-30 18 -38 20zM340 334l-170 -171c11 -5 23 -10 35 -22c11 -12 17 -24 22 -35l20 20c0 18 20 51 50 81s63 50 81 50l20 19c-2 8 -6 24 -20 38s-30 18 -38 20zM423 416l-36 -36
c11 -5 23 -10 35 -22c11 -12 18 -24 21 -36l37 37c-2 8 -5 24 -19 38s-30 17 -38 19zM63 62l-10 13l372 373c3 0 6 -2 9 -2c14 -3 31 -9 49 -27c17 -18 24 -35 27 -49c0 -5 2 -6 2 -9l-372 -374l-12 12l-114 -63l-8 8l-6 6z" />
    <glyph glyph-name="uniF133" unicode="&#xf133;" horiz-adv-x="509" 
d="M501 -22l-31 -31c-8 -8 -16 -11 -27 -11s-19 5 -27 11l-107 106c-8 8 -11 17 -11 28s4 20 12 28l-75 75l-38 -37c-3 -3 -5 -5 -10 -5s-8 2 -11 5c9 -9 17 -15 17 -29c0 -8 -3 -14 -8 -19c-11 -11 -21 -24 -36 -24c-8 0 -14 2 -19 7l-121 121c-6 6 -9 13 -9 21
c0 17 14 27 26 36c5 6 11 9 19 9c14 0 20 -8 29 -17c-3 3 -5 6 -5 11s2 7 5 10l102 103c3 3 6 4 11 4s7 -1 10 -4c-9 9 -16 14 -16 28c0 8 2 15 7 20c11 11 21 24 36 24c8 0 15 -3 20 -8l120 -120c6 -6 8 -12 8 -20c0 -17 -14 -27 -26 -36c-6 -6 -11 -7 -19 -7
c-14 0 -20 7 -29 16c3 -3 5 -5 5 -10s-2 -8 -5 -11l-37 -37l75 -76c8 8 16 12 28 12c11 0 20 -4 28 -10l106 -107c8 -8 11 -16 11 -27s-2 -21 -8 -29z" />
    <glyph glyph-name="uniF16E" unicode="&#xf16e;" 
d="M491 228h-17c-6 0 -10 1 -15 6s-6 9 -6 15v66l-180 -180c-8 -8 -20 -7 -28 1l-15 15c-8 8 -9 19 -1 27l181 181h-67c-6 0 -10 1 -15 6s-6 9 -6 15v17c0 6 1 10 6 15s9 6 15 6h148c6 0 10 -1 15 -6s6 -9 6 -15v-148c0 -6 -3 -10 -6 -15c-5 -3 -9 -6 -15 -6zM369 168
c0 3 0 4 3 6l38 38c5 5 12 1 12 -5v-170c0 -39 -32 -71 -71 -71h-280c-39 0 -71 32 -71 71v221c0 39 32 72 71 70h233c6 0 10 -8 5 -13l-38 -37s-2 -2 -4 -2h-196c-11 0 -18 -9 -18 -18v-221c0 -11 9 -18 18 -18h280c11 0 18 9 18 18v131z" />
    <glyph glyph-name="uniF10D" unicode="&#xf10d;" horiz-adv-x="288" 
d="M288 -32c0 -18 -15 -32 -32 -32c-9 0 -17 3 -23 9l-224 224c-6 6 -9 14 -9 23s3 17 9 23l223 224c6 6 14 9 22 9c18 0 32 -15 32 -32v-448h2z" />
    <glyph glyph-name="uniF160" unicode="&#xf160;" horiz-adv-x="473" 
d="M458 162c2 -6 3 -13 3 -21c0 -15 -4 -30 -12 -44c0 -5 1 -8 1 -13c0 -20 -6 -40 -18 -55c0 -59 -39 -91 -96 -91h-11h-28c-44 0 -84 13 -125 27c-9 3 -33 12 -42 12h-91c-23 0 -39 18 -39 39v196c0 23 18 39 39 39h84c12 8 34 36 43 48c11 14 21 27 33 39
c18 20 9 68 39 98c8 8 18 12 29 12c32 0 63 -12 78 -41c9 -18 10 -36 10 -57s-6 -41 -15 -59h55c42 0 78 -36 78 -78c0 -20 -6 -36 -15 -51zM59 53c-11 0 -20 -8 -20 -19s9 -20 20 -20s19 9 19 20c0 12 -8 19 -19 19zM395 251h-109c0 36 30 62 30 98s-7 58 -49 58
c-20 -20 -10 -68 -40 -98c-9 -9 -16 -17 -24 -28c-14 -18 -51 -71 -75 -71h-9v-197h11c17 0 44 -11 61 -17c33 -12 70 -22 106 -22h37c35 0 59 13 59 51c0 6 1 11 -1 16c14 8 19 25 19 40c0 8 -1 15 -6 21c11 11 17 22 17 36c0 11 -5 23 -11 31c15 0 23 29 23 40
c0 24 -19 42 -39 42z" />
    <glyph glyph-name="uniF12D" unicode="&#xf12d;" 
d="M87 157h-36c-27 0 -51 13 -51 43c0 21 -2 94 33 94c6 0 33 -22 69 -22c12 0 25 1 37 6c-2 -6 -2 -12 -2 -18c0 -24 7 -48 21 -68c-27 -2 -53 -12 -71 -35zM102 294c-38 0 -67 30 -67 68s29 68 67 68s68 -30 68 -68s-30 -68 -68 -68zM372 -47h-232c-42 0 -71 25 -71 69
c0 60 14 152 92 152c9 0 42 -38 95 -38s86 38 95 38c78 0 92 -92 92 -152c2 -42 -27 -69 -71 -69zM256 157c-57 0 -102 46 -102 103s45 102 102 102s102 -45 102 -102s-45 -103 -102 -103zM410 294c-38 0 -68 30 -68 68s30 68 68 68s67 -30 67 -68s-29 -68 -67 -68zM461 157
h-36c-18 21 -44 33 -71 35c14 20 21 44 21 68c0 6 0 12 -2 18c12 -5 23 -6 37 -6c36 0 63 22 69 22c35 0 33 -71 33 -94c0 -29 -25 -43 -51 -43z" />
    <glyph glyph-name="uniF138" unicode="&#xf138;" 
d="M512 341c0 -12 -9 -21 -21 -21h-470c-12 0 -21 9 -21 21v44c0 12 9 21 21 21h470c12 0 21 -9 21 -21v-44zM512 171c0 -12 -9 -21 -21 -21h-470c-12 0 -21 9 -21 21v42c0 12 9 21 21 21h470c12 0 21 -9 21 -21v-42zM512 -1c0 -12 -9 -21 -21 -21h-470c-12 0 -21 9 -21 21
v42c0 12 9 21 21 21h470c12 0 21 -9 21 -21v-42z" />
    <glyph glyph-name="uniF148" unicode="&#xf148;" 
d="M512 427l-74 -438c-2 -6 -4 -11 -9 -14c-3 -2 -6 -3 -9 -3s-4 0 -7 2l-128 52l-70 -84c-3 -5 -8 -6 -13 -6c-2 0 -4 0 -6 2c-8 3 -12 8 -12 16v99l245 303l-304 -263l-113 46c-8 2 -12 7 -12 15s3 14 9 17l476 274c3 2 6 3 9 3s7 -1 10 -3c6 -5 10 -10 8 -18z" />
    <glyph glyph-name="uniF14C" unicode="&#xf14c;" horiz-adv-x="494" 
d="M38 145c-21 0 -38 17 -38 38s17 38 38 38s37 -17 37 -38s-16 -38 -37 -38zM99 282c-26 0 -46 21 -46 47s20 47 46 47s47 -21 47 -47s-21 -47 -47 -47zM99 -2c-21 0 -37 16 -37 37s16 38 37 38s38 -17 38 -38s-17 -37 -38 -37zM247 334c-32 0 -57 25 -57 57s25 57 57 57
s57 -25 57 -57s-25 -57 -57 -57zM247 -64c-21 0 -38 17 -38 38s17 37 38 37s38 -16 38 -37s-17 -38 -38 -38zM395 264c-36 0 -67 31 -67 67s31 66 67 66s66 -30 66 -66c0 -38 -30 -67 -66 -67zM395 -2c-21 0 -38 16 -38 37s17 38 38 38s37 -17 37 -38s-16 -37 -37 -37z
M456 145c-21 0 -37 17 -37 38s16 38 37 38s38 -17 38 -38s-18 -38 -38 -38z" />
    <glyph glyph-name="uniF13B" unicode="&#xf13b;" 
d="M512 32c0 -53 -43 -96 -96 -96h-320c-53 0 -96 43 -96 96v320c0 53 43 96 96 96h320c53 0 96 -43 96 -96v-320zM426 213c0 12 -9 21 -21 21h-298c-12 0 -21 -9 -21 -21v-42c0 -12 9 -21 21 -21h298c12 0 21 9 21 21v42z" />
    <glyph glyph-name="uniF136" unicode="&#xf136;" horiz-adv-x="340" 
d="M330 218l-122 -258c-8 -15 -23 -24 -38 -24s-31 9 -37 24l-122 258c-9 18 -11 39 -11 60c0 93 75 170 170 170s170 -77 170 -170c0 -21 -1 -42 -10 -60zM170 362c-47 0 -86 -38 -86 -86s39 -84 86 -84s86 38 86 86s-39 84 -86 84z" />
    <glyph glyph-name="uniF176" unicode="&#xf176;" horiz-adv-x="279" 
d="M227 350c-6 0 -10 -4 -10 -10v-20c0 -6 4 -11 10 -11s11 5 11 11v20c0 6 -5 10 -11 10zM227 251c-6 0 -10 -4 -10 -9v-39c0 -5 4 -9 10 -9s11 3 11 9v39c0 5 -5 9 -11 9zM0 290v119c0 21 18 39 41 39h197c21 0 39 -18 39 -39v-118h-277v-1zM0 270h279v-275
c0 -21 -19 -39 -40 -39v-9c0 -6 -4 -11 -10 -11s-11 5 -11 11v9h-158v-9c0 -6 -4 -11 -10 -11s-11 5 -11 11v9c-21 0 -39 16 -39 39v275z" />
    <glyph glyph-name="uniF14B" unicode="&#xf14b;" 
d="M256 -64c-142 0 -256 114 -256 256s114 256 256 256s256 -114 256 -256s-114 -256 -256 -256zM256 406c-117 0 -214 -97 -214 -214s97 -214 214 -214s214 97 214 214s-97 214 -214 214zM170 234c-24 0 -42 19 -42 42s19 42 42 42s42 -19 42 -42s-18 -42 -42 -42zM256 43
c-56 0 -105 36 -122 90c-3 12 3 22 14 27c11 3 22 -2 27 -13c11 -36 43 -60 81 -60s70 24 81 60c3 12 15 18 27 13c11 -3 19 -15 14 -27c-17 -54 -66 -90 -122 -90zM342 234c-24 0 -42 19 -42 42s19 42 42 42c24 0 42 -19 42 -42s-19 -42 -42 -42z" />
    <glyph glyph-name="uniF12A" unicode="&#xf12a;" 
d="M512 352v-320c0 -53 -43 -96 -96 -96h-64v199h67l10 77h-77v49c0 23 6 38 38 38h41v69c-8 2 -32 3 -59 3c-59 0 -99 -36 -99 -102v-57h-67v-77h67v-199h-177c-53 0 -96 43 -96 96v320c0 53 43 96 96 96h320c53 0 96 -43 96 -96z" />
    <glyph glyph-name="uniF10F" unicode="&#xf10f;" 
d="M480 47h-448c-18 0 -32 15 -32 32c0 9 3 17 9 23l224 224c6 6 14 9 23 9s17 -3 23 -9l224 -224c6 -6 9 -14 9 -23c0 -17 -15 -32 -32 -32z" />
    <glyph glyph-name="uniF16C" unicode="&#xf16c;" 
d="M256 -64c-142 0 -256 114 -256 256s114 256 256 256s256 -114 256 -256s-114 -256 -256 -256zM426 213c0 12 -9 21 -21 21h-167l63 63c5 5 6 9 6 15s-3 11 -6 16l-30 30c-5 5 -9 6 -15 6s-10 -1 -15 -6l-121 -121l-30 -30c-5 -5 -6 -9 -6 -15s1 -10 6 -15l30 -30
l121 -121c5 -5 9 -6 15 -6s10 1 15 6l30 30c5 5 6 10 6 16s-1 10 -6 15l-63 63h167c12 0 21 9 21 21v42z" />
    <glyph glyph-name="uniF125" unicode="&#xf125;" 
d="M422 218l-282 -282h-140v140l282 282zM154 10l-80 80l-30 -31v-36h43v-43h36zM292 300c-2 0 -4 0 -6 -3l-184 -182c-2 -2 -3 -3 -3 -6c0 -5 3 -7 8 -7c2 0 4 0 6 3l184 183c2 2 3 3 3 6s-3 6 -8 6zM500 294l-56 -55l-140 140l56 55c8 8 19 14 30 14c12 0 22 -5 30 -14
l80 -79c8 -8 12 -19 12 -30s-4 -23 -12 -31z" />
    <glyph glyph-name="uniF107" unicode="&#xf107;" horiz-adv-x="509" 
d="M254 -64c-142 0 -254 114 -254 256s112 256 254 256s255 -114 255 -256s-113 -256 -255 -256zM354 343c-29 20 -64 30 -100 30c-99 0 -180 -82 -180 -181c0 -36 10 -70 30 -99zM407 290l-252 -250c29 -18 61 -30 99 -30c99 0 181 81 181 182c0 36 -10 69 -28 98z" />
    <glyph glyph-name="uniF170" unicode="&#xf170;" 
d="M256 448c142 0 256 -114 256 -256s-114 -256 -256 -256s-256 114 -256 256s114 256 256 256zM363 178c5 5 6 9 6 12c0 6 -3 11 -6 14l-128 128c-5 5 -9 6 -14 6c-9 0 -18 -7 -18 -18v-258c0 -9 7 -18 18 -18c6 0 11 3 14 6z" />
    <glyph glyph-name="uniF117" unicode="&#xf117;" horiz-adv-x="511" 
d="M271 34c-8 -8 -21 -8 -29 0l-236 235c-8 8 -8 20 0 28l52 53c8 8 21 8 29 0l169 -169l168 169c8 8 21 8 29 0l53 -53c8 -8 8 -20 0 -28z" />
    <glyph glyph-name="uniF178" unicode="&#xf178;" 
d="M510 154c3 -9 2 -14 -3 -19c-2 -2 -3 -3 -6 -3l-24 -9c-8 -3 -14 -2 -19 4l-3 5c-23 57 -58 110 -103 155s-96 78 -155 102l-7 3c-6 6 -7 12 -5 20l9 24c0 2 1 3 3 6c6 6 14 7 23 4c65 -26 122 -64 175 -117c51 -51 89 -110 115 -175zM431 121c5 -12 1 -20 -11 -25
l-420 -160c104 271 158 411 163 420c3 12 12 15 24 9c51 -20 101 -53 146 -98c45 -44 77 -93 98 -146zM181 59c8 8 12 17 12 28s-4 20 -12 28c-8 9 -18 12 -29 12s-19 -4 -27 -12s-12 -16 -12 -27s4 -21 12 -29c8 -9 18 -12 29 -12s19 4 27 12zM253 245c9 9 12 17 12 28
s-4 21 -12 29c-9 8 -18 12 -29 12s-20 -4 -28 -12c-8 -9 -12 -18 -12 -29s4 -20 12 -28c9 -8 17 -12 28 -12s21 4 29 12zM337 105c9 8 12 17 12 28s-4 21 -12 29c-9 8 -17 12 -28 12s-21 -4 -29 -12c-8 -9 -12 -18 -12 -29s4 -20 12 -28c9 -8 18 -12 29 -12s20 4 28 12z" />
    <glyph glyph-name="uniF103" unicode="&#xf103;" 
d="M500 175l-214 -215c-8 -8 -18 -12 -30 -12s-22 4 -30 12l-214 215c-8 8 -12 19 -12 31s4 22 12 30l24 24c8 8 18 12 30 12s22 -4 30 -12l97 -97v231c0 23 19 42 42 42h42c23 0 42 -19 42 -42v-232l97 96c8 8 18 12 30 12s22 -4 30 -12l24 -24c8 -8 12 -18 12 -30
s-4 -21 -12 -29z" />
    <glyph glyph-name="uniF12C" unicode="&#xf12c;" 
d="M512 32c0 -53 -43 -96 -96 -96h-320c-53 0 -96 43 -96 96v320c0 53 43 96 96 96h320c53 0 96 -43 96 -96v-320zM316 373h-89c-56 0 -113 -33 -113 -95c0 -42 33 -72 74 -72c5 0 9 -1 15 1c-3 -6 -4 -12 -4 -18c0 -12 5 -21 13 -32c-29 -2 -60 -6 -86 -21
c-20 -12 -34 -31 -34 -55c0 -50 55 -67 96 -67c51 0 118 26 118 88c0 59 -65 69 -65 98c0 27 50 32 50 88c0 29 -12 44 -32 64h27zM211 35c-35 0 -78 15 -78 56c0 44 50 54 85 54h11c20 -15 48 -31 48 -60c-2 -38 -34 -50 -66 -50zM209 221c-38 0 -55 49 -55 81
c0 26 13 50 40 50c38 0 56 -53 56 -85c2 -26 -12 -46 -41 -46zM426 203v21h-42v43h-21v-42h-42v-21h42v-53h21v53h42v-1z" />
    <glyph glyph-name="uniF127" unicode="&#xf127;" 
d="M512 37c0 -26 -21 -45 -45 -45h-422c-26 0 -45 21 -45 45v310c0 26 21 45 45 45h422c26 0 45 -21 45 -45v-310zM467 356h-422c-5 0 -9 -4 -9 -9c0 -33 16 -60 42 -81c38 -30 77 -61 115 -91c15 -12 42 -39 63 -39v0v0c20 0 48 25 63 39c38 30 77 61 115 91
c18 15 42 47 42 71c0 8 2 19 -9 19zM476 255c-6 -8 -12 -13 -20 -19c-41 -32 -81 -64 -122 -97c-21 -18 -48 -40 -78 -40v0v0c-30 0 -55 22 -78 40c-39 33 -81 65 -122 97c-8 6 -14 11 -20 19v-220c0 -5 4 -9 9 -9h422c5 0 9 4 9 9v220z" />
    <glyph glyph-name="uniF154" unicode="&#xf154;" 
d="M512 32c0 -53 -43 -96 -96 -96h-320c-53 0 -96 43 -96 96v320c0 53 43 96 96 96h320c53 0 96 -43 96 -96v-320zM387 276c15 9 26 22 32 39c-14 -8 -29 -13 -46 -16c-12 14 -31 23 -51 23c-39 0 -69 -32 -69 -70c0 -6 -1 -10 1 -16c-59 3 -109 29 -144 73
c-6 -11 -9 -22 -9 -34c0 -24 12 -45 30 -59c-12 0 -22 3 -33 9v0c0 -35 25 -61 57 -69c-6 -2 -10 -3 -16 -3c-5 0 -9 -1 -14 1c9 -27 35 -48 65 -48c-24 -18 -55 -30 -88 -30c-6 0 -11 0 -16 2c32 -20 68 -32 107 -32c128 0 199 107 199 199v9c14 9 25 22 34 36
c-12 -8 -25 -12 -39 -14z" />
    <glyph glyph-name="uniF101" unicode="&#xf101;" 
d="M256 -64c-142 0 -256 114 -256 256s114 256 256 256s256 -114 256 -256s-114 -256 -256 -256zM422 207l-30 30c-5 5 -10 6 -16 6s-10 -1 -15 -6l-63 -63v167c0 12 -9 21 -21 21h-42c-12 0 -21 -9 -21 -21v-167l-63 63c-5 5 -9 6 -15 6s-11 -1 -16 -6l-30 -30
c-5 -5 -6 -9 -6 -15s1 -10 6 -15l121 -121l30 -30c5 -5 9 -6 15 -6s10 1 15 6l30 30l121 121c5 5 6 9 6 15s-1 10 -6 15z" />
    <glyph glyph-name="uniF104" unicode="&#xf104;" horiz-adv-x="486" 
d="M485 171c0 -23 -15 -42 -39 -42h-232l96 -97c8 -8 12 -18 12 -30c0 -11 -4 -22 -12 -30l-24 -25c-8 -8 -18 -13 -30 -13c-11 0 -22 5 -30 13l-214 215c-8 8 -12 18 -12 30s4 22 12 30l215 214c8 8 19 12 31 12c11 0 21 -4 30 -12l24 -24c8 -8 12 -18 12 -30
s-4 -22 -12 -30l-97 -97h232c24 0 39 -19 39 -42v-42h-1z" />
    <glyph glyph-name="uniF131" unicode="&#xf131;" horiz-adv-x="510" 
d="M488 159c-2 -2 -4 -3 -6 -3c0 0 1 0 -1 0c-3 0 -4 -1 -6 1l-220 184l-220 -182c-2 -2 -4 -4 -7 -2c-3 0 -4 1 -6 3l-20 24c-3 5 -3 11 2 14l227 190c14 11 34 11 48 0l77 -65v62c0 6 5 10 11 10h60c6 0 10 -4 10 -10v-130l70 -57c5 -3 4 -11 1 -14zM437 8
c0 -11 -8 -19 -19 -19h-122v122h-82v-122h-122c-11 0 -19 8 -19 19v152v2l182 152l182 -151v-1v-154z" />
    <glyph glyph-name="uniF173" unicode="&#xf173;" 
d="M6 29c5 18 13 43 27 70s31 54 51 81c21 27 51 49 89 69s80 29 127 29v105l212 -191l-214 -179v122c-78 0 -140 -9 -184 -26c-44 -15 -81 -53 -114 -110z" />
    <glyph glyph-name="uniF10C" unicode="&#xf10c;" 
d="M503 281l-224 -223c-6 -6 -14 -9 -23 -9s-17 3 -23 9l-224 223c-6 6 -9 14 -9 22c0 18 15 32 32 32h448c18 0 32 -15 32 -32c0 -8 -3 -16 -9 -22z" />
    <glyph glyph-name="uniF118" unicode="&#xf118;" horiz-adv-x="328" 
d="M153 192l169 -169c8 -8 8 -20 0 -28l-53 -53c-8 -8 -20 -8 -28 0l-235 236c-8 8 -8 21 0 29l235 235c8 8 20 8 28 0l53 -53c8 -8 8 -20 0 -28z" />
    <glyph glyph-name="uniF175" unicode="&#xf175;" horiz-adv-x="468" 
d="M107 320c0 71 57 128 128 128s128 -57 128 -128s-57 -128 -128 -128s-128 57 -128 128zM248 174h3c3 0 5 -3 5 -6l-5 -24c-2 -3 -4 -6 -7 -6h-20c-3 0 -7 3 -7 6l-5 24c0 3 2 6 5 6h31zM354 213c98 0 116 -116 114 -191c0 -54 -36 -86 -89 -86h-290c-53 0 -89 32 -89 86
c0 75 18 191 116 191c3 0 12 -6 26 -15c2 0 3 -1 3 -3l52 -178l24 107c0 3 2 5 5 5h18c2 0 4 -2 4 -5l25 -107l52 178c2 2 1 3 3 3c12 8 21 15 26 15z" />
    <glyph glyph-name="uniF13D" unicode="&#xf13d;" 
d="M512 352v-320c0 -53 -43 -96 -96 -96h-241c11 15 28 42 36 69c0 0 3 13 18 70c9 -17 35 -32 62 -32c81 0 137 74 137 173c0 75 -64 145 -160 145c-120 0 -181 -86 -181 -158c0 -44 17 -82 53 -97c6 -3 10 0 12 6c2 5 3 15 5 21s2 9 -3 14c-11 12 -17 27 -17 50
c0 63 48 120 125 120c68 0 105 -40 105 -96c0 -72 -31 -134 -79 -134c-26 0 -47 22 -41 49c8 32 23 67 23 91c0 21 -11 37 -35 37c-27 0 -48 -28 -48 -64c0 0 -1 -24 7 -41c-27 -117 -33 -139 -33 -139c-8 -30 -5 -66 -3 -84h-60c-54 0 -98 43 -98 96v320c0 53 43 96 96 96
h320c53 0 96 -43 96 -96z" />
    <glyph glyph-name="uniF129" unicode="&#xf129;" 
d="M512 192c0 -142 -114 -256 -256 -256s-256 114 -256 256s114 256 256 256s256 -114 256 -256zM304 355c0 3 -1 4 -3 6s-4 3 -7 3h-74c-3 0 -6 -1 -8 -3c-3 -2 -3 -3 -3 -6l5 -208c0 -5 4 -9 12 -9h60c6 0 10 3 12 9zM298 96c0 6 -4 10 -10 10h-64c-6 0 -10 -4 -10 -10
v-64c0 -6 4 -10 10 -10h64c6 0 10 4 10 10v64z" />
    <glyph glyph-name="uniF120" unicode="&#xf120;" horiz-adv-x="514" 
d="M202 100c-18 0 -35 2 -50 5c-24 -17 -51 -28 -80 -36c-8 -2 -16 -3 -24 -5c0 0 1 0 -1 0c-5 0 -9 3 -9 9c-2 6 3 9 6 12c11 12 22 24 31 47c-47 27 -75 67 -75 114c0 81 91 148 202 148s200 -67 200 -148s-90 -146 -200 -146zM437 59c9 -24 22 -34 33 -46
c3 -3 8 -7 6 -12s-6 -9 -11 -9c-9 2 -16 2 -24 4c-29 8 -56 19 -80 36c-17 -3 -32 -4 -49 -4c-51 0 -100 14 -136 38c9 0 17 -2 26 -2c62 0 119 18 164 50c48 35 74 81 74 132c0 15 -3 30 -6 44c48 -27 80 -69 80 -116c-2 -47 -32 -88 -77 -115z" />
    <glyph glyph-name="uniF161" unicode="&#xf161;" 
d="M512 -1h-512v386h32v-353h480v-33zM160 64h-64v128h64v-128zM256 64h-63v256h63v-256zM352 64h-63v191h63v-191zM449 64h-63v288h63v-288z" />
    <glyph glyph-name="uniF15D" unicode="&#xf15d;" 
d="M512 44c0 -5 -5 -10 -11 -10h-69v-50c0 -17 -13 -30 -30 -30h-294c-17 0 -30 13 -30 30v50h-67c-5 0 -11 4 -11 10v128c0 32 27 59 59 59h19v167c0 17 13 30 30 30h207c17 0 39 -9 51 -21l47 -46c12 -12 21 -35 21 -52v-78h19c32 0 59 -27 59 -59v-128zM395 192v117h-50
c-17 0 -30 14 -30 31v49h-198v-197h278zM395 -5v78h-278v-78h278zM453 192c-11 0 -19 -9 -19 -20s8 -19 19 -19s20 8 20 19s-9 20 -20 20z" />
    <glyph glyph-name="uniF164" unicode="&#xf164;" horiz-adv-x="514" 
d="M509 276l-92 -92c-2 -2 -4 -3 -6 -3c-5 0 -9 4 -9 9v55h-393c-5 0 -9 4 -9 9v57c0 5 4 9 9 9h393v54c0 5 4 9 9 9c3 0 5 -1 8 -3l91 -92c2 -2 4 -4 4 -6c-2 -2 -3 -4 -5 -6zM512 73c0 -5 -4 -9 -9 -9h-393v-54c0 -5 -4 -9 -9 -9c-3 0 -5 1 -8 3l-91 92s-2 2 -2 4
c0 3 1 4 3 6l92 92c2 2 4 3 6 3c5 0 9 -4 9 -9v-54h393c5 0 9 -4 9 -9v-56z" />
    <glyph glyph-name="uniF116" unicode="&#xf116;" 
d="M256 -64c-142 0 -256 114 -256 256s114 256 256 256s256 -114 256 -256s-114 -256 -256 -256zM422 145c9 9 9 21 0 30l-151 151c-9 9 -21 9 -30 0l-151 -151c-9 -9 -9 -21 0 -30l35 -34c9 -9 21 -9 30 0l103 102l102 -102c9 -9 21 -9 30 0z" />
    <glyph glyph-name="uniF102" unicode="&#xf102;" 
d="M256 -64c-142 0 -256 114 -256 256s114 256 256 256s256 -114 256 -256s-114 -256 -256 -256zM422 207l-30 30l-121 121c-5 5 -9 6 -15 6s-10 -1 -15 -6l-30 -30c-5 -5 -6 -10 -6 -16s1 -10 6 -15l63 -63h-167c-12 0 -21 -9 -21 -21v-42c0 -12 9 -21 21 -21h167l-63 -63
c-5 -5 -6 -9 -6 -15s3 -11 6 -16l30 -30c5 -5 9 -6 15 -6s10 1 15 6l121 121l30 30c5 5 6 9 6 15s-1 10 -6 15z" />
    <glyph glyph-name="uniF159" unicode="&#xf159;" horiz-adv-x="275" 
d="M274 300l-167 -356c-3 -5 -8 -8 -14 -8h-4c-6 2 -11 9 -9 15l60 249l-123 -31h-3c-3 0 -7 1 -9 3c-3 3 -5 7 -5 12l62 253c2 6 5 11 13 11h101c8 0 14 -6 14 -14c0 -2 0 -3 -2 -6l-52 -143l122 30h3c5 0 7 -1 10 -4c5 -2 5 -6 3 -11z" />
    <glyph glyph-name="uniF163" unicode="&#xf163;" 
d="M217 31c8 2 12 8 7 16c-2 3 -4 5 -9 5h-60v0h-60c-2 0 -4 0 -6 -2c-3 -3 -5 -7 -5 -12c0 -3 3 -7 8 -7h9h111h5zM95 138c-9 0 -14 -9 -9 -17c2 -3 4 -4 9 -4h19v0h8h14c8 0 12 9 10 15c-3 5 -5 6 -10 6h-23h-18zM214 94h-119h-3c-3 0 -8 -4 -8 -7c0 -6 1 -9 6 -12
c2 -2 4 -2 6 -2h61v0h60c5 0 7 3 9 8s0 9 -5 12c-2 2 -4 1 -7 1zM512 281v-21v-265v-29c0 -3 0 -7 -3 -10c-5 -5 -9 -8 -15 -8h-29h-152h-57h-236c-5 0 -9 0 -12 3c-5 5 -8 9 -8 15v38v176v101h38h1h56v0v0h111v-110v-3h100v3v47v63h40v0h49h78h1h38zM53 315h42v0h113
c0 2 -1 4 1 7l15 79v0v0l8 36h-42h-100c-6 0 -12 -3 -15 -9c-11 -17 -21 -32 -30 -49c-14 -21 -25 -43 -37 -64h45v0zM304 331v-3v0c0 -2 0 -3 2 -5c0 -3 1 -5 1 -8h39v0h27h44h27h59v-1c-12 20 -24 39 -35 59c-11 18 -20 34 -31 52c-2 8 -7 11 -15 11h-29h-98h-12l21 -105
v0z" />
    <glyph glyph-name="uniF168" unicode="&#xf168;" 
d="M146 311c0 -15 -12 -27 -27 -27h-92c-15 0 -27 12 -27 27v54c0 15 12 27 27 27h92c15 0 27 -12 27 -27v-54zM146 165c0 -15 -12 -27 -27 -27h-92c-15 0 -27 12 -27 27v54c0 15 12 27 27 27h92c15 0 27 -12 27 -27v-54zM146 19c0 -15 -12 -27 -27 -27h-92
c-15 0 -27 12 -27 27v54c0 15 12 27 27 27h92c15 0 27 -12 27 -27v-54zM512 311c0 -15 -12 -27 -27 -27h-274c-15 0 -27 12 -27 27v54c0 15 12 27 27 27h274c15 0 27 -12 27 -27v-54zM512 165c0 -15 -12 -27 -27 -27h-274c-15 0 -27 12 -27 27v54c0 15 12 27 27 27h274
c15 0 27 -12 27 -27v-54zM512 19c0 -15 -12 -27 -27 -27h-274c-15 0 -27 12 -27 27v54c0 15 12 27 27 27h274c15 0 27 -12 27 -27v-54z" />
    <glyph glyph-name="uniF147" unicode="&#xf147;" horiz-adv-x="514" 
d="M473 -64c-11 0 -21 4 -27 12l-106 105c-36 -26 -79 -37 -123 -37c-120 -2 -217 96 -217 215s97 217 217 217s217 -97 217 -217c0 -44 -14 -87 -38 -123l105 -106c8 -8 13 -16 13 -27c-2 -21 -20 -39 -41 -39zM217 370c-75 0 -139 -62 -139 -139s62 -138 139 -138
s138 61 138 138s-63 139 -138 139z" />
    <glyph glyph-name="uniF114" unicode="&#xf114;" 
d="M256 -64c-142 0 -256 114 -256 256s114 256 256 256s256 -114 256 -256s-114 -256 -256 -256zM337 59c9 9 9 22 0 31l-102 102l102 102c9 9 9 22 0 31l-34 33c-9 9 -21 9 -30 0l-151 -151c-9 -9 -9 -21 0 -30l151 -152c9 -9 21 -9 30 0z" />
    <glyph glyph-name="uniF11B" unicode="&#xf11b;" 
d="M256 -64c-142 0 -256 114 -256 256s114 256 256 256s256 -114 256 -256s-114 -256 -256 -256zM42 192c0 -117 97 -214 214 -214s214 97 214 214s-97 214 -214 214s-214 -97 -214 -214z" />
    <glyph glyph-name="uniF122" unicode="&#xf122;" 
d="M512 355v-324c0 -24 -19 -42 -42 -42h-428c-24 0 -42 19 -42 42v324c0 24 19 42 42 42h426c24 0 44 -19 44 -42zM35 355v-61h444v61c0 5 -4 9 -9 9h-428c-5 -2 -7 -4 -7 -9zM477 29v163h-442v-163c0 -5 4 -9 9 -9h426c5 2 7 4 7 9zM68 90h68v-35h-68v35zM170 90h103v-35
h-103v35z" />
    <glyph glyph-name="uniF11D" unicode="&#xf11d;" 
d="M256 -64c-142 0 -256 114 -256 256s114 256 256 256s256 -114 256 -256s-114 -256 -256 -256zM376 132l-60 60l60 60c5 5 6 9 6 15s-3 12 -6 15l-30 30c-5 5 -9 6 -15 6s-10 -3 -15 -6l-60 -60l-60 60c-5 5 -9 6 -15 6s-12 -3 -15 -6l-30 -30c-5 -5 -6 -9 -6 -15
s3 -10 6 -15l60 -60l-60 -60c-5 -5 -6 -9 -6 -15s3 -12 6 -15l30 -30c5 -5 9 -6 15 -6s10 3 15 6l60 60l60 -60c5 -5 9 -6 15 -6s12 3 15 6l30 30c5 5 6 9 6 15s-1 10 -6 15z" />
    <glyph glyph-name="uniF16F" unicode="&#xf16f;" 
d="M512 32c0 -53 -43 -96 -96 -96h-320c-53 0 -96 43 -96 96v320c0 53 43 96 96 96h320c53 0 96 -43 96 -96v-320zM96 352c-3 0 -5 0 -7 -3c-2 -2 -3 -5 -3 -8v-42c0 -6 4 -11 10 -11c139 -5 251 -117 256 -256c0 -6 5 -10 11 -10h42c3 0 6 1 8 3c3 2 3 4 3 7
c-6 173 -147 314 -320 320zM96 224c-3 0 -5 -1 -7 -3s-3 -5 -3 -8v-42c0 -6 4 -11 10 -11c68 -5 123 -60 128 -128c0 -6 5 -10 11 -10h42c3 0 6 1 8 3s3 4 3 7c-6 104 -88 186 -192 192zM128 106c-24 0 -42 -19 -42 -42s19 -42 42 -42s42 19 42 42s-18 42 -42 42z" />
    <glyph glyph-name="uniF166" unicode="&#xf166;" horiz-adv-x="488" 
d="M482 108l-83 -27v-88c0 -3 -1 -5 -3 -7c-3 -2 -6 -4 -9 -2l-84 27l-52 -70c-2 -3 -4 -5 -7 -5s-6 1 -8 3l-51 72l-83 -27c-3 -2 -6 0 -9 2s-3 4 -3 7v88l-82 27c-3 2 -4 3 -6 6s-1 6 1 9l50 69l-51 71c-2 3 -2 6 -2 9c2 3 3 4 6 6l83 27v87c0 3 1 6 3 8c3 2 6 3 9 1
l83 -27l51 71c3 5 12 5 15 0l51 -71l83 27c3 2 6 1 9 -1s3 -5 3 -8v-87l83 -27c3 -2 4 -3 6 -6s0 -6 -2 -9l-48 -71l51 -71c2 -3 2 -6 2 -9c-2 -2 -3 -4 -6 -4zM244 356c-90 0 -164 -74 -164 -164s74 -164 164 -164s164 74 164 164s-74 164 -164 164z" />
    <glyph glyph-name="uniF140" unicode="&#xf140;" horiz-adv-x="509" 
d="M509 157c0 -20 -15 -34 -35 -34h-150v-151c0 -20 -15 -34 -35 -34h-69c-20 0 -35 14 -35 34v151h-150c-20 0 -35 14 -35 34v70c0 20 15 34 35 34h150v151c0 20 15 34 35 34h69c20 0 35 -14 35 -34v-151h150c20 0 35 -14 35 -34v-70z" />
    <glyph glyph-name="uniF135" unicode="&#xf135;" 
d="M54 284c-30 0 -54 24 -54 54s24 54 54 54s54 -24 54 -54s-22 -54 -54 -54zM54 138c-30 0 -54 24 -54 54s24 54 54 54s56 -24 56 -54s-24 -54 -56 -54zM54 -10c-30 0 -54 24 -54 54s24 55 54 55s54 -25 54 -55s-22 -54 -54 -54zM512 311c0 -5 -4 -9 -9 -9h-348
c-5 0 -9 4 -9 9v54c0 5 4 9 9 9h348c5 0 9 -4 9 -9v-54zM512 165c0 -5 -4 -9 -9 -9h-348c-5 0 -9 4 -9 9v54c0 5 4 9 9 9h348c5 0 9 -4 9 -9v-54zM512 19c0 -5 -4 -9 -9 -9h-348c-5 0 -9 4 -9 9v54c0 5 4 9 9 9h348c5 0 9 -4 9 -9v-54z" />
    <glyph glyph-name="uniF11E" unicode="&#xf11e;" 
d="M512 154c0 -5 -4 -10 -9 -12l-62 -9c-3 -11 -7 -21 -13 -30c12 -17 24 -32 36 -47c2 -3 3 -6 3 -9s-1 -5 -3 -7c-8 -11 -53 -60 -65 -60c-3 0 -6 1 -9 3l-47 36c-9 -5 -19 -9 -30 -12c-3 -21 -4 -42 -9 -62c-2 -6 -6 -9 -12 -9h-74c-6 0 -12 5 -12 11l-9 61
c-11 3 -21 7 -30 12l-47 -36c-2 -2 -4 -3 -7 -3s-6 1 -9 3c-18 17 -41 36 -56 56c-2 3 -3 4 -3 7s1 6 3 8c12 15 24 30 35 45c-6 11 -11 21 -14 33l-60 9c-5 3 -9 8 -9 14v74c0 5 4 10 9 12l62 9c3 11 7 21 13 30c-12 17 -24 32 -36 47c-2 3 -3 4 -3 7s1 6 3 8
c8 11 53 60 65 60c3 0 5 -1 7 -3l47 -36c9 5 19 9 30 12c3 21 4 41 9 61c2 6 6 11 12 11h74c6 0 12 -5 12 -11l9 -61c11 -3 21 -7 30 -12l49 36c2 2 4 3 7 3s6 -1 9 -3c18 -17 41 -37 56 -57c2 -2 3 -5 3 -8s-1 -5 -3 -7c-12 -15 -24 -31 -35 -46c6 -11 11 -21 14 -33l60 -9
c6 -2 9 -6 9 -12v-74zM256 278c-47 0 -86 -38 -86 -86s38 -86 86 -86s86 38 86 86s-39 86 -86 86z" />
    <glyph glyph-name="uniF105" unicode="&#xf105;" horiz-adv-x="485" 
d="M473 162l-215 -214c-8 -8 -19 -12 -31 -12c-11 0 -21 4 -30 12l-24 24c-8 8 -12 18 -12 30c0 11 4 22 12 30l97 97h-231c-24 0 -39 19 -39 42v42c0 23 15 42 39 42h232l-96 97c-8 8 -12 18 -12 30s4 22 12 30l24 24c8 8 18 12 30 12c11 0 22 -4 30 -12l214 -214
c8 -8 12 -18 12 -30s-4 -22 -12 -30z" />
    <glyph glyph-name="uniF11F" unicode="&#xf11f;" 
d="M256 46c-14 0 -28 1 -42 3c-38 -33 -81 -57 -131 -69c-11 -3 -21 -4 -33 -6c-6 0 -12 4 -14 10v0c-2 8 3 12 8 17c18 20 38 38 52 86c-59 32 -96 84 -96 141c0 101 114 184 256 184s256 -81 256 -182s-114 -184 -256 -184z" />
    <glyph glyph-name="uniF144" unicode="&#xf144;" 
d="M256 -64c-142 0 -256 114 -256 256s114 256 256 256s256 -114 256 -256s-114 -256 -256 -256zM262 362c-54 0 -94 -23 -123 -71c-3 -5 -2 -10 3 -13l43 -33c2 -2 4 -2 6 -2c3 0 6 2 9 5c15 20 23 25 29 30s17 7 29 7c21 0 40 -13 40 -28c0 -18 -8 -26 -28 -35
c-24 -11 -56 -38 -56 -71v-12c0 -6 4 -10 10 -10h64c6 0 10 4 10 10c0 8 9 24 26 33c26 15 60 34 60 85c0 60 -65 105 -122 105zM298 96c0 6 -4 10 -10 10h-64c-6 0 -10 -4 -10 -10v-64c0 -6 4 -10 10 -10h64c6 0 10 4 10 10v64z" />
    <glyph glyph-name="uniF16D" unicode="&#xf16d;" 
d="M256 448c142 0 256 -114 256 -256s-114 -256 -256 -256s-256 114 -256 256s114 256 256 256zM244 93c6 6 6 16 0 22l-77 77l77 77c6 6 6 16 0 22l-26 26c-6 6 -16 6 -22 0l-113 -114c-6 -6 -6 -17 0 -23l113 -113c6 -6 16 -6 22 0zM407 115l-76 77l76 75c6 6 6 17 0 23
l-26 25c-6 6 -17 6 -23 0l-113 -112c-6 -6 -6 -17 0 -23l113 -113c6 -6 17 -6 23 0l26 26c6 6 6 16 0 22z" />
    <glyph glyph-name="uniF155" unicode="&#xf155;" horiz-adv-x="266" 
d="M165 -5v-50c0 -5 -4 -9 -9 -9h-39c-5 0 -9 4 -9 9v50c-66 9 -104 49 -106 51c-3 3 -3 9 0 12l30 39c2 2 4 3 6 3c3 0 5 0 8 -3c0 0 41 -39 92 -39c29 0 59 15 59 47c0 27 -34 40 -73 55c-51 20 -116 47 -116 118c0 53 41 96 101 107v54c0 5 4 9 9 9h39c5 0 9 -4 9 -9v-50
c59 -6 89 -37 91 -39c3 -3 3 -7 1 -10l-25 -43c-2 -3 -3 -4 -6 -4s-6 -1 -8 1c0 0 -34 31 -78 31c-36 0 -62 -18 -62 -44c0 -30 34 -44 75 -59c53 -20 112 -44 112 -113c0 -59 -41 -103 -101 -114z" />
    <glyph glyph-name="uniF16A" unicode="&#xf16a;" 
d="M506 172c-53 -86 -149 -144 -250 -144s-197 58 -250 144c-3 6 -6 12 -6 20s3 14 6 20c53 86 149 144 250 144s197 -58 250 -144c3 -6 6 -12 6 -20s-3 -14 -6 -20zM366 293c12 -20 18 -42 18 -65c0 -71 -57 -128 -128 -128s-128 57 -128 128c0 23 6 45 18 65
c-45 -23 -81 -59 -108 -101c48 -75 128 -128 220 -128s168 53 218 128c-27 42 -65 78 -110 101zM256 315c-48 0 -87 -39 -87 -87c0 -8 5 -13 13 -13s14 5 14 13c0 33 26 59 58 59c8 0 14 5 14 13c2 9 -4 15 -12 15z" />
    <glyph glyph-name="uniF143" unicode="&#xf143;" horiz-adv-x="370" 
d="M280 162c-24 -14 -38 -41 -38 -53c0 -9 -8 -19 -17 -19h-96c-9 0 -15 13 -15 22v18c0 48 48 91 83 106c30 14 43 26 43 52c0 23 -28 43 -61 43c-18 0 -35 -7 -44 -13c-8 -6 -17 -15 -41 -45c-3 -5 -7 -6 -12 -6c-3 0 -7 1 -10 3l-65 50c-8 6 -9 15 -4 21
c44 72 104 107 185 107c86 0 182 -68 182 -160c0 -77 -52 -105 -90 -126zM243 -47c0 -9 -7 -17 -16 -17h-96c-9 0 -17 8 -17 17v96c0 9 8 17 17 17h96c9 0 16 -8 16 -17v-96z" />
    <glyph glyph-name="uniF14A" unicode="&#xf14a;" 
d="M199 -17h-106c-51 0 -93 42 -93 93v230c0 51 42 94 93 94h104c6 0 11 -5 11 -11c0 -9 4 -31 -11 -31h-104c-29 0 -52 -24 -52 -53v-230c0 -29 23 -53 52 -53h94c8 0 21 1 21 -11c2 -6 6 -28 -9 -28zM506 177l-178 -178c-5 -5 -9 -6 -15 -6c-12 0 -21 9 -21 21v94h-146
c-12 0 -21 9 -21 21v125c0 12 9 21 21 21h146v95c0 12 9 21 21 21c6 0 10 -3 15 -6l178 -178c5 -5 6 -9 6 -15s-3 -10 -6 -15z" />
    <glyph glyph-name="uniF108" unicode="&#xf108;" 
d="M512 -34h-369v62l41 62h-41c-68 0 -123 55 -123 123v102l-20 20l11 41h153l11 42h307l10 -62l-21 -10v-256l41 -62v-62zM184 294h-82v-81c0 -23 18 -41 41 -41h41v122z" />
    <glyph glyph-name="uniF10A" unicode="&#xf10a;" 
d="M512 278v-240c0 -38 -30 -67 -68 -67h-376c-38 0 -68 29 -68 67v240c0 38 30 68 68 68h60l14 36c6 18 26 31 46 31h137c18 0 39 -14 47 -31l14 -36h60c36 0 66 -30 66 -68zM375 157c0 66 -54 119 -119 119s-119 -54 -119 -119s54 -119 119 -119s119 54 119 119zM333 157
c0 -42 -35 -76 -77 -76s-77 34 -77 76s35 77 77 77s77 -35 77 -77z" />
    <glyph glyph-name="uniF172" unicode="&#xf172;" 
d="M512 -1c-33 57 -71 93 -116 110c-44 17 -106 26 -184 26v-122l-212 179l214 191v-107c47 0 88 -8 126 -28s67 -43 88 -70s37 -54 51 -81s22 -49 27 -69z" />
    <glyph glyph-name="uniF162" unicode="&#xf162;" 
d="M512 78c0 -23 -23 -20 -38 -20c0 -42 -34 -75 -75 -75s-75 34 -75 75h-115c0 -42 -34 -75 -75 -75s-75 34 -75 75h-21c-15 0 -38 -3 -38 20c0 11 9 19 20 19v95c0 21 -4 45 13 60l57 59c8 8 21 14 32 14h47v57c0 11 8 19 19 19h303c11 0 19 -8 19 -19v-304h2zM170 212v75
h-47c-2 0 -6 -1 -6 -3l-57 -57c-2 -2 -3 -6 -3 -6v-9h113zM133 97c-21 0 -38 -17 -38 -38s17 -37 38 -37s37 16 37 37s-16 38 -37 38zM398 97c-21 0 -38 -17 -38 -38s17 -37 38 -37s37 16 37 37c2 21 -16 38 -37 38z" />
    <glyph glyph-name="uniF179" unicode="&#xf179;" 
d="M512 397l-205 -205l205 -205l-51 -51l-205 205l-205 -205l-51 51l205 205l-205 205l51 51l205 -205l205 205z" />
    <glyph glyph-name="uniF119" unicode="&#xf119;" horiz-adv-x="329" 
d="M87 -58c-8 -8 -21 -8 -29 0l-52 53c-8 8 -8 20 0 28l168 169l-168 169c-8 8 -8 20 0 28l52 53c8 8 21 8 29 0l236 -236c8 -8 8 -21 0 -29z" />
    <glyph glyph-name="uniF15B" unicode="&#xf15b;" horiz-adv-x="402" 
d="M402 -55c0 -5 -4 -9 -9 -9h-384c-5 0 -9 4 -9 9v18c0 5 4 9 9 9h384c5 0 9 -4 9 -9v-18zM200 73c0 -20 11 -46 20 -63h-2v0c-78 36 -146 86 -146 182c0 110 128 119 128 193c0 20 -10 46 -19 63h1v0c78 -36 146 -86 146 -182c0 -110 -128 -121 -128 -193z" />
    <glyph glyph-name="uniF167" unicode="&#xf167;" 
d="M146 311c0 -15 -12 -27 -27 -27h-92c-15 0 -27 12 -27 27v54c0 15 12 27 27 27h92c15 0 27 -12 27 -27v-54zM146 165c0 -15 -12 -27 -27 -27h-92c-15 0 -27 12 -27 27v54c0 15 12 27 27 27h92c15 0 27 -12 27 -27v-54zM146 19c0 -15 -12 -27 -27 -27h-92
c-15 0 -27 12 -27 27v54c0 15 12 27 27 27h92c15 0 27 -12 27 -27v-54zM330 311c0 -15 -12 -27 -27 -27h-92c-15 0 -27 12 -27 27v54c0 15 12 27 27 27h90c15 0 27 -12 27 -27v-54h2zM330 165c0 -15 -12 -27 -27 -27h-92c-15 0 -27 12 -27 27v54c0 15 12 27 27 27h90
c15 0 27 -12 27 -27v-54h2zM330 19c0 -15 -12 -27 -27 -27h-92c-15 0 -27 12 -27 27v54c0 15 12 27 27 27h90c15 0 27 -12 27 -27v-54h2zM512 311c0 -15 -12 -27 -27 -27h-92c-15 0 -27 12 -27 27v54c0 15 12 27 27 27h92c15 0 27 -12 27 -27v-54zM512 165
c0 -15 -12 -27 -27 -27h-92c-15 0 -27 12 -27 27v54c0 15 12 27 27 27h92c15 0 27 -12 27 -27v-54zM512 19c0 -15 -12 -27 -27 -27h-92c-15 0 -27 12 -27 27v54c0 15 12 27 27 27h92c15 0 27 -12 27 -27v-54z" />
    <glyph glyph-name="uniF126" unicode="&#xf126;" 
d="M464 269c-45 -30 -89 -62 -134 -94c-18 -14 -50 -39 -74 -39v0v0c-23 0 -54 25 -74 39c-44 32 -89 62 -134 94c-20 14 -48 46 -48 72c0 29 15 53 45 53h422c26 0 45 -21 45 -45c0 -33 -24 -62 -48 -80zM512 37c0 -26 -21 -45 -45 -45h-422c-26 0 -45 21 -45 45v226
c9 -9 18 -18 29 -26c47 -32 94 -65 141 -98c24 -18 54 -39 84 -39v0v0c32 0 61 21 85 39c47 33 94 66 141 98c11 8 20 15 29 26v-226h3z" />
    <glyph glyph-name="uniF13C" unicode="&#xf13c;" horiz-adv-x="510" 
d="M501 -7c-8 -18 -28 -30 -43 -39c-21 -12 -44 -18 -68 -18c-33 0 -65 14 -95 26c-23 8 -43 18 -63 30c-62 38 -137 112 -175 174c-12 20 -22 43 -30 64c-14 30 -27 62 -27 95c0 24 7 46 18 67c9 17 21 36 39 44c12 6 38 12 50 12c3 0 4 0 7 -2c8 -3 15 -21 20 -27
c12 -21 23 -41 35 -61c6 -9 16 -21 16 -32c0 -23 -66 -54 -66 -74c0 -11 9 -22 14 -31c36 -66 83 -111 149 -149c9 -5 20 -14 31 -14c20 0 53 66 74 66c11 0 23 -10 32 -16c21 -12 41 -23 61 -35c8 -3 25 -12 27 -20c2 -3 2 -4 2 -7c3 -15 -3 -41 -8 -53z" />
    <glyph glyph-name="uniF151" unicode="&#xf151;" horiz-adv-x="440" 
d="M440 356v-256c0 -50 -55 -89 -124 -92l60 -57c6 -6 2 -15 -6 -15h-301c-9 0 -12 10 -6 15l60 57c-69 2 -123 42 -123 92v256c0 51 57 92 128 92h182c72 0 130 -41 130 -92zM384 374h-328v-146h330v146h-2zM274 118c0 30 -24 54 -54 54s-54 -24 -54 -54s24 -54 54 -54
s54 24 54 54z" />
    <glyph glyph-name="uniF134" unicode="&#xf134;" 
d="M512 -1h-512v386h32v-353h480v-33zM480 236c0 -8 -8 -11 -13 -6l-30 30l-160 -158c-3 -3 -7 -3 -12 0l-59 58l-102 -104l-48 49l146 146c3 3 7 3 12 0l59 -59l116 116l-31 30c-5 5 -2 14 6 14h109c5 0 7 -3 7 -8v-108z" />
    <glyph glyph-name="uniF14E" unicode="&#xf14e;" 
d="M504 233l-111 -109l27 -153v-6c0 -9 -3 -15 -12 -15c-5 0 -9 1 -12 3l-140 72l-139 -74c-5 -2 -7 -3 -12 -3c-9 0 -13 7 -13 15v6l27 154l-111 108c-3 5 -8 9 -8 15c0 9 9 14 17 14l155 22l69 142c3 6 7 12 15 12s12 -6 15 -12l69 -140l155 -23c8 -2 17 -4 17 -13
c0 -6 -5 -12 -8 -15zM444 228l-129 20l-59 117l-59 -117l-129 -20l95 -92l-23 -129l116 62l116 -62l-23 129z" />
    <glyph glyph-name="uniF10B" unicode="&#xf10b;" horiz-adv-x="511" 
d="M507 260l-248 -79c-2 0 -1 0 -1 0h-2l-145 46c-12 -11 -20 -35 -22 -65c9 -5 13 -13 13 -24s-4 -18 -13 -24l13 -97c0 -2 1 -4 -1 -6h-9h-42c-2 0 -5 0 -5 2c-2 2 -1 3 -1 6l13 96c-8 5 -13 13 -13 24s6 19 15 24c2 26 7 54 21 74l-74 23c-5 2 -6 2 -6 7c0 3 2 6 5 8
l248 78c2 0 1 0 1 0h2l248 -78c3 -2 5 -5 5 -8c3 -5 1 -5 -2 -7zM398 124c2 -32 -64 -57 -142 -57s-145 25 -142 57l5 71l128 -41c3 -2 8 -1 11 -1s7 -1 10 1l128 41z" />
    <glyph glyph-name="uniF139" unicode="&#xf139;" 
d="M512 157c0 -20 -15 -34 -35 -34h-442c-20 0 -35 14 -35 34v70c0 20 15 34 35 34h442c20 0 35 -14 35 -34v-70z" />
    <glyph glyph-name="uniF12F" unicode="&#xf12f;" 
d="M244 -22l-179 172c-2 2 -65 59 -65 128c0 84 51 134 137 134c50 0 96 -39 119 -62c23 23 69 62 119 62c86 0 137 -50 137 -134c0 -69 -63 -126 -65 -128l-179 -172c-3 -3 -7 -4 -12 -4s-9 -1 -12 4z" />
    <glyph glyph-name="uniF106" unicode="&#xf106;" 
d="M500 148l-24 -24c-8 -8 -18 -12 -30 -12s-22 4 -30 12l-97 97v-232c0 -24 -19 -39 -42 -39h-42c-23 0 -42 15 -42 39v232l-97 -97c-8 -8 -18 -12 -30 -12s-22 4 -30 12l-24 24c-8 8 -12 18 -12 30c0 11 4 23 12 31l214 213c8 8 18 12 30 12s22 -4 30 -12l214 -215
c8 -8 12 -18 12 -30c0 -11 -4 -21 -12 -29z" />
    <glyph glyph-name="uniF132" unicode="&#xf132;" horiz-adv-x="514" 
d="M512 73c0 -20 -15 -35 -35 -35h-442c-20 0 -35 15 -35 35v238c0 20 15 35 35 35h444c20 0 35 -15 35 -35v-238h-2zM477 311h-442v-239h444v239h-2zM102 248c0 -3 -1 -5 -4 -5h-26c-3 0 -4 2 -4 5v25c0 3 1 5 4 5h26c3 0 4 -2 4 -5v-25zM137 180c0 -3 -1 -5 -4 -5h-61
c-3 0 -4 2 -4 5v26c0 3 1 4 4 4h61c3 0 4 -1 4 -4v-26zM102 111c0 -3 -1 -5 -4 -5h-26c-3 0 -4 2 -4 5v25c0 3 1 5 4 5h26c3 0 4 -2 4 -5v-25zM170 248c0 -3 -1 -5 -4 -5h-24c-3 0 -5 2 -5 5v25c0 3 2 5 5 5h24c3 0 4 -2 4 -5v-25zM375 111c0 -3 -2 -5 -5 -5h-228
c-3 0 -5 2 -5 5v25c0 3 2 5 5 5h230c3 0 4 -2 4 -5v-25h-1zM205 180c0 -3 -2 -5 -5 -5h-25c-3 0 -5 2 -5 5v26c0 3 2 4 5 4h25c3 0 5 -1 5 -4v-26zM239 248c0 -3 -1 -5 -4 -5h-26c-3 0 -4 2 -4 5v25c0 3 1 5 4 5h26c3 0 4 -2 4 -5v-25zM273 180c0 -3 -2 -5 -5 -5h-26
c-3 0 -4 2 -4 5v26c0 3 1 4 4 4h26c3 0 5 -1 5 -4v-26zM307 248c0 -3 -1 -5 -4 -5h-26c-3 0 -4 2 -4 5v25c0 3 1 5 4 5h26c3 0 4 -2 4 -5v-25zM342 180c0 -3 -2 -5 -5 -5h-25c-3 0 -5 2 -5 5v26c0 3 2 4 5 4h25c3 0 5 -1 5 -4v-26zM375 248c0 -3 -2 -5 -5 -5h-24
c-3 0 -4 2 -4 5v25c0 3 1 5 4 5h26c3 0 4 -2 4 -5v-25h-1zM444 180c0 -3 -1 -5 -4 -5h-61c-3 0 -4 2 -4 5v26c0 3 1 4 4 4h31v63c0 3 1 5 4 5h26c3 0 4 -2 4 -5v-93zM444 111c0 -3 -1 -5 -4 -5h-26c-3 0 -4 2 -4 5v25c0 3 1 5 4 5h26c3 0 4 -2 4 -5v-25z" />
    <glyph glyph-name="uniF15E" unicode="&#xf15e;" horiz-adv-x="514" 
d="M473 -64c-11 0 -21 4 -27 12l-106 105c-36 -26 -79 -37 -123 -37c-120 -2 -217 96 -217 215s97 217 217 217s217 -97 217 -217c0 -44 -14 -87 -38 -123l105 -106c8 -8 13 -16 13 -27c-2 -21 -20 -39 -41 -39zM217 370c-75 0 -139 -62 -139 -139s62 -138 139 -138
s138 61 138 138s-63 139 -138 139zM315 222c0 -5 -5 -10 -11 -10h-69v-70c0 -5 -5 -10 -11 -10h-19c-5 0 -11 4 -11 10v70h-66c-5 0 -11 4 -11 10v20c0 5 5 10 11 10h69v68c0 5 5 11 11 11h18c5 0 10 -5 10 -11v-69h70c5 0 10 -5 10 -11v-18h-1z" />
    <glyph glyph-name="uniF15F" unicode="&#xf15f;" 
d="M512 43c0 -59 -48 -107 -107 -107s-107 48 -107 107v12l-120 60c-20 -18 -46 -28 -73 -28c-57 -2 -105 46 -105 105s48 107 107 107c29 0 54 -11 72 -29l121 61v12c-2 57 46 105 105 105s107 -48 107 -107s-48 -107 -107 -107c-29 0 -54 11 -72 29l-121 -60v-13v-12
l121 -60c20 18 45 29 72 29c59 3 107 -45 107 -104z" />
    <glyph glyph-name="uniF149" unicode="&#xf149;" 
d="M512 192c0 -11 -7 -18 -18 -20l-321 -37c2 -8 5 -13 5 -21s-5 -14 -8 -20h283c11 0 20 -8 20 -19s-9 -20 -20 -20h-314c-11 0 -20 9 -20 20c0 9 13 33 18 42l-54 253h-63c-11 0 -20 8 -20 19s9 20 20 20h78c21 0 21 -24 24 -39h369c11 0 19 -9 19 -20v-158h2zM158 -25
c-21 0 -39 18 -39 39s18 39 39 39s39 -18 39 -39s-18 -39 -39 -39zM434 -25c-21 0 -39 18 -39 39s18 39 39 39s39 -18 39 -39s-18 -39 -39 -39z" />
    <glyph glyph-name="uniF152" unicode="&#xf152;" horiz-adv-x="470" 
d="M470 331c0 -6 -5 -11 -11 -11h-31v-316c0 -36 -24 -68 -53 -68h-279c-29 0 -52 30 -52 66v318h-33c-6 0 -11 5 -11 11v21c0 6 5 10 11 10h103l23 56c6 17 27 30 44 30h107c18 0 37 -13 43 -30l24 -56h103c6 0 10 -4 10 -10v-21h2zM384 320h-298v-316c0 -17 8 -26 10 -26
h277c2 0 11 9 11 26v316zM172 53c0 -6 -5 -10 -11 -10h-21c-6 0 -10 4 -10 10v192c0 6 4 10 10 10h20c6 0 10 -4 10 -10v-192h2zM310 362l-16 39c-2 2 -4 3 -6 3h-106c-2 0 -4 -3 -6 -3l-16 -39h150zM256 53c0 -6 -5 -10 -11 -10h-21c-6 0 -10 4 -10 10v192c0 6 4 10 10 10
h21c6 0 11 -4 11 -10v-192zM342 53c0 -6 -5 -10 -11 -10h-21c-6 0 -10 4 -10 10v192c0 6 4 10 10 10h21c6 0 11 -4 11 -10v-192z" />
    <glyph glyph-name="uniF150" unicode="&#xf150;" horiz-adv-x="510" 
d="M500 115l-166 -165c-8 -8 -19 -12 -30 -12s-22 4 -30 12l-244 240c-17 17 -30 50 -30 74v140c0 24 20 44 44 44h140c24 0 57 -13 74 -30l240 -241c8 -8 12 -19 12 -30s-2 -24 -10 -32zM108 383c-24 0 -43 -19 -43 -43s19 -44 43 -44s44 20 44 44s-20 43 -44 43z" />
    <glyph glyph-name="uniF145" unicode="&#xf145;" 
d="M42 320c-6 0 -10 3 -13 8l-29 49c2 9 9 17 18 17h476c9 0 16 -8 18 -17l-29 -49c-3 -5 -7 -8 -13 -8h-428zM432 284c11 0 19 -14 11 -23l-24 -43c-3 -5 -8 -8 -14 -8h-301c-6 0 -11 3 -14 8l-24 43c-6 11 2 23 14 23h352zM367 174c12 0 20 -12 14 -23l-24 -43
c-3 -5 -8 -8 -14 -8h-174c-6 0 -11 3 -14 8l-24 43c-6 11 2 23 14 23h222zM304 64c12 0 20 -12 12 -23l-24 -43c-3 -5 -7 -8 -13 -8h-49c-6 0 -10 3 -13 8l-24 43c-6 11 1 23 13 23h98z" />
    <glyph glyph-name="uniF11C" unicode="&#xf11c;" 
d="M500 7l-59 -59c-8 -8 -17 -12 -28 -12s-21 4 -29 12l-128 127l-126 -127c-8 -8 -19 -12 -31 -12c-11 0 -20 4 -28 12l-59 59c-8 8 -12 17 -12 28s4 21 12 29l127 128l-127 126c-8 8 -12 19 -12 31s4 20 12 28l59 59c8 8 17 12 28 12s21 -4 29 -12l128 -127l126 127
c8 8 19 12 31 12c11 0 20 -4 28 -12l59 -59c8 -8 12 -17 12 -28s-4 -21 -12 -29l-127 -128l127 -126c8 -8 12 -18 12 -29c0 -12 -4 -22 -12 -30z" />
    <glyph glyph-name="uniF15A" unicode="&#xf15a;" horiz-adv-x="402" 
d="M402 -46c0 -11 -9 -18 -18 -18h-366c-11 0 -18 9 -18 18v476c-2 9 7 18 18 18h366c11 0 18 -9 18 -18v-476zM365 -28v440h-329v-438h110v63c0 5 4 9 9 9h91c5 0 9 -4 9 -9v-63h110v-2zM109 347c0 -5 -4 -9 -9 -9h-19c-5 0 -9 4 -9 9v18c0 5 4 9 9 9h19c5 0 9 -4 9 -9v-18
zM109 275c0 -5 -4 -9 -9 -9h-19c-5 0 -9 4 -9 9v18c0 5 4 9 9 9h19c5 0 9 -4 9 -9v-18zM109 201c0 -5 -4 -9 -9 -9h-19c-5 0 -9 4 -9 9v18c0 5 4 9 9 9h19c5 0 9 -4 9 -9v-18zM109 129c0 -5 -4 -9 -9 -9h-19c-5 0 -9 4 -9 9v18c0 5 4 9 9 9h19c5 0 9 -4 9 -9v-18zM109 55
c0 -5 -4 -9 -9 -9h-19c-5 0 -9 4 -9 9v18c0 5 4 9 9 9h19c5 0 9 -4 9 -9v-18zM182 347c0 -5 -4 -9 -9 -9h-18c-5 0 -9 4 -9 9v18c0 5 4 9 9 9h18c5 0 9 -4 9 -9v-18zM182 275c0 -5 -4 -9 -9 -9h-18c-5 0 -9 4 -9 9v18c0 5 4 9 9 9h18c5 0 9 -4 9 -9v-18zM182 201
c0 -5 -4 -9 -9 -9h-18c-5 0 -9 4 -9 9v18c0 5 4 9 9 9h18c5 0 9 -4 9 -9v-18zM182 129c0 -5 -4 -9 -9 -9h-18c-5 0 -9 4 -9 9v18c0 5 4 9 9 9h18c5 0 9 -4 9 -9v-18zM255 347c0 -5 -4 -9 -9 -9h-18c-5 0 -9 4 -9 9v18c0 5 4 9 9 9h18c5 0 9 -4 9 -9v-18zM255 275
c0 -5 -4 -9 -9 -9h-18c-5 0 -9 4 -9 9v18c0 5 4 9 9 9h18c5 0 9 -4 9 -9v-18zM255 201c0 -5 -4 -9 -9 -9h-18c-5 0 -9 4 -9 9v18c0 5 4 9 9 9h18c5 0 9 -4 9 -9v-18zM255 129c0 -5 -4 -9 -9 -9h-18c-5 0 -9 4 -9 9v18c0 5 4 9 9 9h18c5 0 9 -4 9 -9v-18zM328 347
c0 -5 -4 -9 -9 -9h-18c-5 0 -9 4 -9 9v18c0 5 4 9 9 9h18c5 0 9 -4 9 -9v-18zM328 275c0 -5 -4 -9 -9 -9h-18c-5 0 -9 4 -9 9v18c0 5 4 9 9 9h18c5 0 9 -4 9 -9v-18zM328 201c0 -5 -4 -9 -9 -9h-18c-5 0 -9 4 -9 9v18c0 5 4 9 9 9h18c5 0 9 -4 9 -9v-18zM328 129
c0 -5 -4 -9 -9 -9h-18c-5 0 -9 4 -9 9v18c0 5 4 9 9 9h18c5 0 9 -4 9 -9v-18zM328 55c0 -5 -4 -9 -9 -9h-18c-5 0 -9 4 -9 9v18c0 5 4 9 9 9h18c5 0 9 -4 9 -9v-18z" />
    <glyph glyph-name="uniF128" unicode="&#xf128;" 
d="M512 352v-320c0 -53 -43 -96 -96 -96h-320c-53 0 -96 43 -96 96v320c0 53 43 96 96 96h320c53 0 96 -43 96 -96zM395 320h-278c-18 0 -31 -15 -31 -32c0 -18 18 -37 33 -46c29 -20 60 -38 89 -58c12 -9 33 -24 50 -24s35 15 49 24c30 20 59 38 89 59c14 9 33 28 33 45
c-3 17 -16 32 -34 32zM426 242c-6 -8 -13 -13 -21 -18c-32 -21 -63 -41 -95 -62c-15 -11 -34 -23 -54 -23s-39 12 -54 23c-32 21 -63 41 -95 62c-8 5 -13 12 -21 18v-146c0 -18 14 -32 31 -32h278c18 0 31 15 31 32v146z" />
    <glyph glyph-name="uniF113" unicode="&#xf113;" 
d="M256 -64c-142 0 -256 114 -256 256s114 256 256 256s256 -114 256 -256s-114 -256 -256 -256zM422 209c9 9 9 21 0 30l-35 34c-9 9 -21 9 -30 0l-101 -102l-102 102c-9 9 -22 9 -31 0l-33 -34c-9 -9 -9 -21 0 -30l151 -153c9 -9 21 -9 30 0z" />
    <glyph glyph-name="uniF112" unicode="&#xf112;" 
d="M503 288l-239 -238l-46 -45c-6 -6 -13 -9 -22 -9c-8 0 -17 3 -23 9l-45 45l-119 119c-6 6 -9 15 -9 23s3 17 9 23l45 45c6 6 14 9 23 9s16 -3 22 -9l97 -98l217 217c6 6 14 9 22 9s17 -3 23 -9l45 -45c6 -6 9 -14 9 -23s-3 -17 -9 -23z" />
    <glyph glyph-name="uniF109" unicode="&#xf109;" 
d="M511 281l-84 -279c-8 -26 -35 -46 -62 -46h-285c-32 0 -65 25 -77 57c-5 14 -5 27 0 39c0 6 2 12 2 20c0 5 -4 9 -2 12c2 8 7 12 12 21c9 15 20 40 23 55c2 6 -2 12 0 18s8 11 11 16c9 14 19 41 21 55c0 6 -3 13 0 18c2 8 8 11 13 17c8 12 20 40 23 57c0 6 -3 11 -3 17
c2 6 8 11 13 19c14 20 16 62 55 50v-2c5 2 10 3 15 3h233c15 0 27 -5 35 -16s11 -26 6 -41l-83 -278c-15 -47 -23 -58 -62 -58h-266c-5 0 -9 -1 -12 -4s-3 -6 0 -14c6 -18 26 -21 43 -21h285c12 0 23 6 28 18l92 304c2 6 2 13 2 19c8 -3 13 -8 18 -14c8 -14 9 -28 6 -42z
M158 231h187c5 0 11 5 14 11l6 19c2 6 -1 11 -6 11h-188c-5 0 -11 -5 -14 -11l-6 -19c-2 -6 1 -11 7 -11zM184 309h187c5 0 10 5 13 11l6 20c2 6 -1 10 -6 10h-188c-5 0 -10 -4 -13 -10l-6 -20c-2 -6 1 -11 7 -11z" />
    <glyph glyph-name="uniF121" unicode="&#xf121;" horiz-adv-x="514" 
d="M402 246c0 -81 -91 -146 -202 -146c-18 0 -34 2 -49 5c-24 -17 -51 -28 -80 -36c-8 -2 -16 -3 -24 -5h-2c-5 0 -9 3 -9 9c-2 6 3 9 6 12c12 12 24 24 33 47c-47 27 -75 67 -75 114c0 81 91 148 202 148s200 -67 200 -148zM36 246c0 -32 21 -62 57 -83l27 -16l-10 -24
c6 3 12 7 18 10l12 9l15 -3c14 -3 29 -4 44 -4c89 0 164 50 164 110s-75 110 -164 110s-163 -49 -163 -109zM470 11c3 -3 8 -7 6 -12s-6 -9 -11 -9c-9 2 -16 3 -24 5c-29 8 -56 19 -80 36c-17 -3 -32 -5 -49 -5c-51 0 -100 14 -136 38c9 0 17 -2 26 -2c62 0 119 18 164 50
c48 35 74 82 74 133c0 15 -3 29 -6 43c48 -27 80 -69 80 -116s-31 -87 -76 -114c8 -23 20 -33 32 -47z" />
    <glyph glyph-name="uniF142" unicode="&#xf142;" 
d="M512 32c0 -53 -43 -96 -96 -96h-320c-53 0 -96 43 -96 96v320c0 53 43 96 96 96h320c53 0 96 -43 96 -96v-320zM426 213c0 12 -9 21 -21 21h-107v107c0 12 -9 21 -21 21h-42c-12 0 -21 -9 -21 -21v-107h-107c-12 0 -21 -9 -21 -21v-42c0 -12 9 -21 21 -21h107v-107
c0 -12 9 -21 21 -21h42c12 0 21 9 21 21v107h107c12 0 21 9 21 21v42z" />
    <glyph glyph-name="uniF177" unicode="&#xf177;" 
d="M275 212c50 -50 50 -132 0 -183c-51 -50 -132 -50 -182 0c-50 51 -50 133 0 183c51 50 132 50 182 0zM78 16c59 -59 153 -59 212 0s59 153 0 212s-153 59 -212 0s-59 -153 0 -212zM480 418c-8 8 -20 8 -29 0c-8 -9 -8 -21 0 -29c9 -8 21 -8 29 0c8 9 8 21 0 29zM341 236
c-5 -3 -4 -9 -1 -14c47 -72 39 -169 -24 -232c-74 -74 -196 -72 -267 6c-65 69 -66 179 -1 250c62 68 163 79 238 32c5 -3 10 -4 13 1l134 154c17 18 47 19 65 1c20 -18 19 -47 -1 -64z" />
    <glyph glyph-name="uniF10E" unicode="&#xf10e;" horiz-adv-x="288" 
d="M277 169l-223 -224c-6 -6 -13 -9 -22 -9c-18 0 -32 15 -32 32v448c-2 17 14 32 32 32c9 0 16 -3 22 -9l225 -224c6 -6 9 -14 9 -23s-5 -17 -11 -23z" />
    <glyph glyph-name="uniF111" unicode="&#xf111;" 
d="M512 -1c0 -15 -12 -27 -27 -27h-92c-15 0 -27 12 -27 27v92c0 15 12 27 27 27h27v54h-146v-54h27c15 0 27 -12 27 -27v-92c0 -15 -12 -27 -27 -27h-90c-15 0 -27 12 -27 27v92c0 15 12 27 27 27h27v54h-146v-54h27c15 0 27 -12 27 -27v-92c0 -15 -12 -27 -27 -27h-92
c-15 0 -27 12 -27 27v92c0 15 12 27 27 27h27v54c0 20 16 37 36 37h146v54h-25c-15 0 -27 12 -27 27v95c0 15 12 27 27 27h90c15 0 27 -12 27 -27v-92c0 -15 -12 -27 -27 -27h-27v-54h146c20 0 36 -17 36 -37v-54h27c15 0 27 -12 27 -27v-95h2z" />
    <glyph glyph-name="uniF13F" unicode="&#xf13f;" horiz-adv-x="464" 
d="M18 -61c-11 -6 -18 0 -18 11v484c0 12 7 17 18 11l438 -244c11 -6 11 -15 0 -21z" />
    <glyph glyph-name="uniF14D" unicode="&#xf14d;" 
d="M504 233l-111 -109l27 -153v-6c0 -8 -3 -15 -12 -15c-5 0 -9 1 -12 3l-140 72l-139 -74c-5 -2 -7 -3 -12 -3c-9 0 -13 7 -13 15v6l27 154l-111 108c-3 5 -8 9 -8 15c0 9 9 14 17 14l155 22l69 142c3 6 7 12 15 12s12 -6 15 -12l69 -140l155 -23c8 -2 17 -4 17 -13
c0 -6 -5 -12 -8 -15z" />
    <glyph glyph-name="uniF165" unicode="&#xf165;" horiz-adv-x="393" 
d="M286 328c-9 0 -15 6 -15 15v82c0 8 5 10 11 5l91 -92c6 -6 4 -10 -4 -10h-83zM143 251c0 -8 -8 -12 -17 -12h-6v24h8c11 0 15 -3 15 -12zM378 309c8 0 13 -6 15 -15v-343c0 -9 -7 -15 -15 -15h-363c-9 0 -15 7 -15 15v482c0 9 6 15 15 15h224c9 0 15 -7 15 -15v-45h-204
c-6 0 -9 -4 -9 -9s4 -9 9 -9h203v-42h-203c-5 0 -9 -5 -9 -10s4 -9 9 -9h293v0h35zM292 184l2 -9c0 -2 -1 -3 1 -3h18v-63s0 -1 2 -1h10s2 -1 2 1v63h18c2 0 3 1 3 3v9s0 2 -2 2h-51c-2 0 -3 0 -3 -2zM285 184c0 2 -2 2 -2 2h-42s-2 0 -2 -2v-73s0 -2 2 -2h41c2 0 3 0 3 2v7
c0 2 0 3 -2 3h-30v21h26c2 0 3 1 3 3v8s0 1 -2 1h-26v18h28c2 0 3 1 3 3v9zM264 276c-24 0 -40 -16 -40 -42c0 -23 12 -39 38 -39c8 0 13 1 18 3c0 0 2 1 2 3l-2 8c-2 2 -1 1 -3 1c-3 0 -8 -1 -13 -1c-15 0 -25 10 -25 27c0 18 11 27 25 27c5 0 8 0 13 -2c2 0 3 0 3 2l2 7
c0 2 0 3 -2 3c-3 2 -8 3 -16 3zM226 184c0 2 -1 2 -3 2h-42s-2 0 -2 -2v-73s0 -2 2 -2h42c2 0 3 0 3 2v7c0 2 0 3 -2 3h-30v21h26c2 0 3 1 3 3v8s0 1 -2 1h-25v18h27c2 0 3 1 3 3v9zM169 273v-73s-1 -2 1 -2h42c2 0 3 0 3 2v7c0 2 1 3 -1 3h-30v21h25c2 0 3 1 3 3v8
s1 1 -1 1h-27v18h27c2 0 3 1 3 3v9s0 2 -2 2h-42s-1 0 -1 -2zM104 272v-72s-1 -2 1 -2h11c2 0 3 0 3 2v27h9c17 0 29 8 29 25c0 18 -15 24 -32 24c-8 0 -14 -1 -20 -1c0 0 -1 -1 -1 -3zM104 184v-73s-1 -2 1 -2h11c2 0 3 0 3 2v31h30v-31s1 -2 3 -2h11c2 0 3 0 3 2v73
s-1 2 -3 2h-11c-2 0 -3 0 -3 -2v-28h-30v28s-1 2 -3 2h-11s-1 0 -1 -2zM45 212l-1 -8c0 -2 -1 -3 1 -3c5 -2 12 -3 20 -3c18 0 28 9 28 23c0 26 -33 22 -33 36c0 6 4 9 12 9c6 0 10 -1 15 -3c2 0 3 -1 3 1l2 8c0 2 0 3 -2 3c-6 2 -10 3 -18 3c-15 0 -27 -9 -27 -23
c0 -26 33 -21 33 -36c0 -6 -4 -9 -12 -9c-6 0 -13 1 -18 3c-2 0 -3 1 -3 -1zM45 123l-1 -8c0 -2 -1 -3 1 -3c5 -2 12 -3 20 -3c18 0 28 9 28 23c0 26 -33 22 -33 36c0 6 4 9 12 9c6 0 10 -1 15 -3c2 0 3 -1 3 1l2 8c0 2 0 3 -2 3c-6 2 -10 3 -18 3c-15 0 -27 -9 -27 -23
c0 -26 33 -21 33 -36c0 -6 -4 -9 -12 -9c-6 0 -13 1 -18 3c-2 0 -3 1 -3 -1zM191 -4c5 0 9 4 9 9s-4 9 -9 9h-141c-5 0 -9 -4 -9 -9s4 -9 9 -9h141zM342 56c5 0 9 5 9 10s-4 9 -9 9h-292c-5 0 -9 -4 -9 -9s4 -10 9 -10h292z" />
    <glyph glyph-name="uniF12E" unicode="&#xf12e;" 
d="M276 -64c-6 2 -12 1 -17 3c-11 3 -19 7 -27 15c-20 20 -17 49 6 66c24 18 56 17 80 -1c6 -5 10 -11 13 -17c2 -3 3 -4 6 -4h29c3 0 7 1 10 3c14 8 26 19 35 31c18 23 30 48 35 77v3v2h-12c-12 0 -20 7 -20 19v137c0 8 3 13 11 18c2 0 1 2 3 2v0c-17 53 -76 114 -157 120
c-96 6 -162 -60 -185 -119c0 0 0 1 0 -1c11 -5 13 -12 13 -23v-132c0 -11 -6 -18 -15 -20h-15c-36 5 -56 31 -64 63c-2 6 -1 11 -3 17c0 2 -2 4 -2 6v5c2 6 1 10 3 16c5 24 15 43 35 57c2 2 2 3 4 6c5 11 9 22 14 33c14 30 33 55 57 76c33 29 70 46 114 52c21 3 41 3 62 0
c38 -6 71 -20 101 -43c24 -18 44 -40 59 -66c9 -15 16 -32 22 -50c0 -2 2 -4 5 -6c21 -14 31 -35 34 -59c2 -5 2 -10 2 -15v-4c0 -3 -2 -5 -2 -8c-2 -26 -12 -48 -33 -65c-2 -2 -3 -3 -3 -6c-2 -8 -1 -13 -3 -21c-6 -32 -19 -58 -39 -84c-14 -17 -28 -30 -46 -41
c-6 -3 -13 -4 -19 -4h-30c-3 0 -4 0 -6 -3c-8 -17 -20 -25 -37 -30c-5 -2 -10 -1 -15 -3c0 -2 -1 -2 -3 -2z" />
    <glyph glyph-name="uniF16B" unicode="&#xf16b;" horiz-adv-x="433" 
d="M167 7c8 -5 11 -9 6 -17c-8 -8 5 -13 -9 -40s-56 -5 -56 -5s-58 31 -84 54s-30 48 -15 60s29 13 27 19c-2 5 5 12 10 9s60 -41 60 -41s53 -34 61 -39zM423 332c20 -27 6 -42 6 -42s-172 -217 -184 -232c-14 -17 -37 -16 -48 -18c-9 -2 -4 -17 -9 -26s-18 0 -18 0
s-85 59 -103 70c-18 12 -16 13 -16 18s12 10 18 16s-2 21 -2 21c-8 23 3 38 3 38s91 160 115 214c27 56 37 55 37 55c36 11 76 -22 112 -48c38 -26 69 -39 89 -66zM379 278c0 0 18 19 15 28c-2 9 -1 26 -72 64c0 0 -33 21 -45 30c-11 9 -37 18 -46 7
c-8 -11 -72 -126 -72 -126s-55 -96 -63 -107s-14 -27 0 -50c0 0 21 -34 47 -52c0 0 -14 4 -34 19c-20 17 -30 16 -36 8c0 0 89 -60 94 -62s14 -6 12 6c-3 12 -9 8 -9 16c0 0 36 4 48 10s44 54 44 54zM111 162c8 14 77 126 77 126l173 -12l-146 -183s-14 -14 -29 -9
c-17 5 -45 10 -77 57c0 0 -6 7 2 21zM317 258l-122 8l-64 -106s-8 -10 0 -19s28 -33 55 -38c0 0 9 0 15 9c6 11 116 146 116 146z" />
    <glyph glyph-name="uniF11A" unicode="&#xf11a;" horiz-adv-x="513" 
d="M453 34c-8 -8 -21 -8 -29 0l-168 169l-169 -169c-8 -8 -21 -8 -29 0l-52 53c-8 8 -8 20 0 28l235 235c9 8 21 8 30 0l236 -235c8 -8 8 -20 0 -28z" />
    <glyph glyph-name="uniF141" unicode="&#xf141;" 
d="M256 -64c-142 0 -256 114 -256 256s114 256 256 256s256 -114 256 -256s-114 -256 -256 -256zM405 213c0 12 -9 21 -21 21h-86v86c0 12 -9 21 -21 21h-42c-12 0 -21 -9 -21 -21v-86h-86c-12 0 -21 -9 -21 -21v-42c0 -12 9 -21 21 -21h86v-86c0 -12 9 -21 21 -21h42
c12 0 21 9 21 21v86h86c12 0 21 9 21 21v42z" />
    <glyph glyph-name="uniF13E" unicode="&#xf13e;" 
d="M467 322l-59 -59l59 -255c2 -5 0 -9 -5 -12l-46 -34c-2 -2 -5 -2 -8 -2h-3c-3 0 -5 3 -7 6l-103 185l-93 -95l19 -70c2 -5 0 -7 -3 -12l-34 -35c-2 -2 -6 -3 -9 -3v0c-3 0 -6 2 -9 5l-70 91l-91 70c-3 2 -5 6 -5 9s1 6 3 9l35 36c2 2 6 3 9 3h3l70 -21l95 95l-185 102
c-3 2 -6 4 -6 9c0 3 0 8 3 11l47 46c3 2 7 4 10 2l243 -59l59 59c35 35 93 58 117 34c23 -23 0 -80 -36 -115z" />
    <glyph glyph-name="uniF156" unicode="&#xf156;" horiz-adv-x="470" 
d="M381 -64h-292c-53 0 -89 32 -89 86c0 75 18 191 116 191c11 0 54 -47 119 -47s108 47 119 47c98 0 116 -116 116 -191c0 -54 -36 -86 -89 -86zM235 192c-71 0 -128 57 -128 128s57 128 128 128s128 -57 128 -128s-57 -128 -128 -128z" />
    <glyph glyph-name="uniF130" unicode="&#xf130;" 
d="M482 192h-106l-31 63c-3 6 -10 11 -18 11c-8 -2 -14 -6 -17 -14l-36 -123l-56 196c-3 8 -9 13 -18 13s-15 -5 -18 -13l-31 -133h-121c-15 23 -30 53 -30 86c0 84 51 134 137 134c50 0 96 -39 119 -62c23 23 69 62 119 62c86 0 137 -50 137 -134c0 -33 -13 -63 -30 -86z
M453 156l-6 -6l-179 -172c-3 -3 -7 -4 -12 -4s-9 1 -12 4l-179 172l-6 6h105c9 0 15 5 18 13l20 80l54 -190c3 -8 9 -13 18 -13c8 0 15 5 18 13l42 139l17 -32c3 -6 8 -10 16 -10h86z" />
    <glyph glyph-name="uniF15C" unicode="&#xf15c;" 
d="M512 64c0 -27 -21 -48 -48 -48h-416c-27 0 -48 21 -48 48v273h63v31h449v-304zM63 303h-31v-239c0 -9 7 -17 16 -17s17 8 17 17v239h-2zM480 337h-384v-273c0 -6 -1 -11 -3 -17h371c9 0 16 8 16 17v273zM288 144h-160v159h160v-159zM288 81h-160v31h160v-31zM160 272v-97
h96v97h-96zM449 272h-128v31h128v-31zM449 209h-128v31h128v-31zM449 144h-128v31h128v-31zM449 81h-128v31h128v-31z" />
    <glyph glyph-name="uniF13A" unicode="&#xf13a;" 
d="M256 -64c-142 0 -256 114 -256 256s114 256 256 256s256 -114 256 -256s-114 -256 -256 -256zM405 213c0 12 -9 21 -21 21h-256c-12 0 -21 -9 -21 -21v-42c0 -12 9 -21 21 -21h256c12 0 21 9 21 21v42z" />
    <glyph glyph-name="uniF137" unicode="&#xf137;" horiz-adv-x="508" 
d="M504 123c3 -3 5 -8 3 -11c0 -3 -1 -7 -4 -10l-139 -140c-3 -3 -5 -5 -10 -5c-3 0 -8 2 -11 5l-79 81c-3 3 -5 5 -5 10c0 3 2 8 5 11l22 23c3 3 8 4 11 4s7 -1 10 -4l48 -49l106 107c3 3 5 5 10 5c3 0 8 -2 11 -5zM93 309c0 65 53 118 118 118s117 -53 117 -118
s-52 -117 -117 -117s-118 52 -118 117zM232 53c0 -12 4 -22 15 -30l66 -66h-232c-48 0 -81 30 -81 80c0 69 16 176 105 176c9 0 49 -42 109 -42c59 0 99 42 108 42c51 0 78 -35 92 -77l-59 -58l-28 28c-8 8 -19 12 -30 12c-12 0 -22 -4 -30 -12l-23 -22
c-8 -8 -12 -20 -12 -31z" />
    <glyph glyph-name="uniF158" unicode="&#xf158;" 
d="M512 32c0 -53 -43 -96 -96 -96h-320c-53 0 -96 43 -96 96v320c0 53 43 96 96 96h320c53 0 96 -43 96 -96v-320zM434 187c-5 20 -21 35 -39 37c-45 5 -92 4 -137 4s-93 1 -138 -4c-20 -2 -34 -17 -39 -37c-6 -27 -6 -58 -6 -87s0 -58 6 -87c5 -20 19 -33 39 -36
c45 -5 93 -5 138 -5s92 0 137 5c20 3 34 16 39 36c6 29 6 58 6 87s0 60 -6 87zM178 162h-27v-142h-25v142h-27v22h77v-22h2zM218 416h-25l-17 -64l-18 64h-25c5 -15 10 -29 15 -46c8 -24 13 -41 15 -53v-68h24v68zM244 22h-23v13c-9 -11 -16 -15 -25 -15c-8 0 -12 3 -14 9
c-2 3 -1 9 -1 18v97h22v-91v-9c0 -3 2 -4 5 -4c5 0 8 2 13 10v94h23v-122zM285 334c0 14 -3 22 -8 28c-6 9 -15 12 -26 12c-12 0 -19 -4 -25 -12c-5 -6 -8 -16 -8 -28v-44c0 -14 3 -23 8 -29c6 -9 14 -12 25 -12s20 4 26 12c5 6 8 17 8 29v44zM262 287c0 -12 -3 -17 -11 -17
s-10 6 -10 17v51c0 12 2 18 10 18s11 -6 11 -18v-51zM328 58c0 -11 0 -19 -3 -24c-3 -9 -9 -14 -18 -14c-8 0 -14 5 -22 14v-12h-23v164h24v-54c8 9 15 13 23 13c9 0 15 -4 18 -13c2 -5 3 -13 3 -24v-50h-2zM306 109c0 11 -3 17 -9 17c-3 0 -8 -1 -11 -6v-76
c3 -3 8 -6 11 -6c6 0 9 6 9 17v54zM366 251v123h-23v-95c-5 -8 -8 -10 -13 -10c-3 0 -4 1 -6 6v9v90h-23v-98c0 -9 0 -15 2 -18c3 -6 7 -9 15 -9c9 0 16 4 25 15v-13h23zM413 61v-15c0 -5 -3 -9 -5 -14c-6 -9 -15 -13 -27 -13s-21 4 -27 12c-5 6 -8 14 -8 28v44
c0 14 1 23 6 29c6 9 15 12 27 12c11 0 20 -4 26 -12c5 -6 8 -15 8 -29v-25h-44v-22c0 -12 3 -16 12 -16c6 0 9 3 11 9v15h22v-3h-1zM390 97v12c0 12 -3 17 -11 17s-10 -6 -10 -17v-12h21z" />
    <glyph glyph-name="uniF123" unicode="&#xf123;" horiz-adv-x="405" 
d="M182 246c0 -23 -15 -43 -36 -51v-223c0 -20 -16 -36 -36 -36h-38c-20 0 -36 16 -36 36v223c-21 8 -36 28 -36 51v184c-2 9 7 18 18 18s18 -9 18 -18v-119c0 -11 9 -18 18 -18s18 9 18 18v119c0 9 10 18 19 18c11 0 18 -9 18 -18v-119c0 -11 9 -18 18 -18c11 0 18 9 18 18
v119c0 11 9 18 18 18c11 0 18 -9 18 -18v-184h1zM402 -28c0 -20 -16 -36 -36 -36h-36c-20 0 -36 16 -36 36v146h-63c-5 0 -9 4 -9 9v229c0 50 40 92 91 92h74c11 0 18 -9 18 -18v-458h-3z" />
    <glyph glyph-name="uniF153" unicode="&#xf153;" 
d="M512 78c0 -23 -23 -20 -38 -20c0 -42 -34 -75 -75 -75s-75 34 -75 75h-115c0 -42 -34 -75 -75 -75s-75 34 -75 75h-21c-15 0 -38 -3 -38 20c0 11 9 19 20 19v95c0 21 -4 45 13 60l57 59c8 8 21 14 32 14h47v57c0 11 8 19 19 19h303c11 0 19 -8 19 -19v-304h2zM170 212v75
h-47c-2 0 -6 -1 -6 -3l-57 -57c-2 -2 -3 -6 -3 -6v-9h113zM133 97c-21 0 -38 -17 -38 -38s17 -37 38 -37s37 16 37 37s-16 38 -37 38zM398 97c-21 0 -38 -17 -38 -38s17 -37 38 -37s37 16 37 37c2 21 -16 38 -37 38z" />
    <glyph glyph-name="uniF157" unicode="&#xf157;" 
d="M101 -52c-6 -8 -16 -12 -27 -12s-21 4 -29 12l-33 33c-8 8 -12 18 -12 29s4 20 12 28l212 213c17 -41 49 -74 91 -91zM93 49c-11 0 -19 -9 -19 -20s8 -19 19 -19s20 8 20 19s-9 20 -20 20zM504 263c-20 -56 -72 -94 -132 -94c-77 0 -140 63 -140 140s63 139 141 139
c23 0 53 -8 71 -20c3 -2 5 -4 5 -9c0 -3 -2 -7 -5 -9l-92 -52v-70l61 -33c11 6 82 51 88 51s11 -4 11 -10c0 -11 -5 -24 -8 -33z" />
    <glyph glyph-name="uniF100" unicode="&#xf100;" 
d="M512 -1h-512v386h32v-353h480v-33zM480 64h-417v145l112 144l144 -144l97 79z" />
    <glyph glyph-name="uniF12B" unicode="&#xf12b;" 
d="M169 242c0 14 11 22 31 22c14 0 27 -3 38 -6c2 0 1 0 1 2l-7 36s0 1 -2 1c-9 2 -17 3 -28 3c-42 0 -76 -22 -76 -60c0 -68 92 -57 92 -98c0 -17 -13 -25 -34 -25c-17 0 -33 3 -47 9c-2 0 -1 0 -1 -2l-8 -31s0 -2 2 -2c14 -6 34 -9 54 -9c51 0 80 25 80 63
c-2 68 -95 59 -95 97zM468 297v0l42 2c2 0 2 0 2 -2l-48 -212s0 -1 -2 -1h-31c-2 0 -2 1 -2 1l39 212zM133 297h-131c-2 0 -2 1 -2 -1v-212s0 -2 2 -2h40s2 0 2 2v87h64s2 -1 2 1v34s0 1 -2 1h-66v56h65s1 -1 1 1c3 14 13 24 25 33c2 -2 0 0 0 0zM426 190l-19 107s0 2 -2 2
h-48s-2 0 -2 -2l-31 -164l-27 164s0 2 -2 2h-42s-2 0 0 -2l48 -213v0h48v0l33 153v0v0l29 -135c0 -2 2 -2 2 0l13 88v0z" />
    <glyph glyph-name="uniF110" unicode="&#xf110;" 
d="M512 192c0 -11 -7 -18 -18 -20l-321 -37c2 -6 5 -15 5 -21c0 -8 -5 -14 -8 -20h283c11 0 20 -8 20 -19s-9 -20 -20 -20h-314c-11 0 -20 9 -20 20c0 9 15 33 18 42l-54 253h-63c-11 0 -20 8 -20 19s9 20 20 20h78c21 0 21 -24 24 -39h369c11 0 19 -9 19 -20v-158h2z
M158 -25c-23 0 -39 18 -39 39c0 23 18 39 39 39s39 -18 39 -39s-18 -39 -39 -39zM354 290h-39v41c0 11 -9 19 -20 19s-19 -8 -19 -19v-40h-40c-11 0 -19 -8 -19 -19s8 -20 19 -20h40v-39c0 -11 8 -19 19 -19s20 8 20 19v39h39c11 0 19 9 19 20s-7 18 -19 18zM434 -25
c-23 0 -39 18 -39 39c0 23 18 39 39 39c23 0 39 -18 39 -39s-18 -39 -39 -39z" />
  </font>
</defs>
</svg>
